<svg xmlns="http://www.w3.org/2000/svg" viewBox="0 0 110 110"><defs><style>.cls-1{fill:#efe215;}</style></defs><title>dqvv_icon</title><g id="Modo_de_aislamiento" data-name="Modo de aislamiento"><path class="cls-1" d="M55,5a50,50,0,1,0,50,50A50,50,0,0,0,55,5ZM73.26,69.25a1.8,1.8,0,0,1,.31,2.47l-1.85,1.85a1.8,1.8,0,0,1-2.47-.31L55,59,40.75,73.26a1.8,1.8,0,0,1-2.47.31l-1.85-1.85a1.8,1.8,0,0,1,.31-2.47L51,55,36.74,40.75a1.8,1.8,0,0,1-.31-2.47l1.85-1.85a1.8,1.8,0,0,1,2.47.31L55,51,69.25,36.74a1.8,1.8,0,0,1,2.47-.31l1.85,1.85a1.8,1.8,0,0,1-.31,2.47L59,55Z"/></g></svg>