<?xml version="1.0" encoding="utf-8"?>
<!-- Generator: Adobe Illustrator 22.0.1, SVG Export Plug-In . SVG Version: 6.00 Build 0)  -->
<svg version="1.1" id="DQVV_LOGO" xmlns="http://www.w3.org/2000/svg" xmlns:xlink="http://www.w3.org/1999/xlink" x="0px" y="0px"
	 viewBox="0 0 512 428" style="enable-background:new 0 0 512 428;" xml:space="preserve">
<style type="text/css">
	.st0{fill:#FFFFFF;}
	.st1{fill:#EFE215;}
</style>
<title>De_Que_Vuelan_Vuelan_Logo</title>
<path class="st0" d="M285.4,225.2c-0.4-0.5-0.9-1.1-1.6-1.1c-1.6,0-0.6,2.8-3.2,2.8c-1,0-1.9-0.3-2.6-1c0.1-0.7,1.1-1.4,1.6-1.9
	c1.7-1.7,1.4-4.2,3.2-5.4c-0.2-3,1.1-4.5,1.6-7.2c-0.4-1.7,1-3.2,1-4.8c0-0.5-0.1-0.9-0.4-1.3l0.6-0.5c-0.1-2.1,0.1-4.1,0.1-6.1
	c0.1-1.9-0.3-3.7-1-5.4c0.1-0.9-0.5-1.7-0.8-2.5c-0.9-2.4-0.4-5.5-2.7-7.3c-0.3-0.9-0.6-1.9-1.5-2.4c-3-5-8.9-8-14.4-8
	c-7.3,0-13.2,4.8-16.1,11.3c-0.7,1.8-1,3.6-1.6,5.3c-0.1,0.7-0.7,1.4-0.9,2.2c-0.8,2.8-0.8,5.7-0.8,8.7c0,1-0.2,2.4,0,3.3l1.7,10.6
	c0.4,0.1,1,0,1,0.5c0,0.7,0.2,0.3,0.2,1c0,0.2-0.6,1.5-0.4,1.7c3.4,6.5,8.4,14.2,16.7,14.2c3.1,0,5.9-1.1,8.8-2.3
	c1.4,2.4,4.1,1.6,6.5,2C283.2,230.5,285.1,228.1,285.4,225.2z M279.4,207.7l1,0.4l-0.6,0.9l-0.9-0.4L279.4,207.7z M250.2,203.4h-1.1
	v-1h1.1V203.4z M251.4,193.7h-0.9v-0.9h0.9V193.7z M273.3,180.1l0.8,0.1v0.5h-0.8V180.1z M253.9,187.6l0.5,0.1v0.7h-0.5V187.6z
	 M255.4,222.8h-1.2v-1h1.2V222.8z M255.8,186.9H255v-0.6h0.8V186.9z M271.9,224.2l-0.8-3.4l0.9-0.2l0.1,0.2c0,0.3-0.1,0.6-0.1,0.8
	l0.6,0.3L271.9,224.2z M273,218.7c-1.3-2-3.7-4.2-6.3-4.2c-4.2,0-5.7,4.5-6.1,6.1c-0.2,0.9-0.8,2.6,0.5,2.6c0.9,0,1.2-0.4,1.7-1.1
	c0.4-0.7,0.9-1.2,1.6-1.6l0.9-0.1c0.6-0.1,0.5,0.1,1.1,0.3c1.5,1.7,3.3,3.2,4,5.3c-1.1,2-3.4,2.3-5.4,2.2h-1.3
	c-4.3-2.7-6.1-10.1-6.9-14.9c-0.3-1.7,0.1-4,0.1-5.8v-15.7c0-1.5,0.6-3,0.6-4.4c2-1.5,0.8-4,1.9-6.2c0.8-1.9,3.6-4.1,5.7-4.1
	c2.7,0,4.3,1.7,6.2,3.2c2.3,5.9,3.5,12.2,3.5,18.5C274.6,205.3,274.7,212.3,273,218.7L273,218.7z M275.8,185.1h-0.5v-0.8l0.5,0.1
	V185.1z M40.2,249.2c-0.2,1.1-0.4,2.1-0.5,3.2c0,2.3,2.6,1.4,3.3,2.4v1.4c0.2,5.7-0.9,11.4-3.3,16.6c-0.6,1.4-0.2,3.6-1.2,4.9
	c-0.6,2.4-0.7,5-1.5,7.4l0.5,0.4h-0.2c-2.1,4.6-2.3,9.9-4,14.6h-0.5c0.1-2.9-1.3-7.4-2.5-10.1c0.4-4.9-2.4-7.8-2.4-12
	c0-0.6,0-1.1,0.1-1.7c-1.3-3.3-1.7-7-2.8-10.5c-2-1.9-0.6-5.6-1.8-8.1l0.8-0.8c-0.9-2.4,2.6-2.1,2.6-4.4c-0.1-1.1-0.2-2.1-0.4-3.2
	c-3.3-0.3-6.8-0.4-10.1-0.4c-3.4,0-6.9,0.1-10.3,0.4c0.2,1.3-0.2,2.9,0.9,3.7c6.2,0.6,7.7,19.5,9.7,24.7c-0.5,4,1.9,7.3,1.9,11.3
	v0.4c1.7,4.6,1.8,9.6,3.3,14.2c-0.3,0.4-0.5,0.8-0.5,1.3c0,2.2,2.3,3.7,2.3,5.3c0,3.2,1.5,5.3,1.5,7.9c0,0.8-0.2,1.5-0.2,2.2
	c0,3.5,3.1,4.4,5.8,4.4h1.4c0.1-1.8,0.5-3.6,1.2-5.3c1.9-5,3.4-8.3,3.8-13.8c0.2-3.6,2.4-7,1.9-10.6l0.1-0.1h-0.1l0.7-0.3
	c0.1-0.4,0.2-0.8,0.2-1.2c0-0.6-0.2-1.2-0.2-1.7s0.7-0.8,1.1-0.9c-0.1-1.3,0-2.3,0-3.6c0-0.7-0.1-1.5-0.4-2.2c3-3.7,3-11,5-15.5
	l-0.6-0.4h0.4c0.7-3.1,1.9-6,2.3-9.2h0.2c0.1-0.4,0.2-0.8,0.2-1.3c0-0.5-0.1-1-0.4-1.4l1.7-1c-0.2-0.5-0.4-1-0.7-1.4
	c0.4,0.1,0.8,0.1,1.2,0c1.5-1.7,4.4-1.4,4.4-4.5c0-0.4-0.1-0.8-0.1-1.2L40.2,249.2z M15.3,254.4h-1.2v-1.3l1.2,0.1L15.3,254.4z
	 M16.9,250.5h0.8v1.3h-0.8L16.9,250.5z M18.5,263.7v1.2h-0.8v-1.3L18.5,263.7z M18.6,270h-1.1v-1.3l1.2,0.1L18.6,270z M23.9,276.1
	l-0.8-0.1l0.1-1.2h0.8L23.9,276.1z M27.9,291.7h0.8l-0.1,1.3h-0.8L27.9,291.7z M29.3,293.9v1.3l-0.8-0.1v-1.2L29.3,293.9z
	 M29.1,322.1l-0.7-0.1v-1.2h0.7V322.1z M29.4,300.3l-1.2-0.1l0.1-1.2h1.1L29.4,300.3z M34.8,306.3h-0.8v-1.3h0.8V306.3z M46.4,255.8
	l-0.6,1.9l0.4-2.6h1.1L46.4,255.8z M51.2,253.1l-1.4,0.5c1.2-0.8,1.5-1.7,2.6-1.7L51.2,253.1z M505.8,258.9l-5.9-0.2
	c-0.3,0.1-0.6,0.2-0.9,0.2c-0.9-0.1-1.6-0.6-2.5-0.6c-0.7,0-1.4,0.4-1.7,1v0.3c-0.2,2.5,3.6,1.7,3.9,3.4c-0.1,0.5-0.2,1.1-0.2,1.6
	c-0.1,2.7,0.9,5.3,0.8,8c0,0.5,0,1-0.2,1.5c0.1,0.4,0.2,0.7,0.2,1.1c0,0.9-0.2,1.9-0.3,2.9c0,0.5,0.1,1.2,0.6,1.4v0.2
	c-0.1,0.6-0.3,1.1-0.6,1.6c0.9,1,0.2,6.2,0.9,7.4c0,0.2-0.1,0.8-0.4,0.8c-0.7,0-0.6-1.1-0.7-1.6c-1.3-1.2-1.6-3.1-2.5-4.4
	c-1.7-0.8-0.6-4.1-2.5-5c0-1.8-1.9-3.5-2.3-5.2c-0.3,0-0.6,0-0.8-0.3c0.2-0.2,0.3-0.3,0.3-0.5c0-0.5-1.3-1.1-1.3-2.2l0.1-0.2
	c-1.4-1.7-1.7-4.3-3.6-5.6l0.3-0.3c-0.3-1-1.6-1.6-1.6-2.6h-0.6c-0.5-1.8-1.7-2.5-3.3-2.5c-1.7-0.1-3.4,0.4-5.1,0.4
	c-0.5,0-1-0.2-1.5-0.3c-0.1,0.4-0.1,0.7-0.2,1.1c-0.1,2,2.2,1,3.2,2.5c-0.4,1.9,0.9,2.8,0.9,4.3c0,0.5-0.2,0.9-0.6,1.3
	c0.3,1.1,0.5,2.3,0.4,3.4c-0.1,1.5,0.2,3.3,0.1,4.5c0,1.7-0.2,2.7,0.5,4.4l-0.6,0.6c1.3,7.3-0.7,15,0.1,22.5
	c-0.9,3.9-3.6,2.1-3.6,4.2v1.4c0.8-0.4,1.7-0.6,2.5-0.5c1,0.1,2.9,0.3,4-0.1c0.3-0.1,0.6-0.2,0.9-0.2c1.3,0.1,2.5,1.6,3.5,0.3
	c0-0.3,0.1-0.4,0.1-0.6c0-1.6-1.7-1.6-2.7-2.6l-0.2,0.3c-1.5-1.3-1.3-4.5-1.7-6.4c0.2-0.3,0.5-0.6,0.5-0.8c0-0.2-0.2-0.4-0.4-0.5
	l0.6-6.6c-0.2-0.4-0.3-1-0.2-1.5c0-0.8,0.2-1.9-0.6-2.3c0.3-0.1,0.5-0.4,0.6-0.8c0-0.4-0.2-0.8-0.2-1.2c0-0.6,0.4-1.3,0.5-2
	c0-1.5-0.8-3.1-0.7-4.6c0.1-1.5,0.7-5,0.9-6.5c1.9,2.5,3.4,6.2,5.1,9c-0.1,0.3-0.3,0.3-0.5,0.3s0,0.3-0.2,0.4
	c2.2,0.8,2.3,3.8,3.9,4.4c-0.1,0.2-0.2,0.3-0.4,0.3l-0.4-0.1c1,2.1,2.3,4.1,3.8,5.9c-0.2,0.1-0.3,0.4-0.2,0.6c0.2,0.2,0.3,1,0.4,1
	v-0.1c0.4,1.5,2.3,2.5,2.3,3.6c-0.1,1,0.5,2,1.4,2.4l-0.2,0.4l0.6,0.4c-0.1,0.2-0.3,0.3-0.6,0.3h0.2c0.6,0.5,0.7,1.6,0.7,2.4
	c2,1,1.5,5.5,3.6,5.5c0.7,0,1.3-0.4,1.3-1.1c0-0.2-0.1-0.4-0.2-0.6c0-7.3,0.2-14.5,0.2-21.7l-0.6-0.7l0.4-0.2h0.2l-0.1-2.9
	c-0.1-1.7-0.5-4.4-0.4-6.2c0-0.8,0.2-1.6,0.6-2.3c-0.4-0.6-0.6-1.4-0.6-2.1c0.1-0.7,0-1.3-0.2-2c0.3-2.9-0.2-5.3,1.2-7.9
	c0.6-1.1,2.6-0.8,2.6-1.9C506,259.5,505.9,259.1,505.8,258.9L505.8,258.9z M475.4,308.1l-0.3-0.1v-0.3h0.3V308.1z M479.1,298.2h-0.3
	v-0.4l0.4,0.1L479.1,298.2z M484.3,308.5h0.5l-0.1,0.5l-0.4-0.1V308.5z M480.4,269.8h-0.6v-0.7h0.6V269.8z M480.4,267.8h-0.6v-0.6
	h0.6L480.4,267.8z M481,269.3h-0.4v-0.4h0.5L481,269.3z M481.1,265.5l-0.5-0.1V265h0.5V265.5z M482.4,260.1h0.5v0.5h-0.5V260.1z
	 M483.4,271.3H483v-0.5h0.5L483.4,271.3z M483.2,268.2l-1.2-1.6h0.6l0.3,0.6C483.9,267.2,483.7,267.7,483.2,268.2L483.2,268.2z
	 M489.8,283.8h-0.3v-0.4h0.3V283.8z M491.1,285.4h0.5v0.3h-0.5V285.4z M491.1,288.6l-0.4-0.9h0.6l0.6,1.8L491.1,288.6z M497.8,296.6
	h-0.5l0.1-0.4h0.4V296.6z M500.9,308.4h-0.3V308l0.4,0.1L500.9,308.4z M311.7,249.2c-0.2,1.1-0.4,2.1-0.5,3.2c0,2.3,2.6,1.4,3.3,2.4
	v1.4c0.2,5.7-0.9,11.4-3.3,16.6c-0.6,1.4-0.2,3.6-1.2,4.9c-0.6,2.4-0.7,5-1.5,7.4l0.5,0.4h-0.2c-2.1,4.6-2.3,9.9-4,14.6h-0.5
	c0.1-2.9-1.3-7.4-2.5-10.1c0.4-4.9-2.4-7.8-2.4-12c0-0.6,0-1.1,0.1-1.7c-1.3-3.3-1.7-7-2.8-10.5c-2-1.9-0.6-5.6-1.8-8.1l0.8-0.8
	c-0.9-2.4,2.6-2.1,2.6-4.4c-0.1-1.1-0.2-2.1-0.4-3.2c-3.3-0.3-6.8-0.4-10.1-0.4c-3.4,0-6.9,0.1-10.3,0.4c0.2,1.3-0.2,2.9,0.9,3.7
	c6.2,0.6,7.7,19.5,9.7,24.7c-0.5,4,1.9,7.3,1.9,11.3v0.4c1.7,4.6,1.8,9.6,3.3,14.2c-0.3,0.4-0.5,0.8-0.5,1.3c0,2.2,2.3,3.7,2.3,5.3
	c0,3.2,1.5,5.3,1.5,7.9c0,0.8-0.2,1.5-0.2,2.2c0,3.5,3.1,4.4,5.8,4.4h1.4c0.1-1.8,0.5-3.6,1.2-5.3c1.9-5,3.4-8.3,3.8-13.8
	c0.2-3.6,2.4-7,1.9-10.6l0.1-0.1h-0.1l0.7-0.3c0.1-0.4,0.2-0.8,0.2-1.2c0-0.6-0.2-1.2-0.2-1.7s0.7-0.8,1.1-0.9
	c-0.1-1.2-0.1-2.4,0-3.6c0-0.7-0.1-1.5-0.4-2.2c3-3.7,3-11,5-15.5l-0.6-0.4h0.4c0.7-3.1,1.9-6,2.3-9.2h0.2c0.1-0.4,0.2-0.8,0.2-1.3
	c0-0.5-0.1-1-0.4-1.4l1.7-1c-0.2-0.5-0.4-1-0.7-1.4c0.4,0.1,0.8,0.1,1.2,0c1.5-1.7,4.4-1.4,4.4-4.5c0-0.4-0.1-0.8-0.1-1.2
	L311.7,249.2z M286.8,254.4h-1.2v-1.3l1.2,0.1V254.4z M288.4,250.5h0.8v1.3h-0.8V250.5z M290,263.7v1.2h-0.8v-1.3L290,263.7z
	 M290.1,270H289v-1.3l1.2,0.1L290.1,270z M295.5,276.1l-0.8-0.1l0.1-1.2h0.8L295.5,276.1z M299.4,291.7h0.8l-0.1,1.3h-0.8
	L299.4,291.7z M300.8,293.9v1.3L300,295v-1.2L300.8,293.9z M300.6,322.1l-0.7-0.1v-1.2h0.7V322.1z M300.9,300.3l-1.2-0.1l0.1-1.2
	h1.1V300.3z M306.3,306.3h-0.8v-1.3h0.8V306.3z M317.9,255.8l-0.6,1.9l0.4-2.6h1.1L317.9,255.8z M322.7,253.1l-1.4,0.5
	c1.2-0.8,1.5-1.7,2.6-1.7L322.7,253.1z M468.2,305.3l-0.2-0.1v0.1l-0.2-0.3h-0.1l0.1-0.7c-1.6,0.3-0.8-0.5-1.7-1.2c0-3-2-5.1-2-8.1
	c0-0.7,0.2-1.4,0.4-2c-0.4-0.6-1.2-1.5-1.2-2.4c0-2.2-1.1-3.8-1.1-6.1c0-1.1,0.2-1.2,0.6-2.2H462c-0.2-1.2-1.4-2.6-1.4-3.8
	c0-0.1,0-0.3,0.1-0.4h0.1l-0.2-0.9l-0.2,0.1c-0.1-0.4,0.1-0.9-0.2-1.4c-1.3-2.3-1-5-2.3-7.3c0.1-0.6,0-1.2-0.4-1.6
	c-1-2.5-0.9-5.3-1.9-7.8l-0.6,0.2c-0.2-0.8-1.2-1.1-1.8-1.1l-0.5,0.1c-1.7,2-0.8,5.5-2.5,6.7c0.2,0.2,0.3,0.4,0.5,0.6h-0.1
	c-0.6,0.5-1.7,3.8-1.7,4.6v0.3h-0.1c-0.2,2.7-1.7,5-1.7,7.8v0.3c-0.5,0.9-0.8,4.4-1.7,4.4c-0.3,0-0.3,0.4-0.6,0.3l0.6,0.5l-0.7,0.8
	l0.6,0.4c-0.9,1.5-0.8,3.2-0.9,5l-0.2,0.1v0.6c-0.3,0.2-0.6,0.5-0.6,0.9v0.1c-0.2,0.2-0.3,0.5-0.4,0.8c-0.2,0.2-0.3,0.5-0.4,0.8
	c-0.3,0.9-0.3,2-0.6,3.1c-0.5,2.4-1.2,4.7-2,7l-0.7-0.8c0.5,3.3-2,2.3-2.9,4.6c0,0.3-0.1,0.5-0.1,0.8c0,0.4,0.2,0.8,0.6,0.9l1.1,0.1
	c0.7,0,1.4-0.1,2-0.4c1.1,0.4,2.4,0.6,3.6,0.5c0.8,0,1.5-0.1,2.3-0.2c0.7-0.6,1.1-1.4,1-2.3l-0.1-0.7c-0.6-0.8-1.5-1.2-2.5-1.1h-0.2
	c-0.1-0.3-0.1-0.6-0.1-0.8c0-1,0.4-2.1,0.4-3.1c0-0.3,0-0.5-0.1-0.8c1.3-1.9,0.6-2.5,2.5-4.4c-0.9,0.3-0.4-0.4-0.8-0.6
	c0.2-0.4,0.7-0.8,0.7-1.5c1.4-0.2,2.7-0.3,4.1-0.3c1.4,0,2.7,0,4.1,0.2c0.6,1.2,2.5,4.6,2.4,5.9c0.2,0.6,0.2,1.4,0.6,1.9
	c-0.2,0.4-0.3,0.4-0.3,0.9c0,1,0.4,1.9-0.8,2.1v0.8l-0.2,0.1c-0.5,0-0.9-0.1-1.4-0.1c0.2,0.3,0.3,0.5,0.4,0.9c0,0.5-0.6,1-0.6,1.8
	c0.1,0.6,0.5,1,1.1,1.1h12.9l1.2-1.3C469.4,307,469.8,305.2,468.2,305.3z M441.3,306.6l-0.5,0.4v-0.8l0.5-0.1V306.6z M454,266.7
	c0.4,0,0.5,0.3,0.5,0.7c-0.2-0.1-0.5-0.2-0.7-0.3L454,266.7z M453.3,266.9L453.3,266.9c0,0.3,0,0.5,0,0.8l0.4-0.6l0.7,0.3
	c0,0.5-0.1,1,0.4,1.1c-0.9,0.2-0.6-0.8-1.6-0.7L453.3,266.9z M455.1,279.4l0.4,0.5h-1.1l0.2-0.5H455.1z M452.3,267.6l0.2,1.1
	C452.4,268.8,451.3,266.8,452.3,267.6L452.3,267.6z M452,269.4l-1.2-0.1l-0.3-0.4L452,269.4z M446.3,284.9v-0.5h0.6l0.6,0.5H446.3z
	 M453.7,290.2c-0.6,0.2-1.2,0.4-1.8,0.4c-1,0-2.1-0.1-3.1-0.4l-0.4,0.4l-0.6-0.6l0.1-0.2c0-0.1-0.1-0.4-0.1-0.5c0-0.8,0.4-1.4,0.4-2
	c0-0.3-0.1-0.6-0.2-0.9c0.3-1.1,1.2-2.4,1.2-3.5c0-0.4-0.1-0.9-0.2-1.3c1.4,0,0.2-1,1.3-1.6c-0.2-1.5,0.8-2.2,0.8-3.4
	c0.1-0.7,0.3-1.4,0.3-2c0.4,0.6,1.5,3.3,1.3,4.1l0.4,0.1v0.9H453c0.2,0.3,0.4,0.6,0.4,0.9l-0.2,0.4c1.3,1.5,0.9,4.2,2,5.9l-0.4,0.3
	c0.6,1.7-0.2,1.5,1.1,3.3C455.5,290.6,454,290.6,453.7,290.2L453.7,290.2z M456,263.7h-1.1v-1.3h1.1V263.7z M457.1,280.3l-0.5,1.1
	v-1.4l0.9-0.2L457.1,280.3z M456.9,274.8l0.2-0.6l0.5-0.1l0.2,0.7H456.9z M458.1,289.3l-0.4-0.5l-0.2-0.9l1.3-0.1L458.1,289.3z
	 M459,278.3h0.6l-0.3,1.5l-0.2-0.6V278.3z M460.1,283.7c-0.4-0.1-0.7-0.2-1-0.4h1.1L460.1,283.7z M127.5,294.9
	c-0.1-0.7-0.7-1.3-1.3-1.5c-0.9,0-1.3,1.1-1.3,1.9c0,1,0.1,1.3-0.6,2.1l0.5,0.2v1.1c-0.1,0.7-0.2,1.4-0.3,2
	c-0.6,0.6-1.4,3.2-2.2,3.1c-0.5,0.3-1.2,0.3-1.2,1c-1.1,0.6-2.3,0.9-3.6,0.9c-2-0.1-3.8,0.3-5.8,0.3c-1,0-1.9-0.4-2.6-1
	c0.2-4.4,0-8.7,0.1-13.1h0.3l0.1-1.1c-0.3-0.8-0.5-1.6-0.4-2.5c0-1.1,0.2-2.2,0.2-3.3c1.4,0,2.8-0.1,4.3-0.1
	c2.9,0.2,0.6,7.7,3.2,7.9c0.6,0,1.3-0.9,1.6-1.5c-0.2-1.5,0.2-2.8,0.2-4.2c0.1-1.2,0-2.5-0.8-3.4c0.4-0.5,0.8-1.2,1-1.8
	c-0.2-0.2-0.4-0.2-0.4-0.6c0-0.4,0.5-0.4-0.2-0.7l-0.6-0.2l0.2-0.3c0.2-0.1,0.1-0.3,0.4,0.1l0.6,0.4l-0.4-6.2
	c-0.2-0.1-0.4-0.2-0.6-0.2h-0.1l0.6-0.6l-2.5-0.1c-0.2,0.8-0.4,1.7-0.5,2.5c0,1.8,0.4,3.4-1.1,4.7c-1.3-0.3-2.4,0.5-3.6,0.4
	c-0.4,0-0.8-0.2-1.1-0.4c0.2-0.6,0.4-1.3,0.4-1.9c0-1.3-0.3-2.5-0.2-3.9c0-0.7,0.3-1.3,0.3-1.9c0-0.4-0.1-0.7-0.4-1h0.4
	c-0.5-1.1-0.6-2.2-0.6-3.4c0-1.4,0.5-3.5-0.1-4.7c0.2-0.5,0.3-1,0.6-1.5c1.1,0.2,2.2-0.3,3.3-0.3c0.2,0,0.4,0.1,0.6,0.1
	c1-0.2,2.1-0.2,3.1-0.2c1.8,0,3.5,0.7,4.9,1.8l-0.2,0.3l1.8,1.5c0.2,0.2,0.2,0.9,0.2,1c-0.1,1,0.4,1.6,0.4,2.5
	c0.2,1.9-0.1,3.6,2,4.3v-0.7h0.8c0.2-0.5,0.3-1,0.3-1.5c0-0.8-0.1-1.5,0.4-2.1l-0.5-0.8c0.2-1.1-0.5-2.1-0.5-3.2
	c0-1.1-0.6-1.6-0.6-2c0.1-0.3,0.4-0.4,0.6-0.5c-0.3-0.2-0.5-0.6-0.5-1c0-0.7,0.2-0.9-0.3-1.5c-0.9-0.1-2-0.7-2.9-0.7
	c-0.4,0-0.7,0-1,0.3c-1.1-0.5-2.3-0.7-3.5-0.8c-2-0.1-4,0.3-6,0.2c-1,0-2-0.2-2.9-0.5l-0.4,0.5c-1-0.4-2.4-0.3-3.4-0.3
	c-2.1-0.1-4.2-0.4-6.3-0.5c-0.8,0-1.6,0-2.3,0.3c-0.3,0.5-0.4,1.1-0.4,1.6c-0.1,2.8,4.5,1.5,4.9,3.2c0.6,3.8,0,8.2,0.1,12.1
	c0.1,3.9,0.6,7.8,0.4,11.9v0.8h-0.4c0.2,4.1,0.5,8.5,0.3,12.7c-0.2,1.2-0.2,2.3-0.2,3.5v0.5c-0.8,0.8-1.8,1-2.7,1.5l-0.2-0.3
	c-1.1,0.2-1.9,1.1-2,2.1c0,0.5,0.1,0.9,0.4,1.3c5.6-0.3,11.2-0.2,16.9-0.1c2.3,0,4.7-0.3,7-0.2c1.7,0.1,3.2-0.8,4.9-0.8
	c0.5,0,0.9,0.1,1.3,0.3c-0.1-2.6,0.4-5.3,0.5-7.9c0-0.8-0.2-1.7-0.2-2.5c0-1.1,0.2-2.3,0.5-3.3L127.5,294.9z M104.6,265.7l0.3,0.1
	v0.3h-0.3V265.7z M104.6,273.6l0.4,0.1v0.4h-0.4V273.6z M103.5,277.3c0-0.1,0.1-0.2,0.1-0.3l0.8,0.9
	C104.2,277.7,103.5,277.7,103.5,277.3L103.5,277.3z M103.7,278.5v0.4l-0.5-0.1l0.1-0.3H103.7z M104.1,280l0.4,0.1l-0.1,0.3h-0.3V280
	z M104,273.2L104,273.2l0.5-0.1v0.1H104z M104.3,263.6l-0.2,0.3c-0.1-0.1-0.2-0.3-0.4-0.3L104.3,263.6z M103.1,275.9h0.5l-0.1,0.5
	l-0.4-0.1V275.9z M102.3,261.2H102v-0.5h0.3L102.3,261.2z M103.5,304.2H103v-0.4h0.5V304.2z M103.9,305.4h-0.4v-0.5h0.5L103.9,305.4
	z M104,284h0.3v0.5H104V284z M104.6,292.8h-0.4v-0.5h0.5L104.6,292.8z M105.1,283.7h-0.3v-0.4h0.3V283.7z M105.3,264.5h-0.4V264h0.4
	V264.5z M105.4,263.6v-0.4h0.3v0.4H105.4z M105.9,267.2l-0.1,0.4h-0.3v-0.5L105.9,267.2z M106,284.6h-0.5l0.1-0.5h0.4V284.6z
	 M105.9,268.7l-0.4-0.1v-0.5h0.5L105.9,268.7z M106,263.2h0.4l-0.1,0.5H106V263.2z M106.2,266.4h0.4v0.4l-0.4-0.1V266.4z M107,278
	h-0.5v-0.5l0.5,0.1V278z M107.3,273.1H107H107.3v0.5H107v-0.9h0.4L107.3,273.1z M107.5,270.1h-0.4l0.1-0.4h0.3L107.5,270.1z
	 M107.6,266.3h-0.3v-0.3h0.3V266.3z M108.1,292.6h-0.4v-0.5h0.4L108.1,292.6z M108.7,274.6h-0.3V274h0.3L108.7,274.6z M123.1,305.5
	h-0.5v-0.3h0.5V305.5z M124.1,305.9h-0.3v-0.5h0.3V305.9z M125.2,307.7h-0.7v-0.4l0.7,0.1V307.7z M125.2,304.1h-0.5l0.1-0.3h0.4
	V304.1z M126.2,294.7h0.5v0.5h-0.5V294.7z M126.6,303.6h-0.4v-0.4l0.4,0.1V303.6z M127.1,301.8h-0.4V301h0.4V301.8z M127.4,296.7
	H127v-0.4h0.4L127.4,296.7z M357.6,259c-1.7,0-3.5,0.2-5.1-0.2c-0.5,0.6-0.8,1.3-0.9,2.1c0,0.4,0.2,0.8,0.5,1c0.1,0.4,0.6,0.7,1,0.7
	c0.3,0,0.6,0,0.9,0c0.8,0.6,1.2,1.6,1.1,2.6c0,1.1-0.2,2.1-0.2,3.2c0,0.8,0.3,1.4,0.3,2.1c0,1-0.3,2.1,0.1,3l0.2,0.1l-0.6,0.3
	c0.2,2.9,0.8,6.3,0.8,9.2c-0.1,1.6-0.2,3.1-0.4,4.7h-0.2c0,0.3-0.1,0.6-0.1,0.9c0,0.8,0.1,0.8-0.6,1.5c0.3,0.2,0.7,0.3,1,0.3h0.1
	l-0.7,0.8c0.4,0.4,0.6,0.9,0.6,1.5c0,1.1-0.7,2-0.7,3.2c0,0.6,0.3,1.1,0.3,1.7c0,1.4-0.9,2.6-0.9,4c0,0.2,0,0.3,0.1,0.5
	c-1.9,3.2-4,3.8-7.7,3.8c-2.9,0-4.8-2.6-6.1-5.1v-0.5h-0.1l0.3-0.3l-0.2-0.7c0.3-0.7,0.5-1.5,0.5-2.3c0-0.8-0.3-1.5-0.9-2
	c0.6-1,0.8-2.2,0.8-3.4c0-2.1-0.4-4.1-0.4-6.2c0-1.1,0.4-2,0.4-3.2c0-0.6-0.1-1.1-0.3-1.6c0.2-1.8-0.4-3.5-0.4-5.3
	c0-0.9,0.2-1.6,1.2-1.9c-0.8-1.3-1.2-2.8-1.2-4.3c0-9.7,2.7-4.8,5.5-7.5c0.2-0.4,0.3-0.9,0.3-1.4c0-0.6-0.3-1.1-0.9-1.4l-15.3-0.1
	l-0.9,0.8c-0.1,0.3-0.1,0.6-0.2,0.9c0,0.7,0.9,0.9,0.9,1.4v0.2l0.8,0.1v-0.1c0.2,0.3,0.6,0.3,0.9,0.3c0.5,0,1.7-0.3,1.9,0.3
	c-0.6,0-1.2,0.2-1.6,0.7l1.5,0.8v11l-0.6,0.7c0.4,0.8,0.6,1.7,0.6,2.6c0,1.3-0.2,2.5-0.2,3.8c0,0.9,0.1,1.7,0.4,2.5
	c-0.4,0.9-0.6,1.8-0.6,2.7c0,2,0.7,3.8,0.7,5.8c0,0.5-0.1,0.9-0.2,1.4H333c0,1,0.5,1.9,0.5,2.8c0,0.5-0.3,0.9-0.6,1.2
	c1.3,2.2,0.6,4.7,3.1,6.3l0.6-0.6c0.2,0.3,0.5,0.6,0.7,0.9c-0.8,2.5,1.9,1.6,2.1,3.2c2.5,0.6,5,1,7.6,1c1.7,0,4.8-0.3,6.3-1.4
	c5-3.3,5.3-8.4,5.4-13.9h0.4v-14c0-1.7,0.2-4,0.2-5.6c0-0.5-0.2-1-0.5-1.5c0.2-1,0.3-2.1,0.3-3.2c0-0.8-0.1-1.5-0.2-2.3l0,0v0
	c0.2-0.2,0.3-0.3,0.5-0.5l-0.5-1.9c0.5-1.7,1.1-2.9,2.9-3c0.2-0.8,0.9-1.4,0.9-2.1C362.6,258.6,358.6,259,357.6,259L357.6,259z
	 M354.9,261.7h-0.4v-0.4h0.4V261.7z M338.7,275.3l0.4,0.1v0.4h-0.4V275.3z M338.4,283h0.3v0.3h-0.3V283z M338,277h0.4l-0.1,0.5H338
	V277z M336,270.9h0.5v0.4H336V270.9z M335.6,280.2h-0.3v-0.3h0.3V280.2z M336.1,301.9l-0.3-0.1v-0.3h0.3V301.9z M336.2,280l0.1-0.5
	h0.4v0.5H336.2z M336.5,292.7h0.5l-0.1,0.3h-0.4L336.5,292.7z M337.3,301.7h-0.5v-0.5h0.5V301.7z M337.3,282.3h-0.5V282h0.5V282.3z
	 M337.7,304h-0.4v-0.3h0.4V304z M338,279.4h-0.4v-0.3h0.4L338,279.4z M338.6,301.2l-0.5-0.1v-0.3h0.5V301.2z M338.8,299.2h-0.3v-0.5
	h0.3V299.2z M339.3,305.1H339v-0.3h0.3V305.1z M339.6,297.4h-0.5v-0.3h0.5V297.4z M356.3,289.3h-0.4v-0.5l0.6-1L356.3,289.3z
	 M356.8,267.9h-0.3v-0.4h0.3V267.9z M359.9,260.5h-0.4v-0.3h0.4V260.5z M196.7,305.4l-0.2-0.1v0.1l-0.2-0.3h-0.1l0.1-0.7
	c-1.6,0.3-0.8-0.5-1.7-1.2c0-3-2-5.1-2-8.1c0-0.7,0.1-1.4,0.4-2c-0.4-0.6-1.2-1.5-1.2-2.4c0-2.2-1.1-3.8-1.1-6.1
	c0-1.1,0.2-1.2,0.6-2.2h-0.9c-0.2-1.2-1.4-2.6-1.4-3.8c0-0.1,0-0.3,0.1-0.4h0.1l-0.2-0.9l-0.2,0.1c-0.1-0.4,0.1-0.9-0.2-1.4
	c-1.3-2.3-1-5-2.3-7.3c0.1-0.6,0-1.2-0.4-1.6c-1-2.5-0.9-5.3-1.9-7.8l-0.6,0.2c-0.2-0.8-1.2-1.1-1.8-1.1l-0.5,0.1
	c-1.7,2-0.8,5.5-2.5,6.7c0.2,0.2,0.3,0.4,0.5,0.6H179c-0.6,0.5-1.7,3.8-1.7,4.6v0.3h-0.1c-0.2,2.7-1.7,5-1.7,7.8v0.3
	c-0.5,0.9-0.8,4.4-1.7,4.4c-0.3,0-0.3,0.4-0.6,0.3l0.6,0.5l-0.7,0.8l0.6,0.4c-0.9,1.5-0.8,3.2-0.9,5l-0.2,0.1v0.6
	c-0.3,0.2-0.6,0.5-0.6,0.9v0.1c-0.2,0.2-0.3,0.5-0.4,0.8c-0.2,0.2-0.3,0.5-0.4,0.8c-0.3,0.9-0.3,2-0.6,3.1c-0.5,2.4-1.2,4.7-2,7
	l-0.7-0.8c0.5,3.3-2,2.3-2.9,4.6c0,0.3-0.1,0.5-0.1,0.8c0,0.4,0.2,0.8,0.6,0.9l1.1,0.1c0.7,0,1.4-0.1,2-0.4c1.1,0.4,2.4,0.6,3.6,0.5
	c0.8,0,1.5-0.1,2.3-0.2c0.7-0.6,1.1-1.4,1-2.3l-0.1-0.7c-0.6-0.8-1.5-1.2-2.5-1.1h-0.2c-0.1-0.3-0.1-0.6-0.1-0.8
	c0-1,0.4-2.1,0.4-3.1c0-0.3,0-0.5-0.1-0.8c1.3-1.9,0.6-2.5,2.5-4.4c-0.9,0.3-0.4-0.4-0.8-0.6c0.2-0.4,0.7-0.8,0.7-1.5
	c1.4-0.2,2.7-0.3,4.1-0.3c1.4,0,2.8,0,4.1,0.2c0.6,1.2,2.5,4.6,2.4,5.9c0.2,0.6,0.2,1.4,0.6,1.9c-0.2,0.4-0.3,0.4-0.3,0.9
	c0,1,0.4,1.9-0.8,2.1v0.8l-0.2,0.1c-0.5,0-0.9-0.1-1.4-0.1c0.2,0.3,0.3,0.5,0.4,0.9c0,0.5-0.6,1-0.6,1.8c0.1,0.6,0.5,1,1.1,1.1h12.9
	l1.2-1.3C197.9,307,198.3,305.2,196.7,305.4L196.7,305.4z M169.8,306.6l-0.5,0.4v-0.8l0.5-0.1V306.6z M182.5,266.7
	c0.4,0,0.5,0.3,0.5,0.7c-0.1,0-0.4-0.2-0.7-0.3L182.5,266.7z M181.8,266.9L181.8,266.9c0,0.3,0,0.5,0,0.8l0.4-0.6l0.7,0.3
	c0,0.5-0.1,1,0.4,1.1c-0.9,0.2-0.6-0.8-1.6-0.7L181.8,266.9z M183.6,279.5l0.4,0.5h-1.1l0.2-0.5H183.6z M180.8,267.6l0.2,1.1
	C180.9,268.8,179.7,266.8,180.8,267.6L180.8,267.6z M180.6,269.4l-1.2-0.1l-0.3-0.4L180.6,269.4z M174.8,284.9v-0.5h0.6l0.6,0.5
	H174.8z M182.2,290.2c-0.6,0.2-1.2,0.4-1.8,0.4c-1,0-2.1-0.1-3.1-0.4l-0.4,0.4l-0.6-0.6l0.1-0.2c0-0.1-0.1-0.4-0.1-0.5
	c0-0.8,0.4-1.4,0.4-2c0-0.3-0.1-0.6-0.2-0.9c0.3-1.1,1.2-2.4,1.2-3.5c0-0.4-0.1-0.9-0.2-1.3c1.4,0,0.2-1,1.3-1.6
	c-0.2-1.5,0.8-2.2,0.8-3.4c0.1-0.7,0.2-1.4,0.3-2c0.4,0.6,1.5,3.3,1.3,4.1l0.4,0.1v0.9h-0.1c0.2,0.3,0.3,0.6,0.4,0.9l-0.2,0.4
	c1.3,1.5,0.9,4.2,2,5.9l-0.4,0.3c0.6,1.7-0.2,1.5,1.1,3.3C183.9,290.6,182.5,290.6,182.2,290.2L182.2,290.2z M184.5,263.7h-1.1v-1.3
	h1.1V263.7z M185.6,280.3l-0.5,1.1v-1.4l0.9-0.2L185.6,280.3z M185.4,274.8l0.2-0.6l0.5-0.1l0.2,0.7H185.4z M186.7,289.3l-0.4-0.5
	l-0.2-0.9l1.3-0.1L186.7,289.3z M187.5,278.3h0.6l-0.3,1.5l-0.2-0.6V278.3z M188.6,283.7c-0.4-0.1-0.7-0.2-1-0.4h1.1L188.6,283.7z
	 M161.2,291.9c-0.9,0-1.7,0.2-2.5,0.2c-0.4,0-0.7,0-1-0.2c-0.1,0.9,0.5,1.6,0.5,2.4s-1.1,0.8-1.2,1.7h0.8c0.1,0.4,0.1,0.7,0.1,1.1
	c0,2.1-1.1,4.5-1.7,6.5c-0.7,2.1-2.4,2.9-4.4,2.9c-1.6,0-3.3-0.2-4.9-0.4c-0.1,0-0.5,0-0.5-0.2c0-0.2,0.1-0.3-0.2-0.3
	c-0.3,0-0.6,0.1-0.9,0.2c-0.5-0.4-0.9-1-1.2-1.5v-0.8c-0.1-1.4,0.2-2.8,0.2-4.3c0-2.5-0.4-5.1-0.4-7.7c0.2-0.6,0.3-1.2,0.2-1.8
	c0-1.2-0.2-2.4-0.2-3.5c0-0.6,0-1.1,0.2-1.6c0.1-2.1,0.2-4.2,0.2-6.2c0-4.6-0.2-9.1-0.6-13.7c0.2-0.3,0.3-0.5,0.3-0.8
	c0.3,0,0.6,0,0.9,0.1l-0.5-0.9c0.6-0.4,1.2-0.5,1.9-0.4c1.5,0,1.7-0.9,2.1-2.3l-0.7-1.4c-3.2,0-5.8,0.1-8.9,0.1c-2.1,0-4,0.3-6,0
	c0.3,0.3,0.5,0.6,0.5,1c0,0.3-0.2,0.7-0.2,1.1c0,1.1,1.3,1.3,2.1,1.3h0.4c2,1.1,0.8,3,1.8,4.4h-0.5c0.1,0.6,0,1.7,0.2,2.1
	c-0.2,1.8-0.3,3.5-0.3,5.3c0,3.7,0.1,7.3,0.1,10.9c0,2,0.2,3.8,0.2,5.8c0,0.1-0.1,0.3-0.1,0.3c0.4,0,1.7,0,1.7,0.6s-1.2,0.6-1.5,0.9
	c0,0.7,0.8,0.3,0.8,0.9c0,0.3-0.2,0.7-0.2,1.1c0,0.1,0,0.1,0.2,0.1v0.2c-0.2,0-0.7-0.9-0.9-0.9c-0.1,0-0.1,0.1-0.1,0.1v2.4
	c-0.1,0.8,0.1,1.6,0.4,2.4c-0.2,0.3-0.4,0.7-0.4,1.1c0,0.6,0.2,1.3,0.4,1.9l-0.4,0.1l-0.1,1.6c-0.7,0.7-1.5,1.3-2.5,1.7
	c-0.7,0.8-1.7,1.5-1.7,2.6c0,0.4,0.1,0.8,0.2,1.2c0.3,0.2,0.7,0.2,1.1,0.3c0.8,0,1.4-0.5,2.1-0.5c0.2,0,0.4,0,0.6,0.1
	c0.4-0.1,0.7-0.2,1.1-0.2c0.4,0,0.7,0.3,1,0.3c0.5-0.1,1-0.3,1.4-0.7c1,0.2,2,0.9,3,1c1.4,0.2,2.7,0.4,4.1,0.3
	c3.1,0,5.9-1.3,8.7-1.3c0.9,0,2,0.4,2.8,0.4c0.3,0,0.7-0.3,1.2-0.3l0.6,0.1l1.1-4.2l-0.2-2l0.6-2c-0.6-1.3-1.6-2.7-1.6-4.2
	c0-0.3,0.1-0.9,0.4-0.9c0.3,0,0.7,0.4,1,0.4c0.1,0,0.2-0.1,0.2-0.2c0-1,0.2-2,0.2-3.1C162.3,292.1,161.7,291.9,161.2,291.9
	L161.2,291.9z M146.5,260.4h0.5v0.5h-0.6L146.5,260.4z M136.9,262.8v-0.6h0.5l0.2,2.5L136.9,262.8z M139.4,268.1h0.5v0.6h-0.5V268.1
	z M139.8,275h0.5v0.7h-0.5V275z M140.8,284.9h-0.6v-0.5l0.6,0.1L140.8,284.9z M141.4,288.3h0.5v0.5h-0.5V288.3z M142.1,299.2h-0.6
	v-0.7l0.6,0.1V299.2z M142.8,282.1l-0.6-0.1v-0.6h0.6V282.1z M146.9,307.3h-0.5v-0.4h0.5V307.3z M148.5,307.8h-0.6v-0.6h0.6V307.8z
	 M158.4,301.8l-1.5,1.7l0.9-2.1h0.6V301.8z M169.5,223.7c0.6-1.3,0.7-1.4,2.2-1.8l-0.8-0.6l0.6-0.6l-0.3-0.3
	c2.5-3.2,4.5-11.4,4.9-15.6c-0.5,0.1-1.2,0.1-1.2-0.6c0-2,1.2-4.1,1.1-6.2v-0.4c-1.8-2.1-0.6-5-2-7.3l0.3-0.2
	c-0.6-1.7-0.8-4.1-2.2-5.3l0.2-0.4c-0.9-0.9-1.5-2.5-2.7-3.2l0.1-0.2c-0.8-0.6-1.2-1.5-1.4-2.5v-0.2c-2.8-0.8-5.2-4.1-8.2-4h-0.4
	c-1-0.4-2.1-0.6-3.3-0.6c-2.6,0.1-5.1,0.8-7.5-0.5c-0.8,0.5-1.7,0.7-2.6,0.7c-1.4,0-2.8-0.5-4.1-0.4c-0.5,0-1.1,0.1-1.6,0.3
	c-0.3-0.2-0.6-0.3-1-0.3c-0.9,0-1.7,0.6-2.7,0.6c-0.5,0-1-0.3-1.3-0.7c-0.8,0.7-1.5,1.5-2.1,2.4l0.8,2c0.3,0.3,0.7,0.5,1.2,0.5
	c0.8,0,1.4-0.7,2-0.7c0.1,0,0.3-0.4,0.4-0.3l0.2,0.2l-0.5,0.7c2.1,1.1,2.9,2.1,3,4.6c0,0.8-0.2,1.7-0.5,2.5c0.2,0.9-0.1,1.7-0.1,2.6
	c0,0.4,0.2,0.8,0.4,1.2c-0.2,0.7-0.2,1.4-0.2,2.2c0.1,1.1,0.6,3.8-0.9,3.8h-0.3c0.4,1,1,2,1.6,2.9c-0.2,1.8-0.3,3.5-0.2,5.3
	c0,1.7-0.4,3.8,0.4,5.4c-0.2,0.7,0.4,3.4-0.5,3.5c-0.3,0-0.5-0.1-0.8-0.2c0.7,1.2,1.5,2.4,1.5,3.7c0,1.2-0.5,2.4-0.4,3.6v0.6
	c-0.3,0.2-0.4,0.5-0.4,0.8c0,0.2,0.1,0.5,0.2,0.7l-0.4,0.8l0.6,0.6c0,0.4,0.2,0.7,0.2,1.1c0,0.5-0.5,0.6-0.8,0.8l-1.4,0.3
	c0.2,0.1,1.1,0.7,1.1,0.9c0,0-0.7,0.6-0.7,1.1v0.2c-0.3,0.1-0.6,0.2-0.9,0.2c-1.5,0-3.8-0.5-3.7,1.8c0,0.3,0,0.6,0.2,0.9l-1.1,1.3
	c2.9-0.1,5.6,0.5,8.5,0.4c1.2,0.1,2.4-0.2,3.5-0.7c2.5,0.4,5,0.6,7.5,0.6c3.4-0.1,6.8-0.5,9.7-2.2
	C164.4,229.2,169,224.7,169.5,223.7L169.5,223.7z M169.1,212.7h0.7v1h-0.7L169.1,212.7z M142.1,203.9l0.1-1.3h0.4v0.8h0.6v0.5
	L142.1,203.9z M143.3,228.1h-0.9v-1h0.5v0.5h0.4V228.1z M148.2,221.9h-1.3v-1h1.3V221.9z M149.4,223.3l-0.5-0.1v-1h0.5V223.3z
	 M165,221.3l-0.4,0.5l-0.7-0.4l-0.1-0.6l0.2-0.6l1,0.1V221.3z M163.5,219.1c-0.5,1.5-2.4,2-2.5,4.7c-0.6,0.9-2.7,0.6-2.6,2.1
	c-1,0.4-2.1,1.4-3.2,1.5c-0.1,0-0.3,0-0.4-0.1c-0.1,0.2-0.4,0.3-0.6,0.3c-0.5,0-0.8-0.1-1.2-0.1c-0.1-0.2-0.3-0.3-0.5-0.4h-0.4
	c-0.3,0-0.7,0.2-0.8,0.5h-1.2V227c-0.2-7.4,1.1-14.9,0.9-22.3c0-2.4-0.2-4.8-0.6-7.2c0.2-0.6,0.3-1.3,0.3-2c0-0.6-0.1-1.1-0.2-1.7
	c0.3-0.9,0.4-1.8,0.3-2.7c0-1.3-0.3-2.6-0.3-3.9c0-1.1,0.2-2.1,0.5-3.2c-0.4-0.3-0.7-0.8-0.8-1.3c0-0.7,0.3-1.4,0.3-2.1
	c0-0.4-0.1-0.8-0.2-1.2v-1.6c0.6-0.2,1.3-0.3,1.9-0.3c2.7,0,5.2,1,7.1,2.9c0.1,1.1,1,1.1,1.8,1.6c1.4,2.4,3,4.1,3.1,7v1.1
	c1,2.4,2.5,5.8,2.5,8.4c0.1,2.4-1.5,4.2-1.4,6.6C165.5,209.9,164.9,214.6,163.5,219.1z M166.3,189.5v-1h0.4l0.5,1.7L166.3,189.5z
	 M375.2,230.9c-0.1-3.1,0.5-6.1,0.6-9.2c0-0.9-0.2-2-0.2-2.9c0-1.3,0.2-2.6,0.6-3.8l-0.5-0.1c-0.2-0.8-0.8-1.5-1.7-1.7
	c-1.1,0-1.6,1.3-1.6,2.2c0,1.2,0.1,1.5-0.7,2.5l0.6,0.2v1.3c-0.1,0.8-0.2,1.6-0.4,2.4c-0.8,0.7-1.8,3.7-2.8,3.6
	c-0.6,0.4-1.5,0.3-1.5,1.2c-1.4,0.7-2.9,1-4.4,1.1c-2.5-0.1-4.7,0.4-7.2,0.3c-1.2,0-2.3-0.4-3.3-1.2c0.3-5,0-10.1,0.1-15.1h0.4
	l0.1-1.3c-0.4-0.9-0.6-1.9-0.5-2.9c0-1.3,0.3-2.6,0.3-3.8c1.8,0,3.6-0.1,5.3-0.1c3.7,0.2,0.8,8.9,3.9,9.1c0.8,0,1.7-1,2-1.7
	c-0.2-1.7,0.2-3.3,0.2-4.8c0.1-1.4,0-2.9-1-3.9c0.5-0.6,0.9-1.3,1.3-2.1c-0.3-0.2-0.5-0.2-0.5-0.7c0-0.6,0.6-0.5-0.3-0.8l-0.7-0.2
	l0.2-0.4c0.3-0.1,0.1-0.3,0.5,0.1l0.7,0.5l-0.5-7.2c-0.2-0.1-0.5-0.2-0.8-0.2h-0.1l0.7-0.7l-3.2-0.1c-0.3,1-0.5,2-0.6,3
	c0,2.1,0.5,3.9-1.4,5.4c-1.7-0.4-3,0.6-4.5,0.5c-0.5,0-1-0.2-1.4-0.5c0.3-0.7,0.4-1.4,0.5-2.2c0-1.5-0.4-3-0.3-4.5
	c0-0.8,0.4-1.5,0.4-2.2c0-0.4-0.2-0.9-0.5-1.2h0.5c-0.6-1.2-0.8-2.6-0.7-3.9c0-1.6,0.6-4-0.1-5.4c0.3-0.6,0.4-1.2,0.7-1.8
	c1.4,0.2,2.8-0.3,4.1-0.3c0.3,0,0.5,0.1,0.8,0.1c1.3-0.2,2.6-0.3,3.9-0.2c2.2,0,4.3,0.7,6.1,2.1l-0.3,0.3l2.3,1.7
	c0.3,0.2,0.2,1,0.2,1.2c-0.1,1.2,0.5,1.9,0.5,3c0.2,2.2-0.1,4.1,2.5,4.9v-0.8h1c0.2-0.6,0.4-1.2,0.4-1.8c0-0.9-0.1-1.7,0.5-2.4
	l-0.6-0.9c0.2-1.3-0.6-2.4-0.6-3.7c0.1-1.4-0.7-1.9-0.7-2.4c0.1-0.3,0.5-0.5,0.7-0.6c-0.3-0.3-0.7-0.7-0.6-1.2c0-0.8,0.2-1-0.4-1.8
	c-1.2-0.1-2.5-0.8-3.7-0.8c-0.4-0.1-0.9,0.1-1.3,0.3c-1.4-0.5-2.9-0.8-4.3-0.9c-2.5-0.1-4.9,0.3-7.5,0.2c-1.2,0-2.5-0.2-3.7-0.6
	l-0.5,0.6c-1.3-0.5-3-0.4-4.2-0.4c-2.7-0.1-5.2-0.5-7.9-0.6c-1-0.1-1.9,0-2.9,0.3c-0.3,0.6-0.5,1.2-0.5,1.9
	c-0.1,3.3,5.6,1.7,6.1,3.7c0.8,4.4,0,9.5,0.1,14c0.1,4.5,0.7,9.1,0.5,13.7v0.9h-0.5c0.4,4.9,0.5,9.7,0.4,14.6
	c-0.2,1.3-0.3,2.7-0.3,4v0.5c-1,0.9-2.3,1.2-3.4,1.8l-0.2-0.3c-1.3,0.2-2.3,1.2-2.5,2.5c0,0.5,0.2,1.1,0.5,1.5c7-0.4,14-0.2,21-0.1
	c2.9,0,5.8-0.3,8.7-0.2c2.2,0.1,4-0.9,6.1-0.9C374.1,230.7,374.6,230.8,375.2,230.9L375.2,230.9z M375.1,222.9h-0.5v-1h0.5V222.9z
	 M375,216.5h0.5v0.5H375V216.5z M374,214.7h0.6v0.6H374V214.7z M374,224.5l0.5,0.1v0.4H374V224.5z M347.1,181.2l0.4,0.1v0.4h-0.4
	V181.2z M347.1,190.3l0.5,0.1v0.5h-0.5V190.3z M345.8,194.5c0-0.1,0.1-0.2,0.1-0.3l1,1C346.6,195,345.8,195,345.8,194.5L345.8,194.5
	z M346,196v0.5l-0.6-0.1l0.1-0.4H346z M346.5,197.7l0.5,0.1l-0.1,0.4h-0.4L346.5,197.7z M346.4,189.8v-0.1h0.6v0.1H346.4z
	 M346.8,178.7l-0.3,0.3c-0.2-0.1-0.3-0.3-0.5-0.4L346.8,178.7z M345.3,192.9h0.6l-0.1,0.6l-0.5-0.1V192.9z M344.3,176h-0.4v-0.6h0.4
	V176z M345.7,225.7h-0.6v-0.5h0.6V225.7z M346.3,227.1h-0.5v-0.6h0.6L346.3,227.1z M346.4,202.3h0.4v0.6h-0.4V202.3z M347.1,212.5
	h-0.5v-0.6h0.6L347.1,212.5z M347.8,201.9h-0.4v-0.5h0.4V201.9z M348,179.7h-0.5v-0.6h0.5V179.7z M348.2,178.7v-0.5h0.4v0.5H348.2z
	 M348.7,182.9l-0.1,0.5h-0.4v-0.6L348.7,182.9z M348.8,203h-0.6l0.1-0.6h0.5V203z M348.7,184.5l-0.5-0.1v-0.5h0.6L348.7,184.5z
	 M348.8,178.2h0.5l-0.1,0.6h-0.4L348.8,178.2z M349,182h0.5v0.5l-0.5-0.1V182z M350.1,195.3h-0.6v-0.6l0.6,0.1V195.3z M350.5,189.7
	h-0.4l0.4,0.1v0.5h-0.4v-1.1h0.5L350.5,189.7z M350.7,186.2h-0.5l0.1-0.5h0.4V186.2z M350.8,181.8h-0.4v-0.4h0.4V181.8z
	 M351.5,212.2H351v-0.6h0.5V212.2z M352.2,191.4h-0.4v-0.6h0.4V191.4z M370.1,227.2h-0.6v-0.4h0.6V227.2z M371.3,227.7h-0.4v-0.6
	h0.4V227.7z M372.8,229.7h-0.9v-0.5l0.9,0.1V229.7z M372.8,225.6h-0.6l0.1-0.4h0.5V225.6z M399.1,294.9c-0.1-0.7-0.7-1.3-1.3-1.5
	c-0.9,0-1.3,1.1-1.3,1.9c0,1,0.1,1.3-0.6,2.1l0.5,0.2v1.1c-0.1,0.7-0.2,1.4-0.3,2c-0.6,0.6-1.4,3.2-2.2,3.1c-0.5,0.3-1.2,0.3-1.2,1
	c-1.1,0.6-2.3,0.9-3.6,0.9c-2-0.1-3.8,0.3-5.8,0.3c-1,0-1.9-0.4-2.6-1c0.2-4.4,0-8.7,0.1-13.1h0.3l0.1-1.1c-0.3-0.8-0.5-1.6-0.4-2.5
	c0-1.1,0.2-2.2,0.2-3.3c1.4,0,2.9-0.1,4.3-0.1c2.9,0.2,0.6,7.7,3.2,7.9c0.6,0,1.3-0.9,1.6-1.5c-0.2-1.5,0.2-2.8,0.2-4.2
	c0.1-1.2,0-2.5-0.8-3.4c0.4-0.5,0.8-1.2,1-1.8c-0.2-0.2-0.4-0.2-0.4-0.6s0.5-0.4-0.2-0.7l-0.6-0.2l0.2-0.3c0.2-0.1,0.1-0.3,0.4,0.1
	l0.6,0.4l-0.4-6.2c-0.2-0.1-0.4-0.2-0.6-0.2h-0.1l0.6-0.6l-2.5-0.1c-0.2,0.8-0.4,1.7-0.5,2.5c0,1.8,0.4,3.4-1.1,4.7
	c-1.3-0.3-2.4,0.5-3.6,0.4c-0.4,0-0.8-0.2-1.1-0.4c0.2-0.6,0.3-1.3,0.4-1.9c0-1.3-0.3-2.5-0.2-3.9c0-0.7,0.3-1.3,0.3-1.9
	c0-0.4-0.1-0.7-0.4-1h0.4c-0.5-1.1-0.6-2.2-0.6-3.4c0-1.4,0.5-3.5-0.1-4.7c0.2-0.5,0.3-1,0.6-1.5c1.1,0.2,2.2-0.3,3.3-0.3
	c0.2,0,0.4,0.1,0.6,0.1c1-0.2,2.1-0.2,3.1-0.2c1.8,0,3.5,0.7,4.9,1.8l-0.2,0.3l1.8,1.5c0.2,0.2,0.2,0.9,0.2,1
	c-0.1,1,0.4,1.6,0.4,2.5c0.2,1.9-0.1,3.6,2,4.3v-0.7h0.8c0.2-0.5,0.3-1,0.3-1.5c0-0.8-0.1-1.5,0.4-2.1l-0.5-0.8
	c0.2-1.1-0.5-2.1-0.5-3.2c0-1.1-0.6-1.6-0.6-2c0.1-0.3,0.4-0.4,0.6-0.5c-0.3-0.2-0.5-0.6-0.5-1c0-0.7,0.2-0.9-0.3-1.5
	c-0.9-0.1-2-0.7-2.9-0.7c-0.4,0-0.7,0-1,0.3c-1.1-0.5-2.3-0.7-3.5-0.8c-2-0.1-4,0.3-6,0.2c-1,0-2-0.2-2.9-0.5l-0.4,0.5
	c-1-0.4-2.4-0.3-3.4-0.3c-2.1-0.1-4.2-0.4-6.3-0.5c-0.8,0-1.5,0-2.3,0.3c-0.3,0.5-0.4,1.1-0.4,1.6c-0.1,2.8,4.5,1.5,4.9,3.2
	c0.6,3.8,0,8.2,0.1,12.1c0.1,3.9,0.6,7.8,0.4,11.9v0.8h-0.4c0.2,4.1,0.5,8.5,0.3,12.7c-0.2,1.2-0.2,2.3-0.2,3.5v0.5
	c-0.8,0.8-1.8,1-2.7,1.5l-0.2-0.3c-1.1,0.2-1.9,1.1-2,2.1c0,0.5,0.1,0.9,0.4,1.3c5.6-0.3,11.3-0.2,16.9-0.1c2.3,0,4.7-0.3,7-0.2
	c1.7,0.1,3.2-0.8,4.9-0.8c0.5,0,0.9,0.1,1.3,0.3c-0.1-2.6,0.4-5.3,0.5-7.9c0-0.8-0.2-1.7-0.2-2.5c0-1.1,0.2-2.3,0.5-3.3L399.1,294.9
	z M376.1,265.7l0.3,0.1v0.3h-0.3V265.7z M376.1,273.6l0.4,0.1v0.4h-0.4V273.6z M375,277.3c0-0.1,0.1-0.2,0.1-0.3l0.8,0.9
	C375.7,277.7,375,277.7,375,277.3L375,277.3z M375.2,278.5v0.4l-0.5-0.1l0.1-0.3H375.2z M375.6,280l0.4,0.1l-0.1,0.3h-0.3L375.6,280
	z M375.5,273.2L375.5,273.2l0.5-0.1v0.1H375.5z M375.8,263.6l-0.2,0.3c-0.1-0.1-0.2-0.3-0.4-0.3L375.8,263.6z M374.6,275.9h0.5
	l-0.1,0.5l-0.4-0.1V275.9z M373.9,261.2h-0.3v-0.5h0.3V261.2z M375,304.2h-0.5v-0.4h0.5V304.2z M375.5,305.4h-0.4v-0.5h0.5
	L375.5,305.4z M375.5,284h0.3v0.5h-0.3V284z M376.1,292.8h-0.4v-0.5h0.5L376.1,292.8z M376.6,283.6h-0.3v-0.4h0.3V283.6z
	 M376.8,264.4h-0.4v-0.5h0.4V264.4z M377,263.6v-0.4h0.3v0.4H377z M377.4,267.2l-0.1,0.4H377v-0.5L377.4,267.2z M377.5,284.6H377
	l0.1-0.5h0.4V284.6z M377.4,268.6l-0.4-0.1v-0.4h0.5L377.4,268.6z M377.5,263.2h0.4l-0.1,0.5h-0.3V263.2z M377.7,266.4h0.4v0.4
	l-0.4-0.1V266.4z M378.5,277.9h-0.5v-0.5l0.5,0.1V277.9z M378.9,273.1h-0.3H378.9v0.5h-0.3v-0.9h0.4L378.9,273.1z M379,270.1h-0.4
	l0.1-0.4h0.3V270.1z M379.1,266.2h-0.3v-0.3h0.3V266.2z M379.7,292.5h-0.4V292h0.4V292.5z M380.2,274.5h-0.3V274h0.3V274.5z
	 M394.6,305.5h-0.5v-0.3h0.5V305.5z M395.6,305.9h-0.3v-0.5h0.3V305.9z M396.8,307.7H396v-0.4l0.7,0.1V307.7z M396.8,304.1h-0.5
	l0.1-0.3h0.4V304.1z M397.7,294.7h0.5v0.5h-0.5V294.7z M398.1,303.6h-0.4v-0.4l0.4,0.1V303.6z M398.6,301.8h-0.4V301h0.4V301.8z
	 M398.9,296.7h-0.4v-0.4h0.4V296.7z M251.6,300.8c0-0.3,0.1-0.7,0.3-0.9c-1.5-2.5-4.5-3.1-7-3.2c-1.1,1-2.9,1.8-2.8,3.6l0.1,0.4
	c-0.4,0.6-0.6,1.3-0.6,2c0,1.3,1.3,5.8,2.6,5.8c1.2,0,2.2-1.2,3.3-1.2c0.3,0,0.6,0.1,0.9,0.3c0,5.2-2.3,8.4-6.1,11.4
	c0.2,0.2-0.1,0.8-0.1,1c0,0.3,0.2,0.7,0.5,0.9c0.4-0.3,0.9-1.2,1.5-1.2c0.6,0,1.4,0,1.4-0.8c2-1.3,3.8-2.8,5.5-4.5
	c1.3-3.1,2-6.4,2.1-9.7c0-0.8-0.1-1.6-0.2-2.4C252.7,301.6,251.6,301.7,251.6,300.8L251.6,300.8z M245.7,306v-0.5l0.4-1.1l0.2,1.6
	L245.7,306z M247.6,304h-0.4v-0.6h0.4V304z M228.4,258.6c-0.3,0.1-0.6,0.2-0.9,0.2c-0.9-0.1-1.6-0.6-2.5-0.6c-0.7,0-1.4,0.4-1.7,1
	v0.3c-0.2,2.5,3.6,1.7,3.9,3.4c-0.1,0.5-0.2,1.1-0.2,1.6c-0.1,2.7,0.9,5.3,0.8,8c0,0.5,0,1-0.2,1.5c0.1,0.4,0.2,0.7,0.2,1.1
	c0,0.9-0.2,1.9-0.3,2.9c0,0.5,0.1,1.2,0.6,1.4v0.2c-0.1,0.6-0.3,1.1-0.6,1.6c0.9,1,0.2,6.2,0.9,7.4c0,0.2-0.1,0.8-0.4,0.8
	c-0.7,0-0.6-1.1-0.7-1.6c-1.3-1.2-1.6-3.1-2.5-4.4c-1.7-0.8-0.6-4.1-2.5-5c0-1.8-1.9-3.5-2.3-5.2c-0.3,0-0.6,0-0.8-0.3
	c0.2-0.2,0.3-0.3,0.3-0.5c0-0.5-1.3-1.1-1.3-2.2l0.1-0.2c-1.4-1.7-1.7-4.3-3.6-5.6l0.3-0.3c-0.3-1-1.6-1.6-1.6-2.6H213
	c-0.5-1.8-1.7-2.5-3.3-2.5c-1.7-0.1-3.4,0.4-5.1,0.4c-0.5,0-1-0.2-1.5-0.3c-0.1,0.4-0.1,0.7-0.2,1.1c-0.1,2,2.2,1,3.2,2.5
	c-0.4,1.9,0.9,2.8,0.9,4.3c-0.1,0.5-0.2,0.9-0.6,1.3c0.3,1.1,0.5,2.3,0.4,3.4c-0.1,1.5,0.2,3.3,0.1,4.5c0,1.7-0.2,2.7,0.5,4.4
	l-0.6,0.6c1.3,7.3-0.7,15,0.1,22.5c-0.9,3.9-3.6,2.1-3.6,4.2v1.4c0.8-0.4,1.7-0.6,2.5-0.5c1,0.1,2.8,0.3,4-0.1
	c0.3-0.1,0.6-0.2,0.9-0.2c1.3,0.1,2.5,1.6,3.5,0.3c0-0.3,0.1-0.4,0.1-0.6c0-1.6-1.7-1.6-2.7-2.6l-0.2,0.3c-1.5-1.3-1.3-4.5-1.7-6.4
	c0.2-0.3,0.5-0.6,0.5-0.8c0-0.2-0.2-0.4-0.4-0.5l0.6-6.6c-0.2-0.4-0.3-1-0.2-1.5c0-0.8,0.2-1.9-0.6-2.3c0.3-0.1,0.5-0.4,0.6-0.8
	c0-0.4-0.2-0.8-0.2-1.2c0-0.6,0.4-1.3,0.5-2c0-1.5-0.8-3.1-0.7-4.6c0.1-1.5,0.7-5,0.9-6.5c1.9,2.5,3.4,6.2,5.1,9
	c-0.1,0.3-0.3,0.3-0.5,0.3c-0.2,0,0,0.3-0.2,0.4c2.2,0.8,2.3,3.8,3.9,4.4c-0.1,0.2-0.2,0.3-0.4,0.3l-0.4-0.1c1,2.1,2.3,4.1,3.8,5.9
	c-0.2,0.1-0.3,0.4-0.2,0.6c0.2,0.2,0.3,1,0.4,1c0,0,0-0.1,0-0.1c0.4,1.5,2.3,2.5,2.3,3.6c-0.1,1,0.5,2,1.4,2.4l-0.2,0.4l0.6,0.4
	c-0.1,0.2-0.3,0.3-0.6,0.3h0.2c0.6,0.5,0.7,1.6,0.7,2.4c2,1,1.5,5.5,3.6,5.5c0.7,0,1.2-0.4,1.3-1.1c0-0.2-0.1-0.4-0.2-0.6
	c0-7.3,0.2-14.5,0.2-21.7l-0.6-0.7l0.4-0.2h0.2l-0.1-2.9c-0.1-1.7-0.5-4.4-0.4-6.2c0-0.8,0.2-1.6,0.6-2.3c-0.4-0.6-0.6-1.4-0.6-2.1
	c0.1-0.7,0-1.3-0.2-2c0.3-2.9-0.2-5.3,1.2-7.9c0.6-1.1,2.6-0.8,2.6-1.9c0-0.3-0.1-0.7-0.2-0.9L228.4,258.6z M203.9,308l-0.3-0.1
	v-0.3h0.3V308z M207.6,298.1h-0.3v-0.4l0.4,0.1L207.6,298.1z M212.8,308.4h0.5l-0.1,0.5l-0.4-0.1V308.4z M208.9,269.7h-0.6V269h0.6
	V269.7z M208.9,267.7h-0.6v-0.6h0.6L208.9,267.7z M209.5,269.2h-0.4v-0.4h0.5L209.5,269.2z M209.6,265.4l-0.5-0.1V265h0.5V265.4z
	 M210.9,260.1h0.5v0.5h-0.5V260.1z M211.9,271.3h-0.4v-0.5h0.5L211.9,271.3z M211.7,268.2l-1.2-1.6h0.6l0.3,0.6
	C212.4,267.2,212.2,267.7,211.7,268.2L211.7,268.2z M218.2,283.8h-0.3v-0.4h0.3V283.8z M219.6,285.4h0.5v0.3h-0.5V285.4z
	 M219.6,288.6l-0.4-0.9h0.6l0.6,1.8L219.6,288.6z M226.3,296.6h-0.5l0.1-0.4h0.4V296.6z M229.3,308.4H229V308l0.4,0.1L229.3,308.4z
	 M181.8,267.8L181.8,267.8C181.8,267.8,181.8,267.8,181.8,267.8z M453.3,267.8L453.3,267.8C453.3,267.8,453.3,267.8,453.3,267.8
	L453.3,267.8z M432.6,291.9c-0.9,0-1.7,0.2-2.5,0.2c-0.4,0-0.7,0-1-0.2c-0.1,0.9,0.5,1.6,0.5,2.4c0,0.8-1.1,0.8-1.2,1.7h0.8
	c0.1,0.4,0.1,0.7,0.1,1.1c0,2.1-1.1,4.5-1.7,6.5c-0.7,2.1-2.4,2.9-4.4,2.9c-1.6,0-3.3-0.2-4.9-0.4c-0.1,0-0.5,0-0.5-0.2
	c0-0.2,0.1-0.3-0.2-0.3c-0.3,0-0.6,0.1-1,0.2c-0.5-0.4-0.9-1-1.2-1.5v-0.8c-0.1-1.4,0.2-2.8,0.2-4.3c0-2.5-0.4-5.1-0.4-7.7
	c0.2-0.6,0.3-1.2,0.2-1.8c0-1.2-0.2-2.4-0.2-3.5c0-0.6,0-1.1,0.2-1.6c0.1-2.1,0.2-4.2,0.2-6.2c0-4.6-0.2-9.1-0.6-13.7
	c0.2-0.3,0.3-0.5,0.3-0.8c0.3,0,0.6,0,0.9,0.1l-0.5-0.9c0.6-0.4,1.2-0.5,1.9-0.4c1.5,0,1.7-0.9,2.1-2.3l-0.7-1.4
	c-3.2,0-5.8,0.1-9,0.1c-2.1,0-4,0.3-6,0c0.3,0.3,0.5,0.6,0.5,1c0,0.3-0.2,0.7-0.2,1.1c0,1.1,1.3,1.3,2.1,1.3h0.4
	c2,1.1,0.8,3,1.8,4.4h-0.5c0.1,0.6,0,1.7,0.2,2.1c-0.2,1.8-0.3,3.5-0.3,5.3c0,3.7,0.1,7.3,0.1,10.9c0,2,0.2,3.8,0.2,5.8
	c0,0.1-0.1,0.3-0.1,0.3c0.4,0,1.7,0,1.7,0.6c0,0.6-1.2,0.6-1.5,0.9c0,0.7,0.8,0.3,0.8,0.9c0,0.3-0.2,0.7-0.2,1.1
	c0,0.1,0,0.1,0.2,0.1v0.2c-0.2,0-0.7-0.9-0.9-0.9c-0.1,0-0.1,0.1-0.1,0.1v2.4c-0.1,0.8,0.1,1.6,0.4,2.4c-0.2,0.3-0.4,0.7-0.4,1.1
	c0,0.6,0.2,1.3,0.4,1.9l-0.4,0.1l-0.1,1.6c-0.7,0.7-1.5,1.3-2.5,1.7c-0.7,0.8-1.7,1.5-1.7,2.6c-0.2,0.6,0,1.2,0.6,1.4
	c0.2,0.1,0.5,0.1,0.8,0c0.8,0,1.4-0.5,2.1-0.5c0.2,0,0.4,0,0.6,0.1c0.4-0.1,0.7-0.2,1.1-0.2c0.4,0,0.7,0.3,1,0.3
	c0.5-0.1,1-0.3,1.4-0.7c1,0.2,2,0.9,3,1c1.4,0.2,2.7,0.4,4.1,0.3c3.1,0,5.9-1.3,8.7-1.3c0.9,0,2,0.4,2.9,0.4c0.3,0,0.7-0.3,1.2-0.3
	l0.6,0.1l1.1-4.2l-0.2-2l0.6-2c-0.6-1.3-1.6-2.7-1.6-4.2c0-0.3,0.1-0.9,0.4-0.9s0.7,0.4,1,0.4c0.1,0,0.2-0.1,0.2-0.2
	c0-1,0.2-2,0.2-3.1C433.8,292.1,433.2,291.9,432.6,291.9z M418,260.4h0.6v0.5h-0.6L418,260.4z M408.4,262.8v-0.6h0.5l0.2,2.5
	L408.4,262.8z M410.9,268.1h0.5v0.6h-0.5V268.1z M411.3,275h0.5v0.7h-0.5V275z M412.4,284.9h-0.6v-0.5l0.6,0.1L412.4,284.9z
	 M412.9,288.3h0.5v0.5h-0.5V288.3z M413.6,299.2h-0.6v-0.7l0.6,0.1V299.2z M414.3,282.1l-0.6-0.1v-0.6h0.6V282.1z M418.5,307.3H418
	v-0.4h0.5V307.3z M420,307.8h-0.6v-0.6h0.6V307.8z M429.9,301.8l-1.5,1.7l0.9-2.1h0.6V301.8z M211,231.5c2.2,0.1,4-0.9,6.1-0.9
	c0.6,0,1.1,0.1,1.7,0.3c-0.1-3.1,0.5-6.1,0.6-9.2c0-0.9-0.2-2-0.2-2.9c0-1.3,0.2-2.6,0.6-3.8l-0.5-0.1c-0.2-0.8-0.8-1.5-1.7-1.7
	c-1.1,0-1.6,1.3-1.6,2.2c0,1.2,0.1,1.5-0.7,2.5l0.6,0.2v1.3c-0.1,0.8-0.2,1.6-0.4,2.4c-0.8,0.7-1.8,3.7-2.8,3.6
	c-0.6,0.4-1.5,0.3-1.5,1.2c-1.4,0.7-2.9,1-4.4,1.1c-2.5-0.1-4.7,0.4-7.2,0.3c-1.2,0-2.3-0.4-3.3-1.2c0.3-5,0-10.1,0.1-15.1h0.4
	l0.1-1.3c-0.4-0.9-0.6-1.9-0.5-2.9c0-1.3,0.3-2.6,0.3-3.8c1.8,0,3.6-0.1,5.3-0.1c3.6,0.2,0.8,8.9,3.9,9.1c0.8,0,1.7-1,2-1.7
	c-0.2-1.7,0.2-3.3,0.2-4.8c0.1-1.4,0-2.9-1-3.9c0.5-0.6,0.9-1.3,1.3-2.1c-0.3-0.2-0.5-0.2-0.5-0.7c0-0.6,0.6-0.5-0.3-0.8l-0.7-0.2
	l0.2-0.4c0.3-0.1,0.1-0.3,0.5,0.1l0.7,0.5l-0.5-7.2c-0.2-0.1-0.5-0.2-0.8-0.2h-0.1l0.7-0.7l-3.2-0.1c-0.3,1-0.5,2-0.6,3
	c0,2.1,0.5,3.9-1.4,5.4c-1.7-0.4-3,0.6-4.5,0.5c-0.5,0-1-0.2-1.4-0.5c0.3-0.7,0.4-1.4,0.5-2.2c0-1.5-0.4-3-0.3-4.5
	c0-0.8,0.4-1.5,0.4-2.2c0-0.4-0.2-0.9-0.5-1.2h0.5c-0.6-1.2-0.8-2.6-0.7-3.9c0-1.6,0.6-4-0.1-5.4c0.3-0.6,0.4-1.2,0.7-1.8
	c1.4,0.2,2.8-0.3,4.1-0.3c0.3,0,0.5,0.1,0.8,0.1c1.3-0.2,2.6-0.3,3.8-0.2c2.2,0,4.3,0.7,6.1,2.1l-0.3,0.3l2.3,1.7
	c0.3,0.2,0.2,1,0.2,1.2c-0.1,1.2,0.5,1.9,0.5,3c0.2,2.2-0.1,4.1,2.5,4.9v-0.8h1c0.2-0.6,0.4-1.2,0.4-1.8c0-0.9-0.1-1.7,0.5-2.4
	l-0.6-0.9c0.2-1.3-0.6-2.4-0.6-3.7c0.1-1.4-0.7-1.9-0.7-2.4c0.1-0.3,0.5-0.5,0.7-0.6c-0.3-0.3-0.7-0.7-0.6-1.2c0-0.8,0.2-1-0.4-1.8
	c-1.2-0.1-2.5-0.8-3.6-0.8c-0.4-0.1-0.9,0.1-1.3,0.3c-1.4-0.5-2.9-0.8-4.3-0.9c-2.5-0.1-4.9,0.3-7.5,0.2c-1.2,0-2.5-0.2-3.6-0.6
	l-0.5,0.6c-1.3-0.5-3-0.4-4.2-0.4c-2.7-0.1-5.2-0.5-7.9-0.6c-1-0.1-1.9,0-2.9,0.3c-0.3,0.6-0.5,1.2-0.5,1.9
	c-0.1,3.3,5.6,1.7,6.1,3.7c0.8,4.4,0,9.5,0.1,14c0.1,4.5,0.7,9.1,0.5,13.7v0.9h-0.5c0.4,4.9,0.5,9.7,0.4,14.6
	c-0.2,1.3-0.3,2.7-0.3,4v0.5c-1,0.9-2.3,1.2-3.4,1.8l-0.2-0.3c-1.3,0.2-2.3,1.2-2.5,2.5c0,0.5,0.2,1.1,0.5,1.5c7-0.4,14-0.2,21-0.1
	C205.2,231.7,208.2,231.4,211,231.5z M218.7,222.9h-0.5v-1h0.5V222.9z M218.6,216.5h0.5v0.5h-0.5V216.5z M217.6,214.7h0.6v0.6h-0.6
	V214.7z M217.6,224.5l0.5,0.1v0.4h-0.5V224.5z M216,225.2h0.5v0.4h-0.6L216,225.2z M215.6,229.2l0.9,0.1v0.4h-0.9V229.2z
	 M214.6,227.1h0.4v0.6h-0.4V227.1z M213.2,226.8h0.6v0.4h-0.6V226.8z M190.7,181.2l0.4,0.1v0.4h-0.4L190.7,181.2z M190.7,190.3
	l0.5,0.1v0.5h-0.5L190.7,190.3z M189.5,194.5c0-0.1,0.1-0.2,0.1-0.3l1,1C190.2,195,189.4,195,189.5,194.5L189.5,194.5z M189.6,196
	v0.5l-0.6-0.1l0.1-0.4H189.6z M190.1,197.6l0.5,0.1l-0.1,0.4h-0.4V197.6z M190,189.8v-0.1h0.6v0.1H190z M190.4,178.7l-0.3,0.3
	c-0.2-0.1-0.3-0.3-0.5-0.4L190.4,178.7z M189,192.9h0.6l-0.1,0.6l-0.5-0.1V192.9z M188,175.9h-0.4v-0.6h0.4L188,175.9z M189.3,225.7
	h-0.6v-0.5h0.6V225.7z M189.9,227.1h-0.5v-0.6h0.6L189.9,227.1z M190,202.3h0.4v0.6H190V202.3z M190.7,212.5h-0.5v-0.6h0.6
	L190.7,212.5z M191.4,201.9H191v-0.5h0.4V201.9z M191.6,179.7h-0.5v-0.6h0.5V179.7z M191.8,178.7v-0.5h0.4v0.5H191.8z M192.4,182.9
	l-0.1,0.5h-0.4v-0.6L192.4,182.9z M192.5,203h-0.6l0.1-0.6h0.5V203z M192.4,184.5l-0.5-0.1v-0.5h0.6L192.4,184.5z M192.5,178.2h0.5
	l-0.1,0.6h-0.4V178.2z M192.7,181.9h0.5v0.5l-0.5-0.1V181.9z M193.8,195.2h-0.6v-0.6l0.6,0.1V195.2z M194.2,189.6h-0.4l0.4,0.1v0.5
	h-0.4v-1.1h0.5L194.2,189.6z M194.4,186.2h-0.5l0.1-0.5h0.4L194.4,186.2z M194.5,181.7h-0.4v-0.4h0.4L194.5,181.7z M195.2,212.1
	h-0.5v-0.6h0.5L195.2,212.1z M195.8,191.3h-0.4v-0.6h0.4V191.3z M86.1,259c-1.7,0-3.5,0.2-5.1-0.2c-0.5,0.6-0.8,1.3-0.9,2.1
	c0,0.4,0.2,0.8,0.5,1c0.1,0.4,0.6,0.7,1,0.7c0.3,0,0.6,0,0.9,0c0.8,0.6,1.2,1.6,1.1,2.6c0,1.1-0.2,2.1-0.2,3.2
	c0,0.8,0.3,1.4,0.3,2.1c0,1-0.3,2.1,0.1,3l0.2,0.1l-0.6,0.3c0.2,2.9,0.8,6.3,0.8,9.2c-0.1,1.6-0.2,3.1-0.4,4.7h-0.2
	c0,0.3-0.1,0.6-0.1,0.9c0,0.8,0.1,0.8-0.6,1.5c0.3,0.2,0.7,0.3,1,0.3H84l-0.7,0.8c0.4,0.4,0.6,0.9,0.6,1.5c0,1.1-0.7,2-0.7,3.2
	c0,0.6,0.3,1.1,0.3,1.7c0,1.4-0.9,2.6-0.9,4c0,0.2,0,0.4,0.1,0.5c-1.9,3.2-4,3.8-7.7,3.8c-2.9,0-4.7-2.6-6.1-5.1v-0.4h-0.1l0.3-0.3
	l-0.2-0.7c0.3-0.7,0.5-1.5,0.5-2.3c0-0.8-0.3-1.5-0.9-2c0.6-1,0.8-2.2,0.8-3.4c0-2.1-0.4-4.1-0.4-6.2c0-1.1,0.4-2,0.4-3.2
	c0-0.6-0.1-1.1-0.3-1.6c0.2-1.8-0.4-3.5-0.4-5.3c0-0.9,0.2-1.6,1.2-1.9c-0.8-1.3-1.2-2.8-1.2-4.3c0-9.7,2.7-4.8,5.5-7.5
	c0.2-0.4,0.3-0.9,0.3-1.4c0-0.6-0.3-1.1-0.9-1.4l-15.3-0.1l-0.9,0.8c-0.1,0.3-0.1,0.6-0.2,0.9c0,0.7,0.9,0.9,0.9,1.4v0.2l0.8,0.1
	v-0.1c0.2,0.3,0.6,0.3,0.9,0.3c0.5,0,1.7-0.3,1.9,0.3c-0.6,0-1.2,0.2-1.6,0.7l1.5,0.8v11L61,276c0.4,0.8,0.6,1.7,0.6,2.6
	c0,1.3-0.2,2.5-0.2,3.8c0,0.9,0.1,1.7,0.4,2.5c-0.4,0.9-0.6,1.8-0.6,2.7c0,2,0.7,3.8,0.7,5.8c0,0.5-0.1,0.9-0.2,1.4h-0.3
	c0,1,0.5,1.9,0.5,2.8c0,0.5-0.3,0.9-0.6,1.2c1.3,2.2,0.6,4.7,3.1,6.3l0.6-0.6c0.2,0.3,0.5,0.6,0.7,0.9c-0.8,2.5,1.9,1.6,2.1,3.2
	c2.5,0.6,5,1,7.6,1c1.7,0,4.8-0.3,6.3-1.4c5-3.3,5.3-8.4,5.4-13.9h0.4v-14c0-1.7,0.2-4,0.2-5.6c0-0.5-0.2-1-0.5-1.5
	c0.2-1,0.3-2.1,0.3-3.2c0-0.8-0.1-1.5-0.3-2.3l0,0v0c0.2-0.2,0.3-0.3,0.5-0.5l-0.5-1.9c0.5-1.7,1.1-2.9,2.9-3
	c0.2-0.8,0.9-1.4,0.9-2.1C91.1,258.6,87,259,86.1,259L86.1,259z M83.4,261.7H83v-0.4h0.4L83.4,261.7z M67.2,275.3l0.4,0.1v0.4h-0.4
	V275.3z M66.9,283h0.3v0.3h-0.3V283z M66.5,277h0.4l-0.1,0.5h-0.3V277z M64.5,270.9h0.5v0.4h-0.5V270.9z M64.1,280.2h-0.3v-0.3h0.3
	V280.2z M64.6,301.9l-0.3-0.1v-0.3h0.3V301.9z M64.7,280l0.1-0.5h0.4v0.5H64.7z M65,292.7h0.5l-0.1,0.3H65V292.7z M65.7,301.7h-0.5
	v-0.5h0.5V301.7z M65.7,282.3h-0.5V282h0.5V282.3z M66.2,304h-0.4v-0.3h0.4V304z M66.5,279.4h-0.4v-0.3h0.4V279.4z M67.1,301.2
	l-0.5-0.1v-0.3h0.5V301.2z M67.3,299.2H67v-0.5h0.3V299.2z M67.8,305.1h-0.3v-0.3h0.3V305.1z M68.1,297.4h-0.5v-0.3h0.5V297.4z
	 M84.8,289.3h-0.4v-0.5l0.6-1L84.8,289.3z M85.3,267.9H85v-0.4h0.3V267.9z M88.4,260.5H88v-0.3h0.4V260.5z M328.3,183.1l-0.6-2.2
	c0.6-2,1.4-3.4,3.7-3.5c0.2-0.9,1.2-1.6,1.1-2.4c-0.2-2.2-5.2-1.7-6.4-1.7c-2.2,0-4.3,0.2-6.4-0.2c-0.5,0.7-1.1,1.5-1.1,2.4
	c0,0.5,0.2,0.9,0.6,1.2c0.2,0.5,0.7,0.9,1.3,0.8c0.4,0,0.8,0,1.2,0c1.1,0.7,1.4,1.9,1.4,3.1c0,1.3-0.3,2.5-0.3,3.7
	c0,0.9,0.4,1.6,0.4,2.5c0,1.2-0.4,2.4,0.1,3.5l0.2,0.1l-0.7,0.4c0.3,3.4,1,7.3,1,10.7c-0.1,1.8-0.2,3.6-0.5,5.4h-0.3
	c0,0.4-0.1,0.7-0.1,1.1c0,1,0.1,1-0.7,1.8c0.4,0.2,0.8,0.3,1.3,0.3h0.1l-0.9,0.9c0.4,0.5,0.7,1,0.8,1.7c0,1.3-0.9,2.4-0.9,3.6
	c0,0.7,0.4,1.3,0.4,2c0,1.6-1.1,3.1-1.1,4.6c0,0.2,0,0.4,0.1,0.6c-2.4,3.7-5,4.3-9.6,4.3c-3.6,0-5.9-3.1-7.6-5.9v-0.6h-0.1l0.4-0.4
	l-0.2-0.8c0.4-0.8,0.6-1.7,0.6-2.7c0-0.9-0.4-1.8-1.2-2.3c0.7-1.2,1.1-2.6,1-3.9c0-2.5-0.5-4.7-0.5-7.2c0-1.3,0.5-2.4,0.5-3.6
	c0-0.7-0.1-1.3-0.4-1.9c0.3-2.1-0.5-4-0.5-6.1c0-1.1,0.3-1.9,1.5-2.2c-1-1.5-1.5-3.2-1.5-4.9c0-11.2,3.4-5.5,6.9-8.7
	c0.2-0.5,0.4-1,0.4-1.6c0-0.7-0.4-1.3-1.1-1.6l-19-0.1l-1.2,0.9c-0.1,0.4-0.2,0.7-0.2,1.1c0,0.8,1.1,1.1,1.1,1.6v0.2l1,0.1V177
	c0.2,0.4,0.7,0.4,1.1,0.4c0.6,0,2.1-0.3,2.4,0.4c-0.7-0.1-1.5,0.2-2,0.8l1.9,0.9v12.7l-0.8,0.8c0.5,0.9,0.8,2,0.8,3.1
	c0,1.5-0.3,3-0.3,4.4c0,1,0.1,2,0.5,3c-0.5,1-0.7,2.1-0.7,3.2c0,2.3,0.9,4.4,0.9,6.7c0,0.5-0.1,1.1-0.2,1.6h-0.4
	c0,1.2,0.6,2.2,0.6,3.3c-0.1,0.5-0.3,1-0.8,1.4c1.6,2.6,0.7,5.4,3.8,7.3l0.8-0.7c0.3,0.3,0.6,0.7,0.9,1c-1,3,2.4,1.9,2.7,3.7
	c3.1,0.7,6.3,1.1,9.5,1.2c2.2,0,6-0.4,7.9-1.6c6.2-3.8,6.6-9.7,6.7-16.1h0.5v-16.2c0-2,0.3-4.6,0.3-6.5c0-0.6-0.2-1.2-0.6-1.7
	c0.3-1.2,0.4-2.4,0.4-3.6c0-0.9-0.1-1.8-0.3-2.7l0,0l0,0v0C327.9,183.4,328.1,183.2,328.3,183.1z M328.4,174.7h0.5v0.4h-0.5V174.7z
	 M322.7,176.6h-0.5v-0.5h0.5V176.6z M302.5,192.3l0.5,0.1v0.4h-0.5V192.3z M302.2,201.2h0.4v0.4h-0.4V201.2z M301.6,194.2h0.5
	l-0.1,0.6h-0.4V194.2z M299.1,187.2h0.6v0.4h-0.6V187.2z M298.6,197.9h-0.4v-0.4h0.4V197.9z M299.2,223l-0.4-0.1v-0.4h0.4V223z
	 M299.4,197.7l0.1-0.6h0.5v0.6H299.4z M299.8,212.3h0.6l-0.1,0.4h-0.5V212.3z M300.7,222.8h-0.6v-0.6h0.6V222.8z M300.7,200.4h-0.6
	V200h0.6V200.4z M301.3,225.4h-0.5V225h0.5V225.4z M301.7,197h-0.5v-0.4h0.5V197z M302.4,222.2l-0.6-0.1v-0.4h0.6V222.2z
	 M302.7,219.9h-0.4v-0.6h0.4V219.9z M303.2,226.7h-0.4v-0.4h0.4V226.7z M303.6,217.8H303v-0.4h0.6V217.8z M324.4,208.5h-0.5v-0.6
	l0.7-1.2L324.4,208.5z M325,183.7h-0.4v-0.5h0.4V183.7z"/>
<path class="st1" d="M231.2,108.5c2.3-0.8,4.5-2,6.5-3.5l1.5-1.2l6-3.5c0.6-0.8,1.1-1.5,1.5-2.1l0,0l0.1-0.1l0,0
	c0.9-1.3,2.2-5,3-7.2c-0.8-0.5-1.6-1.1-2.3-1.8l0,0c-0.6,0-1.2,0.1-1.8,0.3c-0.6,0.1-1.3,0.4-2,0.5c-0.5,1.9-1.2,4.5-1.5,5.3
	c-0.4,1.3-3.1,4.7-6.3,7.5l-0.4,0.4l-0.1,0.1l-0.3,0.3l-0.2,0.2l-0.3,0.3l-0.2,0.2l-0.3,0.3l-0.2,0.2l-0.2,0.3
	c-0.1,0.1-0.1,0.1-0.2,0.2c-0.1,0.1-0.2,0.2-0.2,0.3l-0.2,0.2l-0.2,0.3l-0.2,0.2l-0.2,0.3l-0.2,0.2l-0.2,0.3l-0.2,0.2l-0.2,0.3
	l-0.1,0.2c-0.1,0.1-0.2,0.2-0.3,0.3c0,0.1-0.1,0.1-0.1,0.2l-0.2,0.3c0,0.1-0.1,0.1-0.1,0.2c0,0.1-0.1,0.1-0.2,0.2s-0.1,0.1-0.1,0.2
	l-0.1,0.2l-0.1,0.2l-0.1,0.1l0,0l-0.3,0.4L231.2,108.5z M186,86.9c0,0.3,0,0.6,0,1c0,0.2,0,0.4,0,0.6c0,0.3,0,0.6,0.1,0.9
	c0,0.2,0,0.4,0,0.6c0,0.2,0,0.6,0.1,0.8c0,0.3,0,0.4,0.1,0.6l0.1,0.8c0,0.2,0,0.4,0.1,0.6c0,0.2,0.1,0.5,0.1,0.8
	c0,0.3,0.1,0.4,0.1,0.6c0,0.2,0.1,0.5,0.1,0.8l0.1,0.6c0,0.3,0.1,0.5,0.1,0.8c0,0.3,0.1,0.4,0.1,0.6s0.1,0.5,0.1,0.8l0.1,0.6
	l0.2,0.8c0,0.2,0.1,0.4,0.1,0.6l0.2,0.8l0.1,0.6c0.1,0.3,0.1,0.5,0.2,0.8c0.1,0.3,0.1,0.4,0.1,0.6c0,0.2,0.1,0.5,0.2,0.8
	s0.1,0.4,0.2,0.6s0.1,0.5,0.2,0.8c0.1,0.3,0.1,0.4,0.2,0.6s0.2,0.5,0.2,0.8c0.1,0.3,0.1,0.4,0.2,0.5l0.2,0.8
	c0.1,0.2,0.1,0.4,0.2,0.5l0.3,0.8l0.2,0.5l0.3,0.8l0.2,0.5l0.3,0.8c0.1,0.2,0.1,0.3,0.2,0.5s0.2,0.5,0.3,0.8l0.2,0.5
	c0.1,0.3,0.2,0.5,0.3,0.8l0.2,0.5c0.1,0.3,0.2,0.5,0.4,0.8c0.1,0.3,0.1,0.3,0.2,0.5c0.1,0.2,0.2,0.5,0.4,0.8l0.2,0.5
	c0.1,0.3,0.3,0.5,0.4,0.8c0.1,0.2,0.2,0.3,0.2,0.5c0.1,0.2,0.3,0.5,0.4,0.8l0.2,0.4l0.4,0.7c0.1,0.1,0.2,0.3,0.3,0.4
	c0.1,0.2,0.3,0.5,0.4,0.7c0.1,0.1,0.2,0.3,0.3,0.4c0.2,0.2,0.3,0.5,0.4,0.7l0.3,0.4c0.2,0.2,0.3,0.5,0.5,0.7
	c0.1,0.1,0.2,0.3,0.3,0.4l0.5,0.7l0.3,0.4l0.5,0.7l0.3,0.4l0.3,0.4l0,0c0.1,0.1,0.2,0.3,0.3,0.4l13.8-8.1l0.2-0.2l0.2-1.3l0,0v-0.2
	v0V117l0,0c0-0.2,0.1-0.5,0.1-0.7v-0.2c0-0.1,0-0.1,0-0.2l0,0c0-0.2,0-0.3,0.1-0.5v-0.1v-0.1v-0.1v-0.1V115v-0.1v-0.1v-0.1v-0.1
	v-0.1v-0.1v-0.1v-0.1v-0.1v-0.1l0,0c0.2-1.1,1.6-1.9,3-2.9c1.3-1,3.3-3.8,6.6-7c3.3-3.3,4.3-6.3,5.3-9.2c0.7-2.3,1.3-11.3,1.4-15.4
	c-0.3,0-2.2-0.2-3.2-0.2c-0.2,0-0.3,0-0.5,0c-0.6,0.1-2.3,1.7-3.1,2.7c-0.8,1-1.9,3-3,3.2c-0.1,0-0.2,0-0.4,0
	c-0.8-0.1-0.9-0.9-0.9-1.6c0.1-1,0.1-2,0-2.9c-0.1-0.8-0.1-1.7-0.1-2.5l0,0c-0.6,0.5-1.3,1-2,1.3c-0.9,0.4-1.8,1.5-2.9,2.5
	c-0.1,0.2-0.3,0.3-0.6,0.3c-0.5,0-0.6-1.3-0.4-2.5c0.3-1.5,1.8-2.8,2.6-4.3c0.5-1,0.4-2.8,0.2-3.9l0,0c-3.7,3.4-7.8,7.1-9.1,8.5
	c-1.1,1.1-2.5,2.5-3.2,2.5c-0.7,0-0.6-1,0.7-4.3c2.9-7,10.1-14.7,10.1-14.7l-0.6-5.7l1.9-1.5c-0.5-2.1-0.6-4.3-0.4-6.5
	c0.3-3.5,5.5-4.2,7.3-8.1c1.8-3.8,4.7-4.3,7-4.6s7.6-1.4,7.6-1.4c0.8-0.7,1.6-1.4,2.3-2.2c0.5-0.5,1.6-0.7,3-0.7c3,0,7.3,0.9,9.9,1
	c3.8,0.1,1.8,1.7,0.5,1.9c-1.2,0.2-3.6,0.7-4.6,1.5c-1,0.7-3.1,1-5,1.6c-1.9,0.6-2.5,2.2-3.7,4.1c-1.2,1.9-6.7,3.8-7.7,4.2
	c-1,0.4-0.5,1.2,0.3,2.3c0.8,1.1,0.3,2.4-0.3,3.6c-0.2,0.4-0.4,0.9-0.5,1.4l0,0c2.3-0.8,5.8-1.9,8.2-2.6c1.6-0.5,3.2-0.7,4.8-0.6
	c1.7,0,3.3,0.2,4.7,0.3h0.5h0.7c2,0,1.6,0.3,1.7,0.9c0.1,0.6-1.3,2.3-3.6,3.8c-1.1,0.8-2.9,1.2-4.9,1.5c-3.6,0.9-4,1.4-4,1.4
	c0.7,0.3,1.5,0.5,2.3,0.6c0.9,0.1,1.8,0.2,2.7,0.2c0.5,0,0.9,0,1.4-0.1c1-0.1,1.9-0.4,2.8-0.9c0,0.7-0.2,1.4-0.5,2l0,0
	c0,0,1.2-0.6,1.4-0.7c0.2-0.1,1.5-0.8,4-2c0.9-0.4,1.7-0.9,2.4-1.5c0.1-0.1,0.2-0.1,0.3-0.1c0.3,0,0.5,0.2,0.5,0.4c0,0,0,0.1,0,0.1
	c0,0.2,0,0.3-0.1,0.5c-0.3,1-0.8,1.9-1.4,2.7l0,0c1.5-0.3,3-0.7,4.5-1.3c2.2-0.9,5.1-5.1,6.5-6.9c1.4-1.8,9.2-3.7,9.2-3.7
	c-0.9,0.3-1.5,1.3-1.2,2.3c-2.6,1-3.1,4.1-3.1,4.1c-4.8,2.2-1.1,2.1,0.3,2.1c1.4,0.1,0.1,3.1-0.2,4c-0.3,1,0.7,1.6,0.7,1.6
	s-2.6,1.9-3.3,2.7c-1.3,1.2-2.3,2.8-2.9,4.6c-0.8,2.5-2.9,3.8-4.8,5c-1.9,1.2-5.9,1.4-5.3,1.6c0.8,0.2,1.6,0.3,2.4,0.3l1.4,0.4l0,0
	c0,0,0.5,0,1.1,0c0.3,0,0.5,0,0.8,0c0.5,0.1,1,0.2,1.5,0.4h0.4c4.2,0,4.4,2.3,5.2,3.9c0.5,1.1,0.3,3.4,0.1,4.6
	c0.1,0.2,0.1,0.4,0.1,0.6c1.6-1.1,4.1-2.6,6.4-4.3l5.4-3.2c-0.2-0.2-0.4-0.3-0.6-0.4l-0.2-0.1c-0.4-0.2-0.7-0.5-0.9-0.9v-0.1
	l-0.5-1.1c0,0,0.1-0.6,0.3-0.6s1.9-0.3,2.6-0.5c0.4-0.1,1.5-0.5,2.6-1l1.7-0.7l0.3-0.1l0.1,0c0,0,0-0.2,0-0.4s0-0.3,0.1-0.4
	c0,0,0-0.1,0-0.1c0-0.1,0.1-0.3,0.2-0.4c0.3-0.2,0.5-0.5,0.7-0.7v-1.6l0.6-0.4l0.4-0.8v-1.2l0-0.1c0.3-0.5,0.7-1,1.1-1.4
	c0.8-0.8,2.8-3.2,3.7-4.2c1.2-1.2,2.2-2.5,3.1-3.9c0.7-1.4,2.5-5.4,2.5-5.4c0.5-0.7,1-1.3,1.6-2l0.1-0.1c0.5-0.4,1.4-1,1.4-1h1.4
	l-0.6,0.8l1.1-0.4l1.7,0.9c-0.8,0.6-1.5,1.4-2.2,2.1c-0.2,0.3-0.3,0.5-0.4,0.7c-0.1,0.2-0.2,0.3-0.2,0.5v0.1
	c-0.1,0.4-0.2,0.7-0.2,1.1l0,0c0,0,1.9-1.6,2.3-2c0.2-0.2,0.5-0.4,0.8-0.5c0.1-0.1,0.3-0.1,0.4-0.2v0.8l0.8-0.7l1.1-0.3l0.7,1.1
	l0.4,0.5c-0.5,0.3-1,0.7-1.5,1.1l-0.1,0.1c-0.4,0.4-0.8,0.9-1.1,1.3l-0.1,0.2l0.2-0.1l0.2-0.1l0.2-0.1c0.9-0.4,2.7-1,2.9-1.1h0.2
	c0.4,0,0.7,0,1.1,0.1l1.4,0.5l-0.3,1l1.1,0.7v0.8l0.7,0.2v0.6l0.5,0.5l0.3,0.5v0.5l0.6,0.4l0.4,1L315,63l1.1,0.3v0.8
	c0,0,0.4,0.9,0.5,0.9c0.1,0,0.3,0.1,0.4,0.2l0.3,0.1l0.3,0.8l-0.4,0.4l0.7,0.5l0.4,0.9l-0.7,0.4l0.7,0.4l0.4,0.4l0.4,1v0.6l-2.2,0.7
	l-1.7,0.8l0.6,0.1c0.7,0.1,2,0.3,2.4,0.3c0.5,0.1,1.1,0.4,1.5,0.7c0,0,0.1,0,0.1,0.1l0.1,0.1l0.1,0l-0.8,1l-0.1,0.8l-2.7,0.1
	l2.9,1.6l-0.3,1l0.2,1c0,0-3.3-0.5-3.5-0.5c-1.3-0.4-2.7-0.8-4-1l0,0c-0.5,0-1.6,0.2-2.2,0.2c-0.6,0-2.8-0.2-4-0.2h-0.4h-0.2
	c-1.1,0.2-4.1,1.7-5.3,2c-0.9,0.2-1.8,0.4-2.7,0.5h-0.1c-0.1,0-0.2,0-0.4,0c-0.9,0-3.1-0.1-3.2-0.1l0,0c-0.1,0-0.4,0.1-0.6,0.1h-0.1
	h-0.1h0c-0.3-0.1-1.4-0.2-1.4-0.2l0,0c-0.7,0.6-1.5,1.2-2.4,1.7l-0.2,0.1c-0.1,0.1-0.3,0.1-0.5,0.2c-0.6,0.2-1.3,0.3-1.5,0.7
	c0,0,0,0.1-0.1,0.1c-0.4,0.6-0.8,1.2-1.3,1.7c-0.1,0-0.1,0-0.2,0c-0.2,0-0.4-0.1-0.6-0.4l0-0.1l0,0l0-0.1l-0.1-0.1l-0.1-0.1
	l-0.1-0.1l-0.1-0.1l0-0.1l-0.1-0.1l0-0.1l-0.1-0.1l0-0.1l-0.1-0.1l0-0.1l-0.1-0.1l0,0l-0.1-0.1l0,0l-0.5-0.8l-0.1-0.2
	c-1.2,0.9-4.4,3.3-7.4,5.6l-8.8,5.1c-1.2,1.5-2.4,3-3.8,4.4h0.4l0,0h0.2l0,0h0.3h0.1h0.3h0h0.3h0.1h0.3h0h0.3h0.1h0.4h0.1h0.4h0h0.4
	h0.1h0.4h2.5c2.3-0.1,2.7-0.5,4.5-0.8l3.1-0.5c0,0,0.9-0.4,3.3-1c2.4-0.6,4.1-0.6,8.6-1.1c4-0.5,7-1.8,8.1-1.8c0.1,0,0.2,0,0.3,0.1
	c0.5,0.3,0.4,1.3,0.4,2.5c0,0.3,0,0.5,0,0.8c0,0.3,0,0.4,0,0.5c0.1,0.8,0.1,1.7,0,2.5c0,0.2,0,0.3,0,0.5c-0.1,0.7-0.4,1.4-0.9,2
	c-0.6,0.9-1.3,1.9-1.8,2.8c-0.8,1.6-0.4,3.1-0.6,4.2c-0.2,0.9-1.6,2.3-2.1,2.8l-0.2,0.2l2.3,1.9c0,0,0.6,2.2,1.2,4.1
	c0.2,0.8,0.4,1.5,0.4,2.3c0,0.2,0,0.4,0,0.6c0,0.1,0,0.2,0,0.3c0,0.1,0,0.2-0.1,0.2c0,0-0.1,0-0.1,0c-0.3,0-1-0.6-1.8-1.2
	c-0.8-0.5-4.9-3.6-5.4-3.5c0,0-0.1,0-0.1,0.1c-0.1,1.7,0,3.3,0.4,5c0.4,1.4,0,1.8-0.4,2.8c-0.4,1-2.7,2.6-3.1,3.6
	c-0.4,1,0.7,3.1,0.8,3.9c0.2,0.7,0.2,1.4,0,2.1c-0.5,1.8-1.1,3.6-1.8,5.4c-0.1,0.2-0.2,0.4-0.3,0.4c-0.4,0-0.9-1.5-1.7-3.5
	c-0.1-0.3-0.2-0.5-0.3-0.8c-0.7-1.7-1.4-3.7-2.4-5.7c-0.2-0.5-0.5-0.9-0.7-1.4l-0.4-0.7c-0.6-1-1.3-1.9-2-2.7
	c-3.1-3.6-3.7-3.9-3.7-3.9l0,0c0,0-1.7,0.1-3.4,0.1c-0.9,0-1.8,0-2.6-0.1c-1.6-0.2-3.1-0.3-4.7-0.3c-1.5,0-3.1,0.1-4.9,0.2
	c-0.9,0.1-1.6,0.1-2.2,0.1c-1.5,0.1-3-0.4-4.2-1.3c-1.7-1.1-2.9-2.8-5.7-5.3c-0.1-0.1-0.3-0.3-0.4-0.4l-0.1-0.1
	c-0.1-0.1-0.2-0.2-0.2-0.3c0,0-0.1-0.1-0.1-0.2l-0.2-0.2l-0.1-0.2c-0.1-0.1-0.1-0.2-0.2-0.2c-0.1-0.1-0.1-0.1-0.1-0.2
	c0-0.1-0.1-0.2-0.1-0.3c0-0.1-0.1-0.1-0.1-0.2c0-0.1-0.1-0.2-0.1-0.3l-0.1-0.1c-0.1-0.1-0.1-0.3-0.1-0.4v-0.1l-0.1-0.4l0-0.2
	l-0.1-0.3c0-0.1,0-0.1,0-0.2c0-0.1,0-0.2,0-0.2c0-0.1,0-0.1,0-0.2s0-0.2,0-0.2v-0.2c0-0.1,0-0.1,0-0.2c0-0.1,0-0.1,0-0.2
	c0-0.1,0-0.1,0-0.2s0-0.1,0-0.2v-0.4l0,0c0-0.3,0-0.5,0-0.8l-16.4,9.6l-1.7,1.8v0.1l0,0c0,0.2,0,0.6,0,1.1v0.3c0,0.1,0,0.2,0,0.2
	v0.8c0,0.2,0,0.3,0,0.4l0,0c0,0.1,0,0.1,0,0.2l0,0c0,0.1,0,0.1,0,0.2l0,0c0,0.1,0,0.1,0,0.2c-0.1,0.9-0.9,1-2,1.6
	c-0.3,0.2-0.7,0.3-1.1,0.3c-0.5,0-1-0.1-1.5-0.3l0,0c0,0-0.9,0.8-2.1,1.8c-1,0.9-1.2,1.1-1.8,1.1c-0.2,0-0.4,0-0.5,0l0,0l-0.2,0
	h-0.1l-0.1-0.1h-0.1l-0.2-0.1l0,0l-0.2-0.1l-0.1,0l-0.2-0.1l-0.1,0l-0.2-0.2h0l-0.2-0.1l-0.1-0.1l-0.2-0.1l-0.1-0.1l-0.2-0.2
	l-0.1-0.1l-0.1-0.1l-0.1-0.1l-0.1-0.1l-0.1-0.1l-0.1-0.1l-0.1-0.1l0,0c-0.3-0.3-0.6-0.5-0.7-0.7c-2.1,0.9-3.7,1.8-4.5,2.6
	c-1.8,1.5-3.6,3-5.6,4.2l0.1,0.1l0,0c6.5,8,14.7,14.4,24,18.9l0,0l0.9,0.4l0,0l0.9,0.4l0,0l0.8,0.4h0.1l0.8,0.4h0.1l0.8,0.3l0.1,0
	l0.8,0.3h0.1l0.8,0.3l0.1,0l0.8,0.3l0.1,0l0.8,0.3l0.1,0l0.8,0.3l0.2,0.1l0.8,0.2l0.2,0.1l0.8,0.2l0.2,0.1l0.8,0.2l0.2,0.1
	c0.3,0.1,0.5,0.1,0.8,0.2l0.2,0.1l0.7,0.2l0.2,0.1c0.2,0.1,0.5,0.1,0.7,0.2l0.3,0.1l0.7,0.2l0.3,0.1l0.7,0.1l0.3,0.1l0.7,0.1
	l0.3,0.1l0.7,0.1l0.3,0.1l0.7,0.1l0.3,0.1l0.7,0.1l0.3,0.1l0.6,0.1l0.3,0.1l0.7,0.1l0.3,0l0.6,0.1l0.4,0l0.6,0.1l0.4,0l0.6,0.1
	l0.4,0l0.6,0h0.4l0.6,0c0.1,0,0.2,0,0.4,0h0.6h0.4h0.5h0.5h1c39.2,0,71-31.8,71-71s-31.8-71-71-71s-71,31.8-71,71c0,0.2,0,0.3,0,0.5
	c0,0.5,0,1,0,1.5C186,86.6,186,86.8,186,86.9L186,86.9z M189.1,373.4c-2,0-4,0.9-5.2,2.5c-2.7,3.7-2.7,8.7,0,12.4
	c2.4,2.9,6.8,3.3,9.7,0.8c0.3-0.3,0.6-0.6,0.9-0.9c0.7-0.8,1.2-1.8,1.5-2.8c0.3-1.1,0.5-2.3,0.5-3.4c0.1-2.2-0.7-4.4-2.1-6.2
	C193.1,374.3,191.2,373.4,189.1,373.4z M225.5,373.9h-1.3v16.3h1.3c3,0,5.2-0.7,6.5-2c1.4-1.3,2-3.4,2.1-6.1c0-2.8-0.7-4.9-2.1-6.2
	C230.6,374.5,228.5,373.9,225.5,373.9L225.5,373.9z M393.7,352.7c-0.4-0.7-1.4-0.9-1.6-1.8c-0.1-0.4-0.5-0.5-0.7-0.7h-1.5
	c-0.4,0.4-1.1,0.4-1.5,0h-1.3c-0.1,0.1-0.2,0.1-0.3,0.2c-1.2,1.5-2.7,1.8-4.5,1.1c-0.4-0.1-0.8-0.2-1.3-0.2
	c-1.8-0.2-3.4,0.4-5.1,0.6c-1.9,0.2-3.9,1.3-5.7-0.1v0.5h-0.7v-0.6h0.6l-0.1-0.1c-2.3,0.1-4.6-0.9-6.8,0c-0.3,0.1-0.6,0-0.9,0
	c-1,0.1-1.9-0.6-3-0.5c-1.3,0.4-2.6,0.7-4,0.8c-2.2,0.4-4.5,0.3-6.6-0.2c-0.7-0.2-1.6-0.5-2.1,0.4c0,0.1,0,0.3,0.1,0.4
	c0.1,0.2,0.4,0.2,0.5,0.5c-1.6-0.4-3.3,0.2-4.8-0.6c-0.1,0-0.2-0.1-0.4-0.1c-2,0.4-4.1-0.8-6.1,0.2c-0.3,0.1-0.6,0.1-0.9,0
	c-1.2-0.2-2.4-0.3-3.7-0.2c-1.1,0-2.2-0.1-3.2-0.5c-0.7-0.2-1.4-0.3-2.1-0.1c-1.4,0.4-2.9,0.4-4.4,0.2c-1.9-0.4-3.8-0.5-5.4,0.8
	c-0.2,0.2-0.5,0.2-0.7,0.1c-1.2-0.6-2.6-0.3-3.8-0.6c-0.8-0.3-1.8-0.3-2.6,0c-0.7,0.2-1.3,0.4-1.8-0.5c-0.2-0.3-0.6-0.3-0.9-0.2
	c-0.6,0.1-1.2,0.1-1.7-0.2c-0.4-0.2-0.9-0.2-1.4,0c-1.3,0.6-2.5,0.4-3.8,0.1c-0.6-0.2-1.2-0.2-1.7-0.1c-0.2,0.1-0.5,0.2-0.7,0.3
	c-3,0.4-6,0.1-8.9,0.8c-0.2,0-0.4,0-0.6-0.1c-2.1-0.7-4.2-0.5-6.3-0.5c-1.3,0.1-2.7,0-4-0.3c-0.7-0.2-1.5-0.3-2.2-0.1
	c-1.3,0.4-2.7,0.4-4,0c-0.4-0.1-0.9-0.2-1.4-0.1c-1.1,0.2-2.3,0.2-3.4,0.4c-0.1,0-0.3,0-0.4,0.1c-0.9,0.3-1.7,0.5-2.6,0.6v0.5
	l-0.8-0.1v-0.5c-1.4,0.1-2.9-0.2-4.2-0.8c-1.8-0.7-3.8-0.8-5.8-0.4c-1.2,0.2-2.4,0.4-3.6-0.1c-0.6-0.3-1.3,0-1.9,0
	c-2.2,0-4.3,0.8-6.5,0.5c-1.6-0.2-3.2,0.2-4.8,0c-0.2,0-0.4,0-0.6,0.1c-1.6,0.5-3.2,0.7-4.9,0.4c-1.8-0.3-3.7-0.3-5.5-0.1
	c-1.1,0.2-2.3,0.5-3.2-0.5c-0.2-0.2-0.5-0.2-0.7-0.1c-0.6,0.1-1.2,0-1.7-0.2c-0.4-0.2-0.9-0.2-1.3,0c-1.4,0.6-2.8,0.3-4.2,0.1
	c-0.5-0.1-1-0.1-1.5,0c-1,0.6-2,0.3-3.1,0.4c-0.5,0-1.1,0-1.6,0.1c-0.7,0.3-1.5,0.1-2.2,0.4c-0.1,0.1-0.2,0.1-0.3,0.2
	c-0.7,0.4-1.4,0.1-2.1,0c-0.1,0-0.2-0.1-0.3-0.1c-0.5,0-1-0.1-1.4-0.3c-0.6-0.2-1.2-0.3-1.8-0.3c-1,0-2,0-3.1,0
	c-0.9,0.2-1.8,0.2-2.6,0c-1.1-0.3-2.5-0.8-3.7-0.4c-1.4,0.4-2.8,0.2-4.1,0c-0.5-0.1-0.9-0.1-1.4-0.1c-1.6,0.3-3.2,0.4-4.8,0.6
	l-0.3,0v0h-0.3c-2,0.3-3.9,0.6-6-0.1c-1.3-0.5-2.7-0.6-4-0.3c-1.4,0.4-2.9,0.4-4.3,0.2c-2.3-0.2-4.6-0.2-7,0c-1.3,0.5-2.5-0.4-3.7,0
	c-2.5,0.7-5.1,0.2-7.7,0.7c-0.7,0.2-1.4,0.1-2.1-0.1c-0.8-0.3-1.6-0.3-2.4-0.1c-0.6,0.2-1.2,0.3-1.9,0.1c-0.5-0.2-1-0.2-1.5,0.1
	c-1.3,0.8-2.6,0.5-4,0.6c-0.4,0-0.2-0.2-0.1-0.3c0.1-0.1,0.1-0.2,0.2-0.3c0-0.7-0.6-0.6-1-0.6c-0.8,0-1.6,0.1-2.4,0.3
	c-2.7,0.9-5.5-0.1-8.2,0.2c-1.5,0.1-1.8,0.1-1.9,1.7v5.4c-0.1,0.9,0,1.8,0,2.7c0,0.2-0.1,0.3-0.2,0.5v1.5c0.2,0.3,0.3,0.7,0.3,1.1
	c0,0.1,0,0.2,0.1,0.3c0.1,0.4,0.1,0.8,0,1.1c-0.4,0.6,0.2,1.4-0.3,2.1v1.3c0.3,1,0,2,0.3,3.1c0,0.3,0,0.6,0,0.8c0.9,2.4,0.9,5,0,7.4
	c0,0.1-0.1,0.3-0.1,0.4c0,0.5,0,0.9-0.1,1.4c-0.1,0.7,0.1,1.5-0.1,2.2v1.3c0.4,0.6,0.2,1.2,0.3,1.9c-0.1,0.8,0.2,1.7-0.3,2.5v1.8
	c0.1,0.2,0.2,0.3,0.2,0.5c0.1,1,0,1.9,0,2.9c0,0.7,0.2,1.4,0.2,2.1c-0.1,2.7-0.4,5.4,0.3,8c0.3,1.3,0,2.6,0,3.9l0.2,0.3l-0.2,0.3
	c0,0.1,0,0.2,0,0.3c0,0.8-0.1,1.6,0.7,2.2c0.4,0.3,0.9,0.5,1.4,0.7c0.4,0.1,0.8,0.1,1.1,0.1c1.4,0.3,2.9,0.3,4.4,0
	c1.1-0.3,2.3-0.5,3.5-0.4v-0.4h0.6v0.5c0.3,0.1,0.6,0.2,0.9,0.3c0.9,0.3,1.9,0.3,2.8,0.1c2.3-0.4,4.6-0.9,7-1.2
	c0.3-0.1,0.7-0.2,0.9,0.1c0.7,1.1,1.9,1.1,3,1.2s2.3,0.6,3.5,0c0.6-0.4,1.3-0.6,2.1-0.6V413h0.8v0.2c0.3,0.1,0.5,0.1,0.8,0.2
	c1.6,0.4,3.2,0.2,4.6-0.8c0.2-0.1,0.3,0,0.5,0c1,0.2,1.9,0.2,2.9,0.1c1.6,0.1,3.3-0.2,4.9,0.4c0.5,0.3,1.1,0.1,1.5-0.3
	c0-0.1,0-0.3-0.1-0.4c0-0.2-0.9-0.4,0.1-0.5c1.1-0.1,2.2,0,3.2,0.3V412h0.6v0.5c1,0.3,2,0.3,3.1,0.1h0.1c0,0,0,0,0.1,0.1
	c0.2,0.1,0.4,0.1,0.6,0.2v-0.3h0.6v0.4c0.5,0.1,1.1,0,1.6-0.1c1.4-0.3,2.8-0.5,4,0.5c0.2,0.1,0.3,0.1,0.5,0.1c1.5,0,3.1,0.6,4.6-0.1
	c0.3-0.1,0.6-0.1,0.9,0c3.3,0.8,6.6,0.1,9.9-0.4c1.2-0.1,2.3-0.2,3.5-0.1c0.7,0.1,1.4,0.3,2.1,0.5c1.7,0.4,3.5,0,5.2,0
	c2.2,0,4.4,0.9,6.6,0c0.2-0.1,0.4,0,0.6,0.1s0.5,0.1,0.7,0.2h0.4v0.1c2.8,0.5,5.6,0,8.3-0.6c2.5-0.5,4.8-0.1,7.2,0.6
	c1.4,0.1,2.8,0.4,4.2,0.1c1.3-0.4,2.6-0.3,3.9,0.1c0.4,0.1,0.9,0.1,1.3,0c2-0.3,4-0.5,6-0.6c1.8,0.1,3.6-0.4,5.4,0
	c0.5,0,0.9,0,1.4-0.2c1.1-0.4,2.3-0.6,3.5-0.4c2.5,0.4,5,0.4,7.4,0c0.4,0,0.8,0,1.3,0.1c1.4,0,2.6,0.8,4,0.6
	c2.2-0.3,4.4,0.2,6.5-0.2c0.7-0.1,1.4-0.1,2,0.1c1.1,0.1,2.1,0.2,3.2,0.1v-0.2h0.6v0.2c0.5,0,1-0.2,1.3-0.6c0.5-0.6,1.1-0.4,1.7-0.3
	c1.9,0.5,3.9,0.6,5.8,0.3c0.8-0.2,1.5-0.8,1.9,0.5c0.1,0.2,0.3,0.3,0.4,0.2c1.3-0.3,2.5,0.6,3.7,0.4c1-0.2,2-0.3,3,0
	c0.8,0.2,1.7,0.3,2.5,0.2c2.5-0.2,4.9-0.7,7.4-0.7c1.3-0.1,2.5,0,3.8,0.1V413h0.7v0.5h-0.4l0.2,0c1.8,0.4,3.6,0.6,5.3-0.3
	c0.3-0.1,0.6-0.1,0.9,0.1c1.1,0.1,2.3,0.2,3.4,0.5c0.3,0.1,0.7,0.1,1-0.1c1.3-0.5,2.7-0.2,4,0c0.5,0.1,1,0.1,1.5,0.1
	c0.6-0.1,1.2-0.2,1.8-0.2c0.9-0.1,1.9-0.1,2.6-0.8c0.4-0.4,1-0.6,1.6-0.5c1.5,0.4,3.1,0.4,4.6,0.8c1.9,0.4,3.9,0.9,5.9,0.2
	c0.7-0.3,1.5-0.3,2.2-0.1c1,0.3,2.1,0.3,3.1,0.3c2.2-0.1,4.4-0.2,6.7-0.2c1.2,0.4,2.4,0.4,3.6,0c0.6-0.2,1.3,0,1.9-0.2
	c1.1-0.2,2.2-0.1,3.3-0.3c1.5-0.3,2.8,0.4,4.2,0.3c1.3-0.2,2.7-0.2,4-0.1c0.2-0.1,0.4-0.1,0.6-0.1l-0.2-0.4l0.3-0.4v0.8
	c1-0.1,2.1,0,3.1,0.4c0.8,0.4,1.7,0.5,2.6,0.2c1.4-0.5,3-0.7,4.5-0.6c1.3,0,2.7,0,4,0c0.8,0.1,1.6-0.4,2-1.1V410
	c-0.4-0.5-0.4-1.2,0-1.8v-1c-1-1-1-2.2-0.7-3.5c-0.1-1.3,0.5-2.5,0.4-3.8c-0.1-1.3,0-2.5,0-3.8c0-0.2-0.1-0.5-0.3-0.6
	c-0.3-0.3-0.4-0.9-0.2-1.3c0.2-0.5,0.3-1.1,0.3-1.6c0.2-3.5-0.4-7,0-10.4c0-0.3,0-0.6-0.1-0.9c-0.3-0.9-0.5-1.9-0.4-2.9
	c0-1.5,0.1-3-0.4-4.4c-0.1-0.3-0.1-0.7,0.1-1c0.1-0.1,0.1-0.3,0.1-0.4c0.1-0.8,0.1-1.5,0.1-2.3c-0.2-2.1-0.2-4.2,0-6.3
	c0.1-0.9,0.6-1.7,0.6-2.6c0.1-0.2,0.2-0.4,0.4-0.6v-1.3c-0.4-0.6-0.4-1.4,0-2v-2.1c-0.4-0.5-0.4-1.2,0-1.8L393.7,352.7z
	 M124.6,356.2h0.6v0.6h-0.6V356.2z M124.9,411.7v-0.4l1.4,0.4L124.9,411.7z M129.6,354.8h-0.8V354h0.8V354.8z M136.1,355h-0.7v-0.6
	h0.7V355z M137,411.4h-0.8v-0.7h0.8V411.4z M160.4,353.6h0.8v0.7h-0.8V353.6z M158.1,353.7v1.1l-0.9-0.4L158.1,353.7z M150.6,352.2
	h0.5v0.7h-0.5V352.2z M147,355.6h0.6v0.7H147L147,355.6z M145.3,356.4h0.7v0.7h-0.8L145.3,356.4z M144,354.2h0.6l-0.1,0.8H144V354.2
	z M141.6,356.5H141V356h0.7V356.5z M142.3,359.2h-0.5v-0.7h0.5V359.2z M143.5,411.6h-0.7V411h0.7V411.6z M149,413.1h-0.7v-0.6h0.7
	V413.1z M151.8,411.6h-0.5v-0.8h0.6L151.8,411.6z M154.9,412.9h-0.6v-0.7h0.6V412.9z M158.4,409.5h-0.5v-0.7h0.5L158.4,409.5z
	 M162.9,382c-0.5,1.3-1.3,2.4-2.3,3.3c-0.8,0.7-1.8,1.1-2.8,1.4c-1.7,0.4-3.4,0.5-5.1,0.4h-2.7v9.8h-7.1v-29.6h8
	c2.2-0.1,4.4,0.1,6.6,0.5c1.2,0.3,2.3,0.9,3.2,1.7c1,0.9,1.8,2.1,2.3,3.4C164,375.7,164,379,162.9,382L162.9,382z M163.8,353.4v-0.7
	h0.8v0.8L163.8,353.4z M164.3,355.4h0.6v0.6h-0.6V355.4z M165.4,411.3l-0.9-0.4l0.9-0.7V411.3z M168.4,410.8h-0.8v-0.7h0.8V410.8z
	 M169.2,356.5h-0.6v-0.7h0.6V356.5z M171.9,410.1l-0.8-0.1v-0.7h0.8V410.1z M202.7,354.1l0.8,0.1l-0.1,0.7h-0.7L202.7,354.1z
	 M201.4,354.1h0.7v0.7h-0.6L201.4,354.1z M190.1,353.3l0.4,0.4c-0.2-0.1-0.5-0.2-0.7-0.4C190,353.4,190,353.4,190.1,353.3
	L190.1,353.3z M189.7,354.5h0.8v0.5h-0.8V354.5z M176.8,353.4h0.7v0.6h-0.7L176.8,353.4z M176.7,357.1h0.7v0.8h-0.6L176.7,357.1z
	 M184.8,410.6h-0.8l0.1-0.6h0.7V410.6z M186.1,408.3h-0.5v-0.5h0.6L186.1,408.3z M197.8,411.6H197v-0.5h0.8V411.6z M197.2,410
	c0.1,0,0.2,0,0.2-0.1l0.4,0.4C197.7,410.3,197.4,410.1,197.2,410L197.2,410z M199.3,406.6h-0.7V406h0.7V406.6z M201.2,405.9h-0.7
	v-0.7h0.7V405.9z M203,388.1c-0.7,1.8-1.8,3.5-3.2,5c-1.4,1.4-3,2.6-4.9,3.4c-1.8,0.8-3.7,1.2-5.7,1.2c-2,0-3.9-0.4-5.7-1.2
	c-1.8-0.8-3.5-1.9-4.8-3.4c-1.4-1.4-2.5-3.1-3.2-5c-1.5-3.8-1.5-8.1,0-11.9c0.7-1.9,1.8-3.6,3.2-5c1.4-1.5,3-2.6,4.8-3.4
	c1.8-0.8,3.7-1.2,5.7-1.2c2,0,3.9,0.4,5.7,1.2c1.8,0.8,3.5,1.9,4.8,3.4c1.4,1.4,2.5,3.1,3.2,5C204.4,380,204.4,384.3,203,388.1
	L203,388.1z M205.2,407.5h-0.7v-0.6h0.7V407.5z M209.4,411.5h-0.7v-0.8h0.7V411.5z M209.8,357.5h-0.7V357h0.7V357.5z M210.7,411.5
	H210v-0.8l0.8,0.1L210.7,411.5z M210.9,405.4h-0.8v-0.5h0.8V405.4z M211.9,352.4l0.3,0.5l-0.3,0.4V352.4z M212.6,357h-0.7v-0.6h0.7
	V357z M240.2,358h0.5v0.7h-0.5V358z M239.3,355.4h0.7v0.6h-0.7V355.4z M233.8,353.8h0.7v0.6h-0.7V353.8z M227.2,353.4h0.8v0.8h-0.8
	V353.4z M223,355.6h0.6v0.6H223V355.6z M215.9,354.4V354l1.4,0.4H215.9z M219.2,409.9V409l0.3,0.5L219.2,409.9z M220,413.6h-0.7
	v-0.6h0.7V413.6z M223.2,411v-0.4l1.4,0.4H223.2z M230.9,412.8h-0.6v-0.6h0.6V412.8z M235.3,410.7h-0.8V410h0.8V410.7z M240.4,389
	c-0.9,2-2.3,3.7-4,5c-1.4,1-3,1.7-4.6,2.1c-1.7,0.4-4.4,0.7-8.1,0.7h-7.1v-29.6h5.8c4.4,0,7.5,0.2,9.2,0.6c1.7,0.4,3.3,1.1,4.7,2.2
	c1.8,1.3,3.2,3,4,5C242.3,379.5,242.3,384.6,240.4,389L240.4,389z M241.9,410.9h-0.7v-0.6h0.7V410.9z M242.9,354.4h-0.5v-0.8h0.6
	L242.9,354.4z M244.3,356.5h-0.8l0.1-0.7h0.7V356.5z M246,355.6h-0.6V355h0.6V355.6z M247.4,412.5h-0.7v-0.6h0.7L247.4,412.5z
	 M249.4,352.3H249v-0.7h0.5L249.4,352.3z M250.2,411h-0.5v-0.8h0.6L250.2,411z M251.7,413.1h-0.8l0.1-0.7h0.7V413.1z M273.9,351.8
	h0.7v0.5h-0.7V351.8z M267,355.3h0.6v0.7H267V355.3z M262.7,354.8h0.6v0.6h-0.6V354.8z M258.7,352.9h0.8v0.7h-0.8V352.9z M256.4,353
	v1.1l-0.9-0.4L256.4,353z M253.3,412.2h-0.5v-0.7h0.6L253.3,412.2z M256.8,408.9h-0.5v-0.7h0.5V408.9z M263.8,410.7l-0.9-0.4
	l0.9-0.7V410.7z M266.8,410.2h-0.8v-0.7h0.8V410.2z M270.6,411.9H270v-0.6h0.6V411.9z M269.5,409.4v-0.6h0.8v0.8L269.5,409.4z
	 M271,397.1c-1.2,0.3-2.4,0.5-3.6,0.5c-1.4,0-2.9-0.2-4.2-0.6c-1.3-0.4-2.5-1-3.5-1.7c-2-1.4-3.7-3.4-4.8-5.6
	c-1.1-2.4-1.7-5-1.6-7.6c0-2.1,0.3-4.2,1.1-6.2c0.3-0.9,0.7-1.7,1.2-2.5c0.6-0.9,1.2-1.7,1.9-2.5c1.2-1.4,2.8-2.5,4.5-3.2
	c1.7-0.7,3.6-1.1,5.5-1.1c1.2,0,2.4,0.2,3.6,0.4c1.2,0.3,2.5,0.8,3.6,1.4v8.8c-0.9-1.1-1.9-2-3.1-2.7c-1-0.5-2.2-0.8-3.4-0.8
	c-2-0.1-4,0.8-5.3,2.4c-0.5,0.5-0.8,1.1-1.1,1.8c-0.3,0.7-0.5,1.4-0.6,2.1c-0.1,0.8-0.2,1.6-0.2,2.4c-0.1,2.2,0.7,4.3,2.1,5.9
	c1.3,1.5,3.3,2.4,5.3,2.3c1.2,0,2.3-0.3,3.4-0.9c1.2-0.7,2.2-1.6,3.1-2.7v8.8C273.5,396.3,272.3,396.8,271,397.1L271,397.1z
	 M274.9,412.5h-0.6v-0.6h0.6V412.5z M275.8,357.3h-0.7v-0.8h0.7V357.3z M275.9,353.3h-0.8l0.1-0.6h0.7V353.3z M280.9,361h-0.8v-0.5
	h0.8V361z M281,355.2l-0.8-0.1l0.1-0.7h0.7V355.2z M281.9,408.9h-0.6v-0.5h0.6V408.9z M282.2,355.2h-0.7v-0.8h0.7V355.2z
	 M283.2,409.9h-0.8l0.1-0.6h0.7V409.9z M307.5,356.4h0.7v0.5h-0.7L307.5,356.4z M306.2,351.5h0.7v0.8h-0.7V351.5z M306.1,355.4h0.8
	l-0.1,0.6h-0.7V355.4z M304.8,357.6h0.5v0.5h-0.6L304.8,357.6z M301,353.5l0.8,0.1l-0.1,0.7H301V353.5z M299.7,353.5h0.7v0.8h-0.7
	V353.5z M293.1,354.3h0.8v0.5h-0.8L293.1,354.3z M288.1,353.9h0.8v0.5h-0.8L288.1,353.9z M285.8,358.5h0.7v0.6h-0.7V358.5z
	 M284.5,407.7H284v-0.5h0.6L284.5,407.7z M288.3,411.8l-0.8-0.1l0.1-0.7h0.7V411.8z M289.6,411.8h-0.7V411h0.7V411.8z M296.2,411
	h-0.8v-0.5h0.8V411z M301.3,411.4h-0.8v-0.5h0.8V411.4z M303.6,406.9h-0.7v-0.6h0.7L303.6,406.9z M307.8,410.9h-0.7v-0.8h0.7V410.9z
	 M309.1,410.9h-0.7v-0.8l0.8,0.1L309.1,410.9z M309.3,404.7h-0.8v-0.5h0.8L309.3,404.7z M304.7,396.8l-1.4-5.3h-10.8l-1.5,5.3h-7.6
	l9.6-29.6h9.5l9.7,29.6H304.7z M314.1,412.6h-0.7V412h0.8L314.1,412.6z M314.2,408.8h-0.7v-0.7h0.7V408.8z M315,353.5h-0.6v-0.7h0.6
	V353.5z M339.1,354.3h0.5v0.8H339L339.1,354.3z M337.7,352.2h0.8l-0.1,0.7h-0.7V352.2z M336,353.1h0.6v0.7H336V353.1z M332.6,356.4
	h0.5v0.7h-0.5V356.4z M325.6,354.6l0.9,0.4l-0.9,0.7V354.6z M322.5,355.1h0.8v0.7h-0.7L322.5,355.1z M318.8,353.4h0.6v0.6h-0.6
	V353.4z M319.8,356.6h-0.8v-0.8l0.8,0.1V356.6z M322.4,410.1h-0.6v-0.7h0.6L322.4,410.1z M327.2,413.2h-0.8v-0.8l0.8,0.1V413.2z
	 M326.1,410.6V410h0.6v0.6L326.1,410.6z M330.6,412.4h-0.8v-0.7h0.8L330.6,412.4z M332.9,412.3v-1l0.9,0.4L332.9,412.3z
	 M338.3,394.8c-2,1.9-4.6,2.8-7.8,2.8c-1.8,0-3.6-0.3-5.3-1c-1.7-0.8-3.3-1.9-4.6-3.3l3.4-6c1,1.2,2.1,2.2,3.4,3c1,0.6,2.1,1,3.3,1
	c0.9,0,1.8-0.3,2.5-0.9c0.6-0.5,1-1.4,1-2.2c0-0.8-0.2-1.7-0.8-2.3c-0.6-0.5-1.9-1.1-3.9-1.6c-2.7-0.8-4.6-1.8-5.8-3
	c-1.1-1.3-1.7-3-1.7-5.2c-0.2-5.1,3.7-9.4,8.8-9.6c0.3,0,0.5,0,0.8,0c1.5,0,3,0.2,4.4,0.7c1.4,0.5,2.7,1.1,3.9,2l-2.4,5.8
	c-0.8-0.7-1.7-1.3-2.7-1.8c-0.8-0.4-1.8-0.6-2.7-0.6c-0.8,0-1.6,0.2-2.2,0.7c-0.6,0.4-0.9,1.1-0.9,1.8c0,0.7,0.3,1.3,0.7,1.8
	c0.9,0.6,1.9,1,2.9,1.3h0.1c0.1,0,0.1,0,0.2,0.1c3.1,0.9,5.2,1.9,6.1,2.9c0.7,0.8,1.2,1.6,1.5,2.6c0.3,1.1,0.5,2.2,0.5,3.4
	C341.2,390.3,340.2,392.8,338.3,394.8z M342.7,353.4h-0.6v-0.6h0.6V353.4z M344,410.4h-0.6v-0.7h0.6V410.4z M345.7,409.5H345v-0.7
	h0.8L345.7,409.5z M347,411.7h-0.6l0.1-0.8h0.5L347,411.7z M348.2,355h-0.7v-0.6h0.7V355z M370.2,355.5v0.9l-0.3-0.5L370.2,355.5z
	 M366.1,354.3v0.4l-1.4-0.4H366.1z M358.4,352.6h0.6v0.6h-0.6V352.6z M354,354.6h0.8v0.8H354V354.6z M349.1,407.4h-0.5v-0.7h0.5
	V407.4z M350,410h-0.7v-0.6h0.7V410z M355.5,411.6h-0.7V411h0.7V411.6z M362.1,411.9h-0.8v-0.8h0.8V411.9z M366.3,409.7h-0.6v-0.6
	h0.6V409.7z M371.2,374.2h-6.3v22.6h-7.6v-22.6h-6.3v-7h20.1V374.2z M373.5,411.3l-1.4-0.4h1.4V411.3z M377.4,408.9h-0.7v-0.6h0.7
	V408.9z M388.9,360.1h-0.7v-0.7h0.7L388.9,360.1z M390.7,359.3H390v-0.6h0.7V359.3z M391.9,355.4l-0.4-0.4c0.2,0.1,0.5,0.2,0.7,0.4
	C392.1,355.3,392,355.4,391.9,355.4L391.9,355.4z M298.5,374.6l-0.6-2.5c-0.2,0.7-0.3,1.4-0.5,2.1c-0.1,0.7-0.4,1.3-0.5,1.9
	l-2.8,9.8h7.6l-2.8-9.8C298.8,375.8,298.7,375.4,298.5,374.6z M155.3,374.4c-0.7-0.5-2-0.8-3.8-0.8h-1.5v7h1.5
	c1.8,0,3.1-0.3,3.8-0.8c0.7-0.5,1.1-1.4,1.1-2.7C156.5,376.1,156,375.1,155.3,374.4L155.3,374.4z"/>
</svg>
