<svg id="DQVV_LOGO" data-name="DQVV LOGO" xmlns="http://www.w3.org/2000/svg" viewBox="0 0 512 428"><defs><style>.cls-1{fill:#fff;}.cls-2{fill:#efe215;}</style></defs><title>dqvv_icon</title><path class="cls-1" d="M285.4,225.2c-.4-.5-.9-1.1-1.6-1.1-1.6,0-.6,2.8-3.2,2.8a3.54,3.54,0,0,1-2.6-1c.1-.7,1.1-1.4,1.6-1.9,1.7-1.7,1.4-4.2,3.2-5.4-.2-3,1.1-4.5,1.6-7.2-.4-1.7,1-3.2,1-4.8a2,2,0,0,0-.4-1.3l.6-.5c-.1-2.1.1-4.1.1-6.1a12.37,12.37,0,0,0-1-5.4,5.66,5.66,0,0,0-.8-2.5c-.9-2.4-.4-5.5-2.7-7.3a3.84,3.84,0,0,0-1.5-2.4,17.24,17.24,0,0,0-14.4-8c-7.3,0-13.2,4.8-16.1,11.3-.7,1.8-1,3.6-1.6,5.3-.1.7-.7,1.4-.9,2.2a31.37,31.37,0,0,0-.8,8.7,18.18,18.18,0,0,0,0,3.3l1.7,10.6c.4.1,1,0,1,.5,0,.7.2.3.2,1,0,.2-.6,1.5-.4,1.7,3.4,6.5,8.4,14.2,16.7,14.2,3.1,0,5.9-1.1,8.8-2.3,1.4,2.4,4.1,1.6,6.5,2A7.72,7.72,0,0,0,285.4,225.2Zm-6-17.5,1,.4-.6.9-.9-.4Zm-29.2-4.3h-1.1v-1h1.1Zm1.2-9.7h-.9v-.9h.9Zm21.9-13.6.8.1v.5h-.8Zm-19.4,7.5.5.1v.7h-.5Zm1.5,35.2h-1.2v-1h1.2Zm.4-35.9H255v-.6h.8Zm16.1,37.3-.8-3.4.9-.2.1.2c0,.3-.1.6-.1.8l.6.3Zm1.1-5.5c-1.3-2-3.7-4.2-6.3-4.2-4.2,0-5.7,4.5-6.1,6.1-.2.9-.8,2.6.5,2.6.9,0,1.2-.4,1.7-1.1a4.1,4.1,0,0,1,1.6-1.6l.9-.1c.6-.1.5.1,1.1.3,1.5,1.7,3.3,3.2,4,5.3-1.1,2-3.4,2.3-5.4,2.2h-1.3c-4.3-2.7-6.1-10.1-6.9-14.9-.3-1.7.1-4,.1-5.8V191.8c0-1.5.6-3,.6-4.4,2-1.5.8-4,1.9-6.2.8-1.9,3.6-4.1,5.7-4.1,2.7,0,4.3,1.7,6.2,3.2a51.06,51.06,0,0,1,3.5,18.5c-.2,6.5-.1,13.5-1.8,19.9Zm2.8-33.6h-.5v-.8l.5.1ZM40.2,249.2c-.2,1.1-.4,2.1-.5,3.2,0,2.3,2.6,1.4,3.3,2.4v1.4a36.56,36.56,0,0,1-3.3,16.6c-.6,1.4-.2,3.6-1.2,4.9-.6,2.4-.7,5-1.5,7.4l.5.4h-.2c-2.1,4.6-2.3,9.9-4,14.6h-.5c.1-2.9-1.3-7.4-2.5-10.1.4-4.9-2.4-7.8-2.4-12a9.7,9.7,0,0,1,.1-1.7c-1.3-3.3-1.7-7-2.8-10.5-2-1.9-.6-5.6-1.8-8.1l.8-.8c-.9-2.4,2.6-2.1,2.6-4.4-.1-1.1-.2-2.1-.4-3.2-3.3-.3-6.8-.4-10.1-.4s-6.9.1-10.3.4c.2,1.3-.2,2.9.9,3.7,6.2.6,7.7,19.5,9.7,24.7-.5,4,1.9,7.3,1.9,11.3v.4c1.7,4.6,1.8,9.6,3.3,14.2a2.11,2.11,0,0,0-.5,1.3c0,2.2,2.3,3.7,2.3,5.3,0,3.2,1.5,5.3,1.5,7.9,0,.8-.2,1.5-.2,2.2,0,3.5,3.1,4.4,5.8,4.4h1.4a16.32,16.32,0,0,1,1.2-5.3c1.9-5,3.4-8.3,3.8-13.8.2-3.6,2.4-7,1.9-10.6l.1-.1H39l.7-.3a5,5,0,0,0,.2-1.2c0-.6-.2-1.2-.2-1.7s.7-.8,1.1-.9c-.1-1.3,0-2.3,0-3.6a5.7,5.7,0,0,0-.4-2.2c3-3.7,3-11,5-15.5l-.6-.4h.4c.7-3.1,1.9-6,2.3-9.2h.2a5.07,5.07,0,0,0,.2-1.3,2.3,2.3,0,0,0-.4-1.4l1.7-1a6.11,6.11,0,0,0-.7-1.4,2.44,2.44,0,0,0,1.2,0c1.5-1.7,4.4-1.4,4.4-4.5,0-.4-.1-.8-.1-1.2Zm-24.9,5.2H14.1v-1.3l1.2.1Zm1.6-3.9h.8v1.3h-.8Zm1.6,13.2v1.2h-.8v-1.3Zm.1,6.3H17.5v-1.3l1.2.1Zm5.3,6.1-.8-.1.1-1.2H24Zm4,15.6h.8l-.1,1.3h-.8Zm1.4,2.2v1.3l-.8-.1v-1.2Zm-.2,28.2-.7-.1v-1.2h.7Zm.3-21.8-1.2-.1.1-1.2h1.1Zm5.4,6H34V305h.8Zm11.6-50.5-.6,1.9.4-2.6h1.1Zm4.8-2.7-1.4.5c1.2-.8,1.5-1.7,2.6-1.7Zm454.6,5.8-5.9-.2a2.92,2.92,0,0,1-.9.2,22.68,22.68,0,0,0-2.5-.6,1.94,1.94,0,0,0-1.7,1v.3c-.2,2.5,3.6,1.7,3.9,3.4a8.75,8.75,0,0,0-.2,1.6c-.1,2.7.9,5.3.8,8a3.89,3.89,0,0,1-.2,1.5,4.25,4.25,0,0,1,.2,1.1c0,.9-.2,1.9-.3,2.9,0,.5.1,1.2.6,1.4v.2a4.42,4.42,0,0,1-.6,1.6c.9,1,.2,6.2.9,7.4,0,.2-.1.8-.4.8-.7,0-.6-1.1-.7-1.6-1.3-1.2-1.6-3.1-2.5-4.4-1.7-.8-.6-4.1-2.5-5,0-1.8-1.9-3.5-2.3-5.2a.83.83,0,0,1-.8-.3c.2-.2.3-.3.3-.5,0-.5-1.3-1.1-1.3-2.2l.1-.2c-1.4-1.7-1.7-4.3-3.6-5.6l.3-.3c-.3-1-1.6-1.6-1.6-2.6h-.6a3.11,3.11,0,0,0-3.3-2.5c-1.7-.1-3.4.4-5.1.4a8,8,0,0,1-1.5-.3c-.1.4-.1.7-.2,1.1-.1,2,2.2,1,3.2,2.5-.4,1.9.9,2.8.9,4.3a1.76,1.76,0,0,1-.6,1.3,9.91,9.91,0,0,1,.4,3.4c-.1,1.5.2,3.3.1,4.5,0,1.7-.2,2.7.5,4.4l-.6.6c1.3,7.3-.7,15,.1,22.5-.9,3.9-3.6,2.1-3.6,4.2v1.4a4.51,4.51,0,0,1,2.5-.5,10.82,10.82,0,0,0,4-.1,2.92,2.92,0,0,1,.9-.2c1.3.1,2.5,1.6,3.5.3,0-.3.1-.4.1-.6,0-1.6-1.7-1.6-2.7-2.6l-.2.3c-1.5-1.3-1.3-4.5-1.7-6.4.2-.3.5-.6.5-.8a.66.66,0,0,0-.4-.5l.6-6.6a2.51,2.51,0,0,1-.2-1.5c0-.8.2-1.9-.6-2.3a1,1,0,0,0,.6-.8c0-.4-.2-.8-.2-1.2a19.45,19.45,0,0,1,.5-2c0-1.5-.8-3.1-.7-4.6s.7-5,.9-6.5c1.9,2.5,3.4,6.2,5.1,9-.1.3-.3.3-.5.3s0,.3-.2.4c2.2.8,2.3,3.8,3.9,4.4-.1.2-.2.3-.4.3l-.4-.1a28.28,28.28,0,0,0,3.8,5.9.48.48,0,0,0-.2.6c.2.2.3,1,.4,1v-.1c.4,1.5,2.3,2.5,2.3,3.6a2.43,2.43,0,0,0,1.4,2.4l-.2.4.6.4a.6.6,0,0,1-.6.3h.2a3.28,3.28,0,0,1,.7,2.4c2,1,1.5,5.5,3.6,5.5a1.16,1.16,0,0,0,1.3-1.1,1.42,1.42,0,0,0-.2-.6c0-7.3.2-14.5.2-21.7l-.6-.7.4-.2h.2l-.1-2.9c-.1-1.7-.5-4.4-.4-6.2a4.65,4.65,0,0,1,.6-2.3,3.94,3.94,0,0,1-.6-2.1,4.57,4.57,0,0,0-.2-2c.3-2.9-.2-5.3,1.2-7.9.6-1.1,2.6-.8,2.6-1.9a1.55,1.55,0,0,0-.1-1Zm-30.4,49.2-.3-.1v-.3h.3Zm3.7-9.9h-.3v-.4l.4.1Zm5.2,10.3h.5l-.1.5-.4-.1Zm-3.9-38.7h-.6v-.7h.6Zm0-2h-.6v-.6h.6Zm.6,1.5h-.4v-.4h.5Zm.1-3.8-.5-.1V265h.5Zm1.3-5.4h.5v.5h-.5Zm1,11.2H483v-.5h.5Zm-.2-3.1-1.2-1.6h.6l.3.6c1,0,.8.5.3,1Zm6.6,15.6h-.3v-.4h.3Zm1.3,1.6h.5v.3h-.5Zm0,3.2-.4-.9h.6l.6,1.8Zm6.7,8h-.5l.1-.4h.4Zm3.1,11.8h-.3V308l.4.1ZM311.7,249.2c-.2,1.1-.4,2.1-.5,3.2,0,2.3,2.6,1.4,3.3,2.4v1.4a36.56,36.56,0,0,1-3.3,16.6c-.6,1.4-.2,3.6-1.2,4.9-.6,2.4-.7,5-1.5,7.4l.5.4h-.2c-2.1,4.6-2.3,9.9-4,14.6h-.5c.1-2.9-1.3-7.4-2.5-10.1.4-4.9-2.4-7.8-2.4-12a9.7,9.7,0,0,1,.1-1.7c-1.3-3.3-1.7-7-2.8-10.5-2-1.9-.6-5.6-1.8-8.1l.8-.8c-.9-2.4,2.6-2.1,2.6-4.4-.1-1.1-.2-2.1-.4-3.2-3.3-.3-6.8-.4-10.1-.4s-6.9.1-10.3.4c.2,1.3-.2,2.9.9,3.7,6.2.6,7.7,19.5,9.7,24.7-.5,4,1.9,7.3,1.9,11.3v.4c1.7,4.6,1.8,9.6,3.3,14.2a2.11,2.11,0,0,0-.5,1.3c0,2.2,2.3,3.7,2.3,5.3,0,3.2,1.5,5.3,1.5,7.9,0,.8-.2,1.5-.2,2.2,0,3.5,3.1,4.4,5.8,4.4h1.4a16.32,16.32,0,0,1,1.2-5.3c1.9-5,3.4-8.3,3.8-13.8.2-3.6,2.4-7,1.9-10.6l.1-.1h-.1l.7-.3a5,5,0,0,0,.2-1.2c0-.6-.2-1.2-.2-1.7s.7-.8,1.1-.9a21.64,21.64,0,0,1,0-3.6,5.7,5.7,0,0,0-.4-2.2c3-3.7,3-11,5-15.5l-.6-.4h.4c.7-3.1,1.9-6,2.3-9.2h.2a5.07,5.07,0,0,0,.2-1.3,2.3,2.3,0,0,0-.4-1.4l1.7-1a6.11,6.11,0,0,0-.7-1.4,2.44,2.44,0,0,0,1.2,0c1.5-1.7,4.4-1.4,4.4-4.5,0-.4-.1-.8-.1-1.2Zm-24.9,5.2h-1.2v-1.3l1.2.1Zm1.6-3.9h.8v1.3h-.8Zm1.6,13.2v1.2h-.8v-1.3Zm.1,6.3H289v-1.3l1.2.1Zm5.4,6.1-.8-.1.1-1.2h.8Zm3.9,15.6h.8l-.1,1.3h-.8Zm1.4,2.2v1.3l-.8-.2v-1.2Zm-.2,28.2-.7-.1v-1.2h.7Zm.3-21.8-1.2-.1.1-1.2h1.1Zm5.4,6h-.8V305h.8Zm11.6-50.5-.6,1.9.4-2.6h1.1Zm4.8-2.7-1.4.5c1.2-.8,1.5-1.7,2.6-1.7Zm145.5,52.2-.2-.1v.1l-.2-.3h-.1l.1-.7c-1.6.3-.8-.5-1.7-1.2,0-3-2-5.1-2-8.1a6.47,6.47,0,0,1,.4-2,5,5,0,0,1-1.2-2.4c0-2.2-1.1-3.8-1.1-6.1a4.28,4.28,0,0,1,.6-2.2H462c-.2-1.2-1.4-2.6-1.4-3.8a.6.6,0,0,1,.1-.4h.1l-.2-.9-.2.1c-.1-.4.1-.9-.2-1.4-1.3-2.3-1-5-2.3-7.3a1.8,1.8,0,0,0-.4-1.6c-1-2.5-.9-5.3-1.9-7.8l-.6.2c-.2-.8-1.2-1.1-1.8-1.1l-.5.1c-1.7,2-.8,5.5-2.5,6.7.2.2.3.4.5.6h-.1c-.6.5-1.7,3.8-1.7,4.6v.3h-.1c-.2,2.7-1.7,5-1.7,7.8v.3c-.5.9-.8,4.4-1.7,4.4-.3,0-.3.4-.6.3l.6.5-.7.8.6.4c-.9,1.5-.8,3.2-.9,5l-.2.1v.6a1.15,1.15,0,0,0-.6.9v.1a39337323868259.18,39337323868259.18,0,0,0-.8,1.6c-.3.9-.3,2-.6,3.1a56,56,0,0,1-2,7l-.7-.8c.5,3.3-2,2.3-2.9,4.6,0,.3-.1.5-.1.8a.87.87,0,0,0,.6.9l1.1.1a4.48,4.48,0,0,0,2-.4,8.75,8.75,0,0,0,3.6.5,17.85,17.85,0,0,0,2.3-.2,2.62,2.62,0,0,0,1-2.3l-.1-.7a2.71,2.71,0,0,0-2.5-1.1h-.2a2.49,2.49,0,0,1-.1-.8c0-1,.4-2.1.4-3.1a2.2,2.2,0,0,0-.1-.8c1.3-1.9.6-2.5,2.5-4.4-.9.3-.4-.4-.8-.6.2-.4.7-.8.7-1.5a33.75,33.75,0,0,1,8.2-.1c.6,1.2,2.5,4.6,2.4,5.9a6,6,0,0,0,.6,1.9c-.2.4-.3.4-.3.9,0,1,.4,1.9-.8,2.1v.8l-.2.1c-.5,0-.9-.1-1.4-.1a2.47,2.47,0,0,1,.4.9c0,.5-.6,1-.6,1.8a1.27,1.27,0,0,0,1.1,1.1h12.9l1.2-1.3C469.4,307,469.8,305.2,468.2,305.3Zm-26.9,1.3-.5.4v-.8l.5-.1ZM454,266.7c.4,0,.5.3.5.7-.2-.1-.5-.2-.7-.3Zm-.7.2h0v.8l.4-.6.7.3c0,.5-.1,1,.4,1.1-.9.2-.6-.8-1.6-.7Zm1.8,12.5.4.5h-1.1l.2-.5Zm-2.8-11.8.2,1.1c-.1.1-1.2-1.9-.2-1.1Zm-.3,1.8-1.2-.1-.3-.4Zm-5.7,15.5v-.5h.6l.6.5Zm7.4,5.3a5.84,5.84,0,0,1-1.8.4,11,11,0,0,1-3.1-.4l-.4.4-.6-.6.1-.2c0-.1-.1-.4-.1-.5,0-.8.4-1.4.4-2a2.92,2.92,0,0,0-.2-.9c.3-1.1,1.2-2.4,1.2-3.5a5.85,5.85,0,0,0-.2-1.3c1.4,0,.2-1,1.3-1.6-.2-1.5.8-2.2.8-3.4a16.21,16.21,0,0,0,.3-2c.4.6,1.5,3.3,1.3,4.1l.4.1v.9H453a1.8,1.8,0,0,1,.4.9l-.2.4c1.3,1.5.9,4.2,2,5.9l-.4.3c.6,1.7-.2,1.5,1.1,3.3-.4.1-1.9.1-2.2-.3Zm2.3-26.5h-1.1v-1.3H456Zm1.1,16.6-.5,1.1V280l.9-.2Zm-.2-5.5.2-.6.5-.1.2.7Zm1.2,14.5-.4-.5-.2-.9,1.3-.1Zm.9-11h.6l-.3,1.5-.2-.6v-.9Zm1.1,5.4a3,3,0,0,1-1-.4h1.1ZM127.5,294.9a2,2,0,0,0-1.3-1.5c-.9,0-1.3,1.1-1.3,1.9,0,1,.1,1.3-.6,2.1l.5.2v1.1c-.1.7-.2,1.4-.3,2-.6.6-1.4,3.2-2.2,3.1-.5.3-1.2.3-1.2,1a7.4,7.4,0,0,1-3.6.9c-2-.1-3.8.3-5.8.3a4,4,0,0,1-2.6-1c.2-4.4,0-8.7.1-13.1h.3l.1-1.1a5.28,5.28,0,0,1-.4-2.5c0-1.1.2-2.2.2-3.3,1.4,0,2.8-.1,4.3-.1,2.9.2.6,7.7,3.2,7.9.6,0,1.3-.9,1.6-1.5a28.84,28.84,0,0,1,.2-4.2,4.48,4.48,0,0,0-.8-3.4,6.37,6.37,0,0,0,1-1.8c-.2-.2-.4-.2-.4-.6s.5-.4-.2-.7l-.6-.2.2-.3c.2-.1.1-.3.4.1l.6.4-.4-6.2a1.42,1.42,0,0,0-.6-.2h-.1l.6-.6-2.5-.1a22.11,22.11,0,0,0-.5,2.5c0,1.8.4,3.4-1.1,4.7-1.3-.3-2.4.5-3.6.4a2.1,2.1,0,0,1-1.1-.4,6.46,6.46,0,0,0,.4-1.9c0-1.3-.3-2.5-.2-3.9,0-.7.3-1.3.3-1.9a1.28,1.28,0,0,0-.4-1h.4a7.89,7.89,0,0,1-.6-3.4c0-1.4.5-3.5-.1-4.7a9.38,9.38,0,0,1,.6-1.5c1.1.2,2.2-.3,3.3-.3.2,0,.4.1.6.1a16.15,16.15,0,0,1,3.1-.2,8,8,0,0,1,4.9,1.8l-.2.3,1.8,1.5c.2.2.2.9.2,1-.1,1,.4,1.6.4,2.5.2,1.9-.1,3.6,2,4.3v-.7h.8a4,4,0,0,0,.3-1.5,3,3,0,0,1,.4-2.1l-.5-.8c.2-1.1-.5-2.1-.5-3.2s-.6-1.6-.6-2,.4-.4.6-.5a1.23,1.23,0,0,1-.5-1c0-.7.2-.9-.3-1.5-.9-.1-2-.7-2.9-.7a1.21,1.21,0,0,0-1,.3,10.5,10.5,0,0,0-3.5-.8c-2-.1-4,.3-6,.2a9.29,9.29,0,0,1-2.9-.5l-.4.5a9.82,9.82,0,0,0-3.4-.3c-2.1-.1-4.2-.4-6.3-.5a5.83,5.83,0,0,0-2.3.3,3.17,3.17,0,0,0-.4,1.6c-.1,2.8,4.5,1.5,4.9,3.2.6,3.8,0,8.2.1,12.1s.6,7.8.4,11.9v.8h-.4c.2,4.1.5,8.5.3,12.7a20.55,20.55,0,0,0-.2,3.5v.5a10.29,10.29,0,0,1-2.7,1.5l-.2-.3a2.43,2.43,0,0,0-2,2.1,2,2,0,0,0,.4,1.3c5.6-.3,11.2-.2,16.9-.1,2.3,0,4.7-.3,7-.2,1.7.1,3.2-.8,4.9-.8a2.77,2.77,0,0,1,1.3.3c-.1-2.6.4-5.3.5-7.9,0-.8-.2-1.7-.2-2.5a12,12,0,0,1,.5-3.3Zm-22.9-29.2.3.1v.3h-.3Zm0,7.9.4.1v.4h-.4Zm-1.1,3.7c0-.1.1-.2.1-.3l.8.9c-.2-.2-.9-.2-.9-.6Zm.2,1.2v.4l-.5-.1.1-.3Zm.4,1.5.4.1-.1.3h-.3Zm-.1-6.8h0l.5-.1v.1Zm.3-9.6-.2.3c-.1-.1-.2-.3-.4-.3Zm-1.2,12.3h.5l-.1.5-.4-.1Zm-.8-14.7H102v-.5h.3Zm1.2,43H103v-.4h.5Zm.4,1.2h-.4v-.5h.5ZM104,284h.3v.5H104Zm.6,8.8h-.4v-.5h.5Zm.5-9.1h-.3v-.4h.3Zm.2-19.2h-.4V264h.4Zm.1-.9v-.4h.3v.4Zm.5,3.6-.1.4h-.3v-.5Zm.1,17.4h-.5l.1-.5h.4Zm-.1-15.9-.4-.1v-.5h.5Zm.1-5.5h.4l-.1.5H106Zm.2,3.2h.4v.4l-.4-.1ZM107,278h-.5v-.5l.5.1Zm.3-4.9h0v.5H107v-.9h.4Zm.2-3h-.4l.1-.4h.3Zm.1-3.8h-.3V266h.3Zm.5,26.3h-.4v-.5h.4Zm.6-18h-.3V274h.3Zm14.4,30.9h-.5v-.3h.5Zm1,.4h-.3v-.5h.3Zm1.1,1.8h-.7v-.4l.7.1Zm0-3.6h-.5l.1-.3h.4Zm1-9.4h.5v.5h-.5Zm.4,8.9h-.4v-.4l.4.1Zm.5-1.8h-.4V301h.4Zm.3-5.1H127v-.4h.4ZM357.6,259a21.59,21.59,0,0,1-5.1-.2,4,4,0,0,0-.9,2.1,1.23,1.23,0,0,0,.5,1,1.09,1.09,0,0,0,1,.7h.9a2.88,2.88,0,0,1,1.1,2.6c0,1.1-.2,2.1-.2,3.2,0,.8.3,1.4.3,2.1,0,1-.3,2.1.1,3l.2.1-.6.3c.2,2.9.8,6.3.8,9.2-.1,1.6-.2,3.1-.4,4.7h-.2c0,.3-.1.6-.1.9,0,.8.1.8-.6,1.5a1.93,1.93,0,0,0,1,.3h.1l-.7.8a2,2,0,0,1,.6,1.5c0,1.1-.7,2-.7,3.2,0,.6.3,1.1.3,1.7,0,1.4-.9,2.6-.9,4a.9.9,0,0,0,.1.5c-1.9,3.2-4,3.8-7.7,3.8-2.9,0-4.8-2.6-6.1-5.1v-.5h-.1l.3-.3-.2-.7a5.93,5.93,0,0,0,.5-2.3,2.52,2.52,0,0,0-.9-2,6.57,6.57,0,0,0,.8-3.4c0-2.1-.4-4.1-.4-6.2,0-1.1.4-2,.4-3.2a4.15,4.15,0,0,0-.3-1.6c.2-1.8-.4-3.5-.4-5.3,0-.9.2-1.6,1.2-1.9a8.21,8.21,0,0,1-1.2-4.3c0-9.7,2.7-4.8,5.5-7.5a3.19,3.19,0,0,0,.3-1.4,1.51,1.51,0,0,0-.9-1.4l-15.3-.1-.9.8c-.1.3-.1.6-.2.9,0,.7.9.9.9,1.4v.2l.8.1v-.1c.2.3.6.3.9.3.5,0,1.7-.3,1.9.3a2,2,0,0,0-1.6.7l1.5.8v11l-.6.7a5.83,5.83,0,0,1,.6,2.6c0,1.3-.2,2.5-.2,3.8a6.9,6.9,0,0,0,.4,2.5,6.6,6.6,0,0,0-.6,2.7c0,2,.7,3.8.7,5.8a6.75,6.75,0,0,1-.2,1.4H333c0,1,.5,1.9.5,2.8a1.74,1.74,0,0,1-.6,1.2c1.3,2.2.6,4.7,3.1,6.3l.6-.6c.2.3.5.6.7.9-.8,2.5,1.9,1.6,2.1,3.2a32.33,32.33,0,0,0,7.6,1c1.7,0,4.8-.3,6.3-1.4,5-3.3,5.3-8.4,5.4-13.9h.4v-14c0-1.7.2-4,.2-5.6a3,3,0,0,0-.5-1.5,16.55,16.55,0,0,0,.3-3.2,17.85,17.85,0,0,0-.2-2.3h0l.5-.5-.5-1.9c.5-1.7,1.1-2.9,2.9-3,.2-.8.9-1.4.9-2.1-.1-1.5-4.1-1.1-5.1-1.1Zm-2.7,2.7h-.4v-.4h.4Zm-16.2,13.6.4.1v.4h-.4Zm-.3,7.7h.3v.3h-.3Zm-.4-6h.4l-.1.5H338Zm-2-6.1h.5v.4H336Zm-.4,9.3h-.3v-.3h.3Zm.5,21.7-.3-.1v-.3h.3Zm.1-21.9.1-.5h.4v.5Zm.3,12.7h.5l-.1.3h-.4Zm.8,9h-.5v-.5h.5Zm0-19.4h-.5V282h.5Zm.4,21.7h-.4v-.3h.4Zm.3-24.6h-.4v-.3h.4Zm.6,21.8-.5-.1v-.3h.5Zm.2-2h-.3v-.5h.3Zm.5,5.9H339v-.3h.3Zm.3-7.7h-.5v-.3h.5Zm16.7-8.1h-.4v-.5l.6-1Zm.5-21.4h-.3v-.4h.3Zm3.1-7.4h-.4v-.3h.4ZM196.7,305.4l-.2-.1v.1l-.2-.3h-.1l.1-.7c-1.6.3-.8-.5-1.7-1.2,0-3-2-5.1-2-8.1a4.48,4.48,0,0,1,.4-2,5,5,0,0,1-1.2-2.4c0-2.2-1.1-3.8-1.1-6.1a4.28,4.28,0,0,1,.6-2.2h-.9c-.2-1.2-1.4-2.6-1.4-3.8a.6.6,0,0,1,.1-.4h.1l-.2-.9-.2.1c-.1-.4.1-.9-.2-1.4-1.3-2.3-1-5-2.3-7.3a1.8,1.8,0,0,0-.4-1.6c-1-2.5-.9-5.3-1.9-7.8l-.6.2c-.2-.8-1.2-1.1-1.8-1.1l-.5.1c-1.7,2-.8,5.5-2.5,6.7.2.2.3.4.5.6H179c-.6.5-1.7,3.8-1.7,4.6v.3h-.1c-.2,2.7-1.7,5-1.7,7.8v.3c-.5.9-.8,4.4-1.7,4.4-.3,0-.3.4-.6.3l.6.5-.7.8.6.4c-.9,1.5-.8,3.2-.9,5l-.2.1v.6a1.15,1.15,0,0,0-.6.9v.1a2,2,0,0,0-.4.8,2,2,0,0,0-.4.8c-.3.9-.3,2-.6,3.1a56,56,0,0,1-2,7l-.7-.8c.5,3.3-2,2.3-2.9,4.6,0,.3-.1.5-.1.8a.87.87,0,0,0,.6.9l1.1.1a4.48,4.48,0,0,0,2-.4,8.75,8.75,0,0,0,3.6.5,17.85,17.85,0,0,0,2.3-.2,2.62,2.62,0,0,0,1-2.3l-.1-.7a2.71,2.71,0,0,0-2.5-1.1h-.2a2.49,2.49,0,0,1-.1-.8c0-1,.4-2.1.4-3.1a2.2,2.2,0,0,0-.1-.8c1.3-1.9.6-2.5,2.5-4.4-.9.3-.4-.4-.8-.6.2-.4.7-.8.7-1.5a28.28,28.28,0,0,1,4.1-.3,27.48,27.48,0,0,1,4.1.2c.6,1.2,2.5,4.6,2.4,5.9a6,6,0,0,0,.6,1.9c-.2.4-.3.4-.3.9,0,1,.4,1.9-.8,2.1v.8l-.2.1c-.5,0-.9-.1-1.4-.1a2.47,2.47,0,0,1,.4.9c0,.5-.6,1-.6,1.8a1.27,1.27,0,0,0,1.1,1.1h12.9l1.2-1.3c-.9-.8-.5-2.6-2.1-2.4Zm-26.9,1.2-.5.4v-.8l.5-.1Zm12.7-39.9c.4,0,.5.3.5.7-.1,0-.4-.2-.7-.3Zm-.7.2h0v.8l.4-.6.7.3c0,.5-.1,1,.4,1.1-.9.2-.6-.8-1.6-.7Zm1.8,12.6.4.5h-1.1l.2-.5Zm-2.8-11.9.2,1.1c-.1.1-1.3-1.9-.2-1.1Zm-.2,1.8-1.2-.1-.3-.4Zm-5.8,15.5v-.5h.6l.6.5Zm7.4,5.3a5.84,5.84,0,0,1-1.8.4,11,11,0,0,1-3.1-.4l-.4.4-.6-.6.1-.2c0-.1-.1-.4-.1-.5,0-.8.4-1.4.4-2a2.92,2.92,0,0,0-.2-.9c.3-1.1,1.2-2.4,1.2-3.5a5.85,5.85,0,0,0-.2-1.3c1.4,0,.2-1,1.3-1.6-.2-1.5.8-2.2.8-3.4.1-.7.2-1.4.3-2,.4.6,1.5,3.3,1.3,4.1l.4.1v.9h-.1a3.55,3.55,0,0,1,.4.9l-.2.4c1.3,1.5.9,4.2,2,5.9l-.4.3c.6,1.7-.2,1.5,1.1,3.3-.5.1-1.9.1-2.2-.3Zm2.3-26.5h-1.1v-1.3h1.1Zm1.1,16.6-.5,1.1V280l.9-.2Zm-.2-5.5.2-.6.5-.1.2.7Zm1.3,14.5-.4-.5-.2-.9,1.3-.1Zm.8-11h.6l-.3,1.5-.2-.6v-.9Zm1.1,5.4a3,3,0,0,1-1-.4h1.1Zm-27.4,8.2c-.9,0-1.7.2-2.5.2a1.64,1.64,0,0,1-1-.2c-.1.9.5,1.6.5,2.4s-1.1.8-1.2,1.7h.8a4.1,4.1,0,0,1,.1,1.1c0,2.1-1.1,4.5-1.7,6.5a4.21,4.21,0,0,1-4.4,2.9,40.45,40.45,0,0,1-4.9-.4c-.1,0-.5,0-.5-.2s.1-.3-.2-.3a2.92,2.92,0,0,0-.9.2,5.66,5.66,0,0,1-1.2-1.5v-.8c-.1-1.4.2-2.8.2-4.3,0-2.5-.4-5.1-.4-7.7a3.72,3.72,0,0,0,.2-1.8c0-1.2-.2-2.4-.2-3.5a4.14,4.14,0,0,1,.2-1.6c.1-2.1.2-4.2.2-6.2,0-4.6-.2-9.1-.6-13.7a1.33,1.33,0,0,0,.3-.8,2.77,2.77,0,0,1,.9.1l-.5-.9a2.56,2.56,0,0,1,1.9-.4c1.5,0,1.7-.9,2.1-2.3l-.7-1.4c-3.2,0-5.8.1-8.9.1a40.05,40.05,0,0,1-6,0,1.39,1.39,0,0,1,.5,1c0,.3-.2.7-.2,1.1,0,1.1,1.3,1.3,2.1,1.3h.4c2,1.1.8,3,1.8,4.4h-.5a12.48,12.48,0,0,0,.2,2.1,47.08,47.08,0,0,0-.3,5.3c0,3.7.1,7.3.1,10.9,0,2,.2,3.8.2,5.8a1,1,0,0,1-.1.3c.4,0,1.7,0,1.7.6s-1.2.6-1.5.9c0,.7.8.3.8.9,0,.3-.2.7-.2,1.1,0,.1,0,.1.2.1v.2c-.2,0-.7-.9-.9-.9a.1.1,0,0,0-.1.1v2.4a5.07,5.07,0,0,0,.4,2.4,2.1,2.1,0,0,0-.4,1.1,6.46,6.46,0,0,0,.4,1.9l-.4.1-.1,1.6a7.39,7.39,0,0,1-2.5,1.7c-.7.8-1.7,1.5-1.7,2.6a5,5,0,0,0,.2,1.2,3.54,3.54,0,0,0,1.1.3c.8,0,1.4-.5,2.1-.5a1.27,1.27,0,0,1,.6.1,4.25,4.25,0,0,1,1.1-.2c.4,0,.7.3,1,.3a2.67,2.67,0,0,0,1.4-.7c1,.2,2,.9,3,1a18.88,18.88,0,0,0,4.1.3c3.1,0,5.9-1.3,8.7-1.3.9,0,2,.4,2.8.4.3,0,.7-.3,1.2-.3l.6.1,1.1-4.2-.2-2,.6-2c-.6-1.3-1.6-2.7-1.6-4.2,0-.3.1-.9.4-.9s.7.4,1,.4a.22.22,0,0,0,.2-.2c0-1,.2-2,.2-3.1,0-.5-.6-.7-1.1-.7Zm-14.7-31.5h.5v.5h-.6Zm-9.6,2.4v-.6h.5l.2,2.5Zm2.5,5.3h.5v.6h-.5Zm.4,6.9h.5v.7h-.5Zm1,9.9h-.6v-.5l.6.1Zm.6,3.4h.5v.5h-.5Zm.7,10.9h-.6v-.7l.6.1Zm.7-17.1-.6-.1v-.6h.6Zm4.1,25.2h-.5v-.4h.5Zm1.6.5h-.6v-.6h.6Zm9.9-6-1.5,1.7.9-2.1h.6Zm11.1-78.1c.6-1.3.7-1.4,2.2-1.8l-.8-.6.6-.6-.3-.3c2.5-3.2,4.5-11.4,4.9-15.6-.5.1-1.2.1-1.2-.6,0-2,1.2-4.1,1.1-6.2v-.4c-1.8-2.1-.6-5-2-7.3l.3-.2c-.6-1.7-.8-4.1-2.2-5.3l.2-.4c-.9-.9-1.5-2.5-2.7-3.2l.1-.2a3.94,3.94,0,0,1-1.4-2.5v-.2c-2.8-.8-5.2-4.1-8.2-4h-.4a8.81,8.81,0,0,0-3.3-.6c-2.6.1-5.1.8-7.5-.5a4.84,4.84,0,0,1-2.6.7c-1.4,0-2.8-.5-4.1-.4a4.53,4.53,0,0,0-1.6.3,1.69,1.69,0,0,0-1-.3c-.9,0-1.7.6-2.7.6a1.71,1.71,0,0,1-1.3-.7,12.06,12.06,0,0,0-2.1,2.4l.8,2a1.66,1.66,0,0,0,1.2.5c.8,0,1.4-.7,2-.7.1,0,.3-.4.4-.3l.2.2-.5.7c2.1,1.1,2.9,2.1,3,4.6a7.42,7.42,0,0,1-.5,2.5,11.33,11.33,0,0,1-.1,2.6,2.84,2.84,0,0,0,.4,1.2,7.84,7.84,0,0,0-.2,2.2c.1,1.1.6,3.8-.9,3.8H139a16.41,16.41,0,0,0,1.6,2.9,31.33,31.33,0,0,0-.2,5.3c0,1.7-.4,3.8.4,5.4-.2.7.4,3.4-.5,3.5a2.35,2.35,0,0,1-.8-.2,7.86,7.86,0,0,1,1.5,3.7c0,1.2-.5,2.4-.4,3.6v.6a.91.91,0,0,0-.4.8,1.85,1.85,0,0,0,.2.7l-.4.8.6.6c0,.4.2.7.2,1.1s-.5.6-.8.8l-1.4.3c.2.1,1.1.7,1.1.9,0,0-.7.6-.7,1.1v.2a2.92,2.92,0,0,1-.9.2c-1.5,0-3.8-.5-3.7,1.8a1.49,1.49,0,0,0,.2.9l-1.1,1.3c2.9-.1,5.6.5,8.5.4a7.1,7.1,0,0,0,3.5-.7,47.4,47.4,0,0,0,7.5.6c3.4-.1,6.8-.5,9.7-2.2,1.7-.3,6.3-4.8,6.8-5.8Zm-.4-11h.7v1h-.7Zm-27-8.8.1-1.3h.4v.8h.6v.5Zm1.2,24.2h-.9v-1h.5v.5h.4Zm4.9-6.2h-1.3v-1h1.3Zm1.2,1.4-.5-.1v-1h.5Zm15.6-2-.4.5-.7-.4-.1-.6.2-.6,1,.1Zm-1.5-2.2c-.5,1.5-2.4,2-2.5,4.7-.6.9-2.7.6-2.6,2.1-1,.4-2.1,1.4-3.2,1.5a.6.6,0,0,1-.4-.1.71.71,0,0,1-.6.3c-.5,0-.8-.1-1.2-.1a1,1,0,0,0-.5-.4h-.4a.89.89,0,0,0-.8.5h-1.2V227c-.2-7.4,1.1-14.9.9-22.3a43.73,43.73,0,0,0-.6-7.2,6.45,6.45,0,0,0,.3-2,9.85,9.85,0,0,0-.2-1.7,6.26,6.26,0,0,0,.3-2.7c0-1.3-.3-2.6-.3-3.9a11.85,11.85,0,0,1,.5-3.2,2.22,2.22,0,0,1-.8-1.3c0-.7.3-1.4.3-2.1a5,5,0,0,0-.2-1.2v-1.6a6.28,6.28,0,0,1,1.9-.3,9.9,9.9,0,0,1,7.1,2.9c.1,1.1,1,1.1,1.8,1.6,1.4,2.4,3,4.1,3.1,7v1.1c1,2.4,2.5,5.8,2.5,8.4.1,2.4-1.5,4.2-1.4,6.6A41.17,41.17,0,0,1,163.5,219.1Zm2.8-29.6v-1h.4l.5,1.7Zm208.9,41.4c-.1-3.1.5-6.1.6-9.2,0-.9-.2-2-.2-2.9a12.09,12.09,0,0,1,.6-3.8l-.5-.1a2.27,2.27,0,0,0-1.7-1.7c-1.1,0-1.6,1.3-1.6,2.2a2.88,2.88,0,0,1-.7,2.5l.6.2v1.3a20,20,0,0,1-.4,2.4c-.8.7-1.8,3.7-2.8,3.6-.6.4-1.5.3-1.5,1.2a11.42,11.42,0,0,1-4.4,1.1c-2.5-.1-4.7.4-7.2.3a5.16,5.16,0,0,1-3.3-1.2c.3-5,0-10.1.1-15.1h.4l.1-1.3a5.76,5.76,0,0,1-.5-2.9c0-1.3.3-2.6.3-3.8,1.8,0,3.6-.1,5.3-.1,3.7.2.8,8.9,3.9,9.1.8,0,1.7-1,2-1.7a37,37,0,0,1,.2-4.8,4.86,4.86,0,0,0-1-3.9,10.71,10.71,0,0,0,1.3-2.1c-.3-.2-.5-.2-.5-.7s.6-.5-.3-.8l-.7-.2.2-.4c.3-.1.1-.3.5.1l.7.5-.5-7.2a1.88,1.88,0,0,0-.8-.2h-.1l.7-.7-3.2-.1a15.94,15.94,0,0,0-.6,3c0,2.1.5,3.9-1.4,5.4-1.7-.4-3,.6-4.5.5a2.39,2.39,0,0,1-1.4-.5,7.85,7.85,0,0,0,.5-2.2c0-1.5-.4-3-.3-4.5,0-.8.4-1.5.4-2.2a1.85,1.85,0,0,0-.5-1.2h.5a7.54,7.54,0,0,1-.7-3.9c0-1.6.6-4-.1-5.4.3-.6.4-1.2.7-1.8,1.4.2,2.8-.3,4.1-.3.3,0,.5.1.8.1a17,17,0,0,1,3.9-.2,9.81,9.81,0,0,1,6.1,2.1l-.3.3,2.3,1.7c.3.2.2,1,.2,1.2-.1,1.2.5,1.9.5,3,.2,2.2-.1,4.1,2.5,4.9v-.8h1a5.84,5.84,0,0,0,.4-1.8,3.31,3.31,0,0,1,.5-2.4l-.6-.9c.2-1.3-.6-2.4-.6-3.7s-.7-1.9-.7-2.4c.1-.3.5-.5.7-.6-.3-.3-.7-.7-.6-1.2,0-.8.2-1-.4-1.8-1.2-.1-2.5-.8-3.7-.8a2.08,2.08,0,0,0-1.3.3,16.5,16.5,0,0,0-4.3-.9c-2.5-.1-4.9.3-7.5.2a11.93,11.93,0,0,1-3.7-.6l-.5.6a12.24,12.24,0,0,0-4.2-.4c-2.7-.1-5.2-.5-7.9-.6a7.19,7.19,0,0,0-2.9.3,4.14,4.14,0,0,0-.5,1.9c-.1,3.3,5.6,1.7,6.1,3.7.8,4.4,0,9.5.1,14s.7,9.1.5,13.7v.9h-.5a142.36,142.36,0,0,1,.4,14.6,26.93,26.93,0,0,0-.3,4v.5a15.87,15.87,0,0,1-3.4,1.8l-.2-.3a3,3,0,0,0-2.5,2.5,2.69,2.69,0,0,0,.5,1.5c7-.4,14-.2,21-.1,2.9,0,5.8-.3,8.7-.2,2.2.1,4-.9,6.1-.9.9.1,1.4.2,2,.3Zm-.1-8h-.5v-1h.5Zm-.1-6.4h.5v.5H375Zm-1-1.8h.6v.6H374Zm0,9.8.5.1v.4H374Zm-26.9-43.3.4.1v.4h-.4Zm0,9.1.5.1v.5h-.5Zm-1.3,4.2c0-.1.1-.2.1-.3l1,1c-.3-.2-1.1-.2-1.1-.7Zm.2,1.5v.5l-.6-.1.1-.4Zm.5,1.7.5.1-.1.4h-.4Zm-.1-7.9v-.1h.6v.1Zm.4-11.1-.3.3c-.2-.1-.3-.3-.5-.4Zm-1.5,14.2h.6l-.1.6-.5-.1Zm-1-16.9h-.4v-.6h.4Zm1.4,49.7h-.6v-.5h.6Zm.6,1.4h-.5v-.6h.6Zm.1-24.8h.4v.6h-.4Zm.7,10.2h-.5v-.6h.6Zm.7-10.6h-.4v-.5h.4Zm.2-22.2h-.5v-.6h.5Zm.2-1v-.5h.4v.5Zm.5,4.2-.1.5h-.4v-.6Zm.1,20.1h-.6l.1-.6h.5Zm-.1-18.5-.5-.1v-.5h.6Zm.1-6.3h.5l-.1.6h-.4Zm.2,3.8h.5v.5l-.5-.1Zm1.1,13.3h-.6v-.6l.6.1Zm.4-5.6h-.4l.4.1v.5h-.4v-1.1h.5Zm.2-3.5h-.5l.1-.5h.4Zm.1-4.4h-.4v-.4h.4Zm.7,30.4H351v-.6h.5Zm.7-20.8h-.4v-.6h.4Zm17.9,35.8h-.6v-.4h.6Zm1.2.5h-.4v-.6h.4Zm1.5,2h-.9v-.5l.9.1Zm0-4.1h-.6l.1-.4h.5Zm26.3,69.3a2,2,0,0,0-1.3-1.5c-.9,0-1.3,1.1-1.3,1.9,0,1,.1,1.3-.6,2.1l.5.2v1.1c-.1.7-.2,1.4-.3,2-.6.6-1.4,3.2-2.2,3.1-.5.3-1.2.3-1.2,1a7.4,7.4,0,0,1-3.6.9c-2-.1-3.8.3-5.8.3a4,4,0,0,1-2.6-1c.2-4.4,0-8.7.1-13.1h.3l.1-1.1a5.28,5.28,0,0,1-.4-2.5c0-1.1.2-2.2.2-3.3,1.4,0,2.9-.1,4.3-.1,2.9.2.6,7.7,3.2,7.9.6,0,1.3-.9,1.6-1.5a28.84,28.84,0,0,1,.2-4.2,4.48,4.48,0,0,0-.8-3.4,6.37,6.37,0,0,0,1-1.8c-.2-.2-.4-.2-.4-.6s.5-.4-.2-.7l-.6-.2.2-.3c.2-.1.1-.3.4.1l.6.4-.4-6.2a1.42,1.42,0,0,0-.6-.2h-.1l.6-.6-2.5-.1a22.11,22.11,0,0,0-.5,2.5c0,1.8.4,3.4-1.1,4.7-1.3-.3-2.4.5-3.6.4a2.1,2.1,0,0,1-1.1-.4,12.86,12.86,0,0,0,.4-1.9c0-1.3-.3-2.5-.2-3.9,0-.7.3-1.3.3-1.9a1.28,1.28,0,0,0-.4-1h.4a7.89,7.89,0,0,1-.6-3.4c0-1.4.5-3.5-.1-4.7a9.38,9.38,0,0,1,.6-1.5c1.1.2,2.2-.3,3.3-.3.2,0,.4.1.6.1a16.15,16.15,0,0,1,3.1-.2,8,8,0,0,1,4.9,1.8l-.2.3,1.8,1.5c.2.2.2.9.2,1-.1,1,.4,1.6.4,2.5.2,1.9-.1,3.6,2,4.3v-.7h.8a4,4,0,0,0,.3-1.5,3,3,0,0,1,.4-2.1l-.5-.8c.2-1.1-.5-2.1-.5-3.2s-.6-1.6-.6-2,.4-.4.6-.5a1.23,1.23,0,0,1-.5-1c0-.7.2-.9-.3-1.5-.9-.1-2-.7-2.9-.7a1.21,1.21,0,0,0-1,.3,10.5,10.5,0,0,0-3.5-.8c-2-.1-4,.3-6,.2a9.29,9.29,0,0,1-2.9-.5l-.4.5a9.82,9.82,0,0,0-3.4-.3c-2.1-.1-4.2-.4-6.3-.5a6.08,6.08,0,0,0-2.3.3,3.17,3.17,0,0,0-.4,1.6c-.1,2.8,4.5,1.5,4.9,3.2.6,3.8,0,8.2.1,12.1s.6,7.8.4,11.9v.8h-.4c.2,4.1.5,8.5.3,12.7a20.55,20.55,0,0,0-.2,3.5v.5a10.29,10.29,0,0,1-2.7,1.5l-.2-.3a2.43,2.43,0,0,0-2,2.1,2,2,0,0,0,.4,1.3c5.6-.3,11.3-.2,16.9-.1,2.3,0,4.7-.3,7-.2,1.7.1,3.2-.8,4.9-.8a2.77,2.77,0,0,1,1.3.3c-.1-2.6.4-5.3.5-7.9,0-.8-.2-1.7-.2-2.5a12,12,0,0,1,.5-3.3Zm-23-29.2.3.1v.3h-.3Zm0,7.9.4.1v.4h-.4Zm-1.1,3.7c0-.1.1-.2.1-.3l.8.9c-.2-.2-.9-.2-.9-.6Zm.2,1.2v.4l-.5-.1.1-.3Zm.4,1.5.4.1-.1.3h-.3Zm-.1-6.8h0l.5-.1v.1Zm.3-9.6-.2.3c-.1-.1-.2-.3-.4-.3Zm-1.2,12.3h.5l-.1.5-.4-.1Zm-.7-14.7h-.3v-.5h.3Zm1.1,43h-.5v-.4h.5Zm.5,1.2h-.4v-.5h.5Zm0-21.4h.3v.5h-.3Zm.6,8.8h-.4v-.5h.5Zm.5-9.2h-.3v-.4h.3Zm.2-19.2h-.4v-.5h.4Zm.2-.8v-.4h.3v.4Zm.4,3.6-.1.4H377v-.5Zm.1,17.4H377l.1-.5h.4Zm-.1-16-.4-.1v-.4h.5Zm.1-5.4h.4l-.1.5h-.3Zm.2,3.2h.4v.4l-.4-.1Zm.8,11.5H378v-.5l.5.1Zm.4-4.8h0v.5h-.3v-.9h.4Zm.1-3h-.4l.1-.4h.3Zm.1-3.9h-.3v-.3h.3Zm.6,26.3h-.4V292h.4Zm.5-18h-.3V274h.3Zm14.4,31h-.5v-.3h.5Zm1,.4h-.3v-.5h.3Zm1.2,1.8H396v-.4l.7.1v.3Zm0-3.6h-.5l.1-.3h.4Zm.9-9.4h.5v.5h-.5Zm.4,8.9h-.4v-.4l.4.1Zm.5-1.8h-.4V301h.4Zm.3-5.1h-.4v-.4h.4Zm-147.3,4.1a1.4,1.4,0,0,1,.3-.9c-1.5-2.5-4.5-3.1-7-3.2-1.1,1-2.9,1.8-2.8,3.6l.1.4a3.61,3.61,0,0,0-.6,2c0,1.3,1.3,5.8,2.6,5.8s2.2-1.2,3.3-1.2a1.61,1.61,0,0,1,.9.3c0,5.2-2.3,8.4-6.1,11.4.2.2-.1.8-.1,1a1.19,1.19,0,0,0,.5.9c.4-.3.9-1.2,1.5-1.2s1.4,0,1.4-.8a33.79,33.79,0,0,0,5.5-4.5,27.25,27.25,0,0,0,2.1-9.7,19.42,19.42,0,0,0-.2-2.4c-.3-.7-1.4-.6-1.4-1.5Zm-5.9,5.2v-.5l.4-1.1.2,1.6Zm1.9-2h-.4v-.6h.4Zm-19.2-45.4a2.92,2.92,0,0,1-.9.2,22.68,22.68,0,0,0-2.5-.6,1.94,1.94,0,0,0-1.7,1v.3c-.2,2.5,3.6,1.7,3.9,3.4a8.75,8.75,0,0,0-.2,1.6c-.1,2.7.9,5.3.8,8a3.89,3.89,0,0,1-.2,1.5,4.25,4.25,0,0,1,.2,1.1c0,.9-.2,1.9-.3,2.9,0,.5.1,1.2.6,1.4v.2a4.42,4.42,0,0,1-.6,1.6c.9,1,.2,6.2.9,7.4,0,.2-.1.8-.4.8-.7,0-.6-1.1-.7-1.6-1.3-1.2-1.6-3.1-2.5-4.4-1.7-.8-.6-4.1-2.5-5,0-1.8-1.9-3.5-2.3-5.2a.83.83,0,0,1-.8-.3c.2-.2.3-.3.3-.5,0-.5-1.3-1.1-1.3-2.2l.1-.2c-1.4-1.7-1.7-4.3-3.6-5.6l.3-.3c-.3-1-1.6-1.6-1.6-2.6H213a3.11,3.11,0,0,0-3.3-2.5c-1.7-.1-3.4.4-5.1.4a8,8,0,0,1-1.5-.3c-.1.4-.1.7-.2,1.1-.1,2,2.2,1,3.2,2.5-.4,1.9.9,2.8.9,4.3a2.23,2.23,0,0,1-.6,1.3,9.91,9.91,0,0,1,.4,3.4c-.1,1.5.2,3.3.1,4.5,0,1.7-.2,2.7.5,4.4l-.6.6c1.3,7.3-.7,15,.1,22.5-.9,3.9-3.6,2.1-3.6,4.2v1.4a4.51,4.51,0,0,1,2.5-.5,10.86,10.86,0,0,0,4-.1,2.92,2.92,0,0,1,.9-.2c1.3.1,2.5,1.6,3.5.3,0-.3.1-.4.1-.6,0-1.6-1.7-1.6-2.7-2.6l-.2.3c-1.5-1.3-1.3-4.5-1.7-6.4.2-.3.5-.6.5-.8a.66.66,0,0,0-.4-.5l.6-6.6a2.51,2.51,0,0,1-.2-1.5c0-.8.2-1.9-.6-2.3a1,1,0,0,0,.6-.8c0-.4-.2-.8-.2-1.2a19.45,19.45,0,0,1,.5-2c0-1.5-.8-3.1-.7-4.6s.7-5,.9-6.5c1.9,2.5,3.4,6.2,5.1,9-.1.3-.3.3-.5.3s0,.3-.2.4c2.2.8,2.3,3.8,3.9,4.4-.1.2-.2.3-.4.3l-.4-.1a28.28,28.28,0,0,0,3.8,5.9.48.48,0,0,0-.2.6c.2.2.3,1,.4,1v-.1c.4,1.5,2.3,2.5,2.3,3.6a2.43,2.43,0,0,0,1.4,2.4l-.2.4.6.4a.6.6,0,0,1-.6.3h.2a3.28,3.28,0,0,1,.7,2.4c2,1,1.5,5.5,3.6,5.5a1.22,1.22,0,0,0,1.3-1.1,1.42,1.42,0,0,0-.2-.6c0-7.3.2-14.5.2-21.7l-.6-.7.4-.2h.2l-.1-2.9c-.1-1.7-.5-4.4-.4-6.2a4.65,4.65,0,0,1,.6-2.3,3.94,3.94,0,0,1-.6-2.1,4.57,4.57,0,0,0-.2-2c.3-2.9-.2-5.3,1.2-7.9.6-1.1,2.6-.8,2.6-1.9a2.39,2.39,0,0,0-.2-.9ZM203.9,308l-.3-.1v-.3h.3Zm3.7-9.9h-.3v-.4l.4.1Zm5.2,10.3h.5l-.1.5-.4-.1Zm-3.9-38.7h-.6V269h.6Zm0-2h-.6v-.6h.6Zm.6,1.5h-.4v-.4h.5Zm.1-3.8-.5-.1V265h.5Zm1.3-5.3h.5v.5h-.5Zm1,11.2h-.4v-.5h.5Zm-.2-3.1-1.2-1.6h.6l.3.6c1,0,.8.5.3,1Zm6.5,15.6h-.3v-.4h.3Zm1.4,1.6h.5v.3h-.5Zm0,3.2-.4-.9h.6l.6,1.8Zm6.7,8h-.5l.1-.4h.4Zm3,11.8H229V308l.4.1Zm-47.5-40.6Zm271.5,0Zm-20.7,24.1c-.9,0-1.7.2-2.5.2a1.64,1.64,0,0,1-1-.2c-.1.9.5,1.6.5,2.4s-1.1.8-1.2,1.7h.8a4.1,4.1,0,0,1,.1,1.1c0,2.1-1.1,4.5-1.7,6.5a4.21,4.21,0,0,1-4.4,2.9,40.45,40.45,0,0,1-4.9-.4c-.1,0-.5,0-.5-.2s.1-.3-.2-.3a4.4,4.4,0,0,0-1,.2,5.66,5.66,0,0,1-1.2-1.5v-.8c-.1-1.4.2-2.8.2-4.3,0-2.5-.4-5.1-.4-7.7a3.72,3.72,0,0,0,.2-1.8c0-1.2-.2-2.4-.2-3.5a4.14,4.14,0,0,1,.2-1.6c.1-2.1.2-4.2.2-6.2,0-4.6-.2-9.1-.6-13.7a1.33,1.33,0,0,0,.3-.8,2.77,2.77,0,0,1,.9.1l-.5-.9a2.56,2.56,0,0,1,1.9-.4c1.5,0,1.7-.9,2.1-2.3L419,259c-3.2,0-5.8.1-9,.1a40.05,40.05,0,0,1-6,0,1.39,1.39,0,0,1,.5,1c0,.3-.2.7-.2,1.1,0,1.1,1.3,1.3,2.1,1.3h.4c2,1.1.8,3,1.8,4.4h-.5a12.48,12.48,0,0,0,.2,2.1,47.08,47.08,0,0,0-.3,5.3c0,3.7.1,7.3.1,10.9,0,2,.2,3.8.2,5.8a1,1,0,0,1-.1.3c.4,0,1.7,0,1.7.6s-1.2.6-1.5.9c0,.7.8.3.8.9,0,.3-.2.7-.2,1.1,0,.1,0,.1.2.1v.2c-.2,0-.7-.9-.9-.9a.1.1,0,0,0-.1.1v2.4a5.07,5.07,0,0,0,.4,2.4,2.1,2.1,0,0,0-.4,1.1,6.46,6.46,0,0,0,.4,1.9l-.4.1-.1,1.6a7.39,7.39,0,0,1-2.5,1.7c-.7.8-1.7,1.5-1.7,2.6a1,1,0,0,0,.6,1.4,1.1,1.1,0,0,0,.8,0c.8,0,1.4-.5,2.1-.5a1.27,1.27,0,0,1,.6.1,4.25,4.25,0,0,1,1.1-.2c.4,0,.7.3,1,.3a2.67,2.67,0,0,0,1.4-.7c1,.2,2,.9,3,1a18.88,18.88,0,0,0,4.1.3c3.1,0,5.9-1.3,8.7-1.3.9,0,2,.4,2.9.4.3,0,.7-.3,1.2-.3l.6.1,1.1-4.2-.2-2,.6-2c-.6-1.3-1.6-2.7-1.6-4.2,0-.3.1-.9.4-.9s.7.4,1,.4a.22.22,0,0,0,.2-.2c0-1,.2-2,.2-3.1C433.8,292.1,433.2,291.9,432.6,291.9ZM418,260.4h.6v.5H418Zm-9.6,2.4v-.6h.5l.2,2.5Zm2.5,5.3h.5v.6h-.5Zm.4,6.9h.5v.7h-.5Zm1.1,9.9h-.6v-.5l.6.1Zm.5,3.4h.5v.5h-.5Zm.7,10.9H413v-.7l.6.1Zm.7-17.1-.6-.1v-.6h.6Zm4.2,25.2H418v-.4h.5Zm1.5.5h-.6v-.6h.6Zm9.9-6-1.5,1.7.9-2.1h.6ZM211,231.5c2.2.1,4-.9,6.1-.9a5.08,5.08,0,0,1,1.7.3c-.1-3.1.5-6.1.6-9.2,0-.9-.2-2-.2-2.9a12.09,12.09,0,0,1,.6-3.8l-.5-.1a2.27,2.27,0,0,0-1.7-1.7c-1.1,0-1.6,1.3-1.6,2.2a2.88,2.88,0,0,1-.7,2.5l.6.2v1.3a20,20,0,0,1-.4,2.4c-.8.7-1.8,3.7-2.8,3.6-.6.4-1.5.3-1.5,1.2a11.42,11.42,0,0,1-4.4,1.1c-2.5-.1-4.7.4-7.2.3a5.16,5.16,0,0,1-3.3-1.2c.3-5,0-10.1.1-15.1h.4l.1-1.3a5.76,5.76,0,0,1-.5-2.9c0-1.3.3-2.6.3-3.8,1.8,0,3.6-.1,5.3-.1,3.6.2.8,8.9,3.9,9.1.8,0,1.7-1,2-1.7a37,37,0,0,1,.2-4.8,4.86,4.86,0,0,0-1-3.9,10.71,10.71,0,0,0,1.3-2.1c-.3-.2-.5-.2-.5-.7s.6-.5-.3-.8l-.7-.2.2-.4c.3-.1.1-.3.5.1l.7.5-.5-7.2a1.88,1.88,0,0,0-.8-.2h-.1l.7-.7-3.2-.1a15.94,15.94,0,0,0-.6,3c0,2.1.5,3.9-1.4,5.4-1.7-.4-3,.6-4.5.5a2.39,2.39,0,0,1-1.4-.5,7.85,7.85,0,0,0,.5-2.2c0-1.5-.4-3-.3-4.5,0-.8.4-1.5.4-2.2a1.85,1.85,0,0,0-.5-1.2h.5a7.54,7.54,0,0,1-.7-3.9c0-1.6.6-4-.1-5.4.3-.6.4-1.2.7-1.8,1.4.2,2.8-.3,4.1-.3.3,0,.5.1.8.1a16.45,16.45,0,0,1,3.8-.2,9.81,9.81,0,0,1,6.1,2.1l-.3.3,2.3,1.7c.3.2.2,1,.2,1.2-.1,1.2.5,1.9.5,3,.2,2.2-.1,4.1,2.5,4.9v-.8h1a5.84,5.84,0,0,0,.4-1.8,3.31,3.31,0,0,1,.5-2.4l-.6-.9c.2-1.3-.6-2.4-.6-3.7s-.7-1.9-.7-2.4c.1-.3.5-.5.7-.6-.3-.3-.7-.7-.6-1.2,0-.8.2-1-.4-1.8-1.2-.1-2.5-.8-3.6-.8a2.08,2.08,0,0,0-1.3.3,16.5,16.5,0,0,0-4.3-.9c-2.5-.1-4.9.3-7.5.2a10.88,10.88,0,0,1-3.6-.6l-.5.6a12.24,12.24,0,0,0-4.2-.4c-2.7-.1-5.2-.5-7.9-.6a7.19,7.19,0,0,0-2.9.3,4.14,4.14,0,0,0-.5,1.9c-.1,3.3,5.6,1.7,6.1,3.7.8,4.4,0,9.5.1,14s.7,9.1.5,13.7v.9h-.5a142.36,142.36,0,0,1,.4,14.6,26.93,26.93,0,0,0-.3,4v.5a15.87,15.87,0,0,1-3.4,1.8l-.2-.3a3,3,0,0,0-2.5,2.5,2.69,2.69,0,0,0,.5,1.5c7-.4,14-.2,21-.1C205.2,231.7,208.2,231.4,211,231.5Zm7.7-8.6h-.5v-1h.5Zm-.1-6.4h.5v.5h-.5Zm-1-1.8h.6v.6h-.6Zm0,9.8.5.1v.4h-.5Zm-1.6.7h.5v.4h-.6Zm-.4,4,.9.1v.4h-.9Zm-1-2.1h.4v.6h-.4Zm-1.4-.3h.6v.4h-.6Zm-22.5-45.6.4.1v.4h-.4Zm0,9.1.5.1v.5h-.5Zm-1.2,4.2c0-.1.1-.2.1-.3l1,1c-.4-.2-1.2-.2-1.1-.7Zm.1,1.5v.5l-.6-.1.1-.4Zm.5,1.6.5.1-.1.4h-.4Zm-.1-7.8v-.1h.6v.1Zm.4-11.1-.3.3c-.2-.1-.3-.3-.5-.4ZM189,192.9h.6l-.1.6-.5-.1Zm-1-17h-.4v-.6h.4Zm1.3,49.8h-.6v-.5h.6Zm.6,1.4h-.5v-.6h.6Zm.1-24.8h.4v.6H190Zm.7,10.2h-.5v-.6h.6Zm.7-10.6H191v-.5h.4Zm.2-22.2h-.5v-.6h.5Zm.2-1v-.5h.4v.5Zm.6,4.2-.1.5h-.4v-.6Zm.1,20.1h-.6l.1-.6h.5Zm-.1-18.5-.5-.1v-.5h.6Zm.1-6.3h.5l-.1.6h-.4Zm.2,3.7h.5v.5l-.5-.1Zm1.1,13.3h-.6v-.6l.6.1Zm.4-5.6h-.4l.4.1v.5h-.4v-1.1h.5Zm.2-3.4h-.5l.1-.5h.4Zm.1-4.5h-.4v-.4h.4Zm.7,30.4h-.5v-.6h.5Zm.6-20.8h-.4v-.6h.4ZM86.1,259a21.59,21.59,0,0,1-5.1-.2,4,4,0,0,0-.9,2.1,1.23,1.23,0,0,0,.5,1,1.09,1.09,0,0,0,1,.7h.9a2.88,2.88,0,0,1,1.1,2.6c0,1.1-.2,2.1-.2,3.2,0,.8.3,1.4.3,2.1,0,1-.3,2.1.1,3l.2.1-.6.3c.2,2.9.8,6.3.8,9.2-.1,1.6-.2,3.1-.4,4.7h-.2c0,.3-.1.6-.1.9,0,.8.1.8-.6,1.5a1.93,1.93,0,0,0,1,.3H84l-.7.8a2,2,0,0,1,.6,1.5c0,1.1-.7,2-.7,3.2,0,.6.3,1.1.3,1.7,0,1.4-.9,2.6-.9,4a.75.75,0,0,0,.1.5c-1.9,3.2-4,3.8-7.7,3.8-2.9,0-4.7-2.6-6.1-5.1v-.4h-.1l.3-.3-.2-.7a5.93,5.93,0,0,0,.5-2.3,2.52,2.52,0,0,0-.9-2,6.57,6.57,0,0,0,.8-3.4c0-2.1-.4-4.1-.4-6.2,0-1.1.4-2,.4-3.2a4.15,4.15,0,0,0-.3-1.6c.2-1.8-.4-3.5-.4-5.3,0-.9.2-1.6,1.2-1.9a8.21,8.21,0,0,1-1.2-4.3c0-9.7,2.7-4.8,5.5-7.5a3.19,3.19,0,0,0,.3-1.4,1.51,1.51,0,0,0-.9-1.4l-15.3-.1-.9.8c-.1.3-.1.6-.2.9,0,.7.9.9.9,1.4v.2l.8.1v-.1c.2.3.6.3.9.3.5,0,1.7-.3,1.9.3a2,2,0,0,0-1.6.7l1.5.8v11l-.5.7a5.83,5.83,0,0,1,.6,2.6c0,1.3-.2,2.5-.2,3.8a6.9,6.9,0,0,0,.4,2.5,6.6,6.6,0,0,0-.6,2.7c0,2,.7,3.8.7,5.8a6.75,6.75,0,0,1-.2,1.4h-.3c0,1,.5,1.9.5,2.8a1.74,1.74,0,0,1-.6,1.2c1.3,2.2.6,4.7,3.1,6.3l.6-.6c.2.3.5.6.7.9-.8,2.5,1.9,1.6,2.1,3.2a32.33,32.33,0,0,0,7.6,1c1.7,0,4.8-.3,6.3-1.4,5-3.3,5.3-8.4,5.4-13.9h.4v-14c0-1.7.2-4,.2-5.6a3,3,0,0,0-.5-1.5,16.55,16.55,0,0,0,.3-3.2,9.08,9.08,0,0,0-.3-2.3h0l.5-.5-.5-1.9c.5-1.7,1.1-2.9,2.9-3,.2-.8.9-1.4.9-2.1.1-1.6-4-1.2-4.9-1.2Zm-2.7,2.7H83v-.4h.4ZM67.2,275.3l.4.1v.4h-.4Zm-.3,7.7h.3v.3h-.3Zm-.4-6h.4l-.1.5h-.3Zm-2-6.1H65v.4h-.5Zm-.4,9.3h-.3v-.3h.3Zm.5,21.7-.3-.1v-.3h.3Zm.1-21.9.1-.5h.4v.5Zm.3,12.7h.5l-.1.3H65Zm.7,9h-.5v-.5h.5Zm0-19.4h-.5V282h.5Zm.5,21.7h-.4v-.3h.4Zm.3-24.6h-.4v-.3h.4Zm.6,21.8-.5-.1v-.3h.5Zm.2-2H67v-.5h.3Zm.5,5.9h-.3v-.3h.3Zm.3-7.7h-.5v-.3h.5Zm16.7-8.1h-.4v-.5l.6-1Zm.5-21.4H85v-.4h.3Zm3.1-7.4H88v-.3h.4Zm239.9-77.4-.6-2.2c.6-2,1.4-3.4,3.7-3.5.2-.9,1.2-1.6,1.1-2.4-.2-2.2-5.2-1.7-6.4-1.7a34,34,0,0,1-6.4-.2,4.42,4.42,0,0,0-1.1,2.4,1.43,1.43,0,0,0,.6,1.2,1.21,1.21,0,0,0,1.3.8h1.2a3.42,3.42,0,0,1,1.4,3.1c0,1.3-.3,2.5-.3,3.7,0,.9.4,1.6.4,2.5,0,1.2-.4,2.4.1,3.5l.2.1-.7.4c.3,3.4,1,7.3,1,10.7a49.26,49.26,0,0,1-.5,5.4H323c0,.4-.1.7-.1,1.1,0,1,.1,1-.7,1.8a2.77,2.77,0,0,0,1.3.3h.1l-.9.9a3.37,3.37,0,0,1,.8,1.7c0,1.3-.9,2.4-.9,3.6,0,.7.4,1.3.4,2,0,1.6-1.1,3.1-1.1,4.6a1.27,1.27,0,0,0,.1.6c-2.4,3.7-5,4.3-9.6,4.3-3.6,0-5.9-3.1-7.6-5.9v-.6h-.1l.4-.4-.2-.8a6,6,0,0,0,.6-2.7,2.68,2.68,0,0,0-1.2-2.3,6.9,6.9,0,0,0,1-3.9c0-2.5-.5-4.7-.5-7.2,0-1.3.5-2.4.5-3.6a4.06,4.06,0,0,0-.4-1.9c.3-2.1-.5-4-.5-6.1,0-1.1.3-1.9,1.5-2.2a8.81,8.81,0,0,1-1.5-4.9c0-11.2,3.4-5.5,6.9-8.7a4.19,4.19,0,0,0,.4-1.6,1.71,1.71,0,0,0-1.1-1.6l-19-.1-1.2.9a4.25,4.25,0,0,0-.2,1.1c0,.8,1.1,1.1,1.1,1.6v.2l1,.1V177c.2.4.7.4,1.1.4.6,0,2.1-.3,2.4.4a2.27,2.27,0,0,0-2,.8l1.9.9v12.7l-.8.8a6.5,6.5,0,0,1,.8,3.1c0,1.5-.3,3-.3,4.4a7.89,7.89,0,0,0,.5,3,7.11,7.11,0,0,0-.7,3.2c0,2.3.9,4.4.9,6.7a8.75,8.75,0,0,1-.2,1.6h-.4c0,1.2.6,2.2.6,3.3a2.25,2.25,0,0,1-.8,1.4c1.6,2.6.7,5.4,3.8,7.3l.8-.7c.3.3.6.7.9,1-1,3,2.4,1.9,2.7,3.7a50.4,50.4,0,0,0,9.5,1.2c2.2,0,6-.4,7.9-1.6,6.2-3.8,6.6-9.7,6.7-16.1h.5V198.3c0-2,.3-4.6.3-6.5a2.72,2.72,0,0,0-.6-1.7,14.72,14.72,0,0,0,.4-3.6,12.41,12.41,0,0,0-.3-2.7h0A.72.72,0,0,1,328.3,183.1Zm.1-8.4h.5v.4h-.5Zm-5.7,1.9h-.5v-.5h.5Zm-20.2,15.7.5.1v.4h-.5Zm-.3,8.9h.4v.4h-.4Zm-.6-7h.5l-.1.6h-.4Zm-2.5-7h.6v.4h-.6Zm-.5,10.7h-.4v-.4h.4Zm.6,25.1-.4-.1v-.4h.4Zm.2-25.3.1-.6h.5v.6Zm.4,14.6h.6l-.1.4h-.5Zm.9,10.5h-.6v-.6h.6Zm0-22.4h-.6V200h.6Zm.6,25h-.5V225h.5Zm.4-28.4h-.5v-.4h.5Zm.7,25.2-.6-.1v-.4h.6Zm.3-2.3h-.4v-.6h.4Zm.5,6.8h-.4v-.4h.4Zm.4-8.9H303v-.4h.6Zm20.8-9.3h-.5v-.6l.7-1.2Zm.6-24.8h-.4v-.5h.4Z"/><path class="cls-2" d="M231.2,108.5a24.09,24.09,0,0,0,6.5-3.5l1.5-1.2,6-3.5q.9-1.2,1.5-2.1h0l.1-.1h0c.9-1.3,2.2-5,3-7.2a13,13,0,0,1-2.3-1.8h0a5.66,5.66,0,0,0-1.8.3c-.6.1-1.3.4-2,.5-.5,1.9-1.2,4.5-1.5,5.3-.4,1.3-3.1,4.7-6.3,7.5l-.4.4-.1.1-.3.3-.2.2-.3.3-.2.2-.3.3-.2.2-.2.3-.2.2c-.1.1-.2.2-.2.3l-.2.2-.2.3-.2.2-.2.3-.2.2-.2.3-.2.2-.2.3-.1.2-.3.3c0,.1-.1.1-.1.2l-.2.3c0,.1-.1.1-.1.2s-.1.1-.2.2-.1.1-.1.2l-.1.2-.1.2-.1.1h0l-.3.4ZM186,86.9v1.6a2.77,2.77,0,0,0,.1.9V90a2.2,2.2,0,0,0,.1.8,1.08,1.08,0,0,0,.1.6l.1.8a1.27,1.27,0,0,0,.1.6c0,.2.1.5.1.8s.1.4.1.6.1.5.1.8l.1.6c0,.3.1.5.1.8s.1.4.1.6.1.5.1.8l.1.6.2.8c0,.2.1.4.1.6l.2.8.1.6c.1.3.1.5.2.8a1.49,1.49,0,0,1,.1.6,3.09,3.09,0,0,0,.2.8,4.17,4.17,0,0,0,.2.6c.1.2.1.5.2.8a4.17,4.17,0,0,0,.2.6,1.88,1.88,0,0,1,.2.8c.1.3.1.4.2.5l.2.8c.1.2.1.4.2.5l.3.8.2.5.3.8.2.5.3.8c.1.2.1.3.2.5a6.89,6.89,0,0,1,.3.8l.2.5c.1.3.2.5.3.8l.2.5a3,3,0,0,0,.4.8,2.57,2.57,0,0,0,.2.5,5.9,5.9,0,0,0,.4.8l.2.5c.1.3.3.5.4.8s.2.3.2.5a5.94,5.94,0,0,1,.4.8l.2.4.4.7c.1.1.2.3.3.4s.3.5.4.7.2.3.3.4a2.51,2.51,0,0,1,.4.7l.3.4c.2.2.3.5.5.7s.2.3.3.4l.5.7.3.4.5.7.3.4.3.4h0c.1.1.2.3.3.4l13.8-8.1.2-.2.2-1.3h0v-.2h0V117h0c0-.2.1-.5.1-.7v-.4h0a.9.9,0,0,1,.1-.5V115h0v-1h0c.2-1.1,1.6-1.9,3-2.9s3.3-3.8,6.6-7,4.3-6.3,5.3-9.2c.7-2.3,1.3-11.3,1.4-15.4-.3,0-2.2-.2-3.2-.2h-.5c-.6.1-2.3,1.7-3.1,2.7s-1.9,3-3,3.2h-.4c-.8-.1-.9-.9-.9-1.6a14,14,0,0,0,0-2.9,20.9,20.9,0,0,1-.1-2.5h0a8.58,8.58,0,0,1-2,1.3,15,15,0,0,0-2.9,2.5.6.6,0,0,1-.6.3c-.5,0-.6-1.3-.4-2.5.3-1.5,1.8-2.8,2.6-4.3a7.35,7.35,0,0,0,.2-3.9h0c-3.7,3.4-7.8,7.1-9.1,8.5-1.1,1.1-2.5,2.5-3.2,2.5s-.6-1,.7-4.3c2.9-7,10.1-14.7,10.1-14.7l-.6-5.7,1.9-1.5a20.19,20.19,0,0,1-.4-6.5c.3-3.5,5.5-4.2,7.3-8.1s4.7-4.3,7-4.6,7.6-1.4,7.6-1.4a23.91,23.91,0,0,0,2.3-2.2,4.56,4.56,0,0,1,3-.7c3,0,7.3.9,9.9,1,3.8.1,1.8,1.7.5,1.9s-3.6.7-4.6,1.5-3.1,1-5,1.6-2.5,2.2-3.7,4.1-6.7,3.8-7.7,4.2-.5,1.2.3,2.3.3,2.4-.3,3.6a5.78,5.78,0,0,0-.5,1.4h0c2.3-.8,5.8-1.9,8.2-2.6a13.21,13.21,0,0,1,4.8-.6c1.7,0,3.3.2,4.7.3h1.2c2,0,1.6.3,1.7.9s-1.3,2.3-3.6,3.8a11.82,11.82,0,0,1-4.9,1.5c-3.6.9-4,1.4-4,1.4a8.65,8.65,0,0,0,2.3.6,24.52,24.52,0,0,0,2.7.2,6.6,6.6,0,0,0,1.4-.1A7.09,7.09,0,0,0,249,59a4.55,4.55,0,0,1-.5,2h0l1.4-.7c.2-.1,1.5-.8,4-2a9.74,9.74,0,0,0,2.4-1.5.37.37,0,0,1,.3-.1.46.46,0,0,1,.5.4v.1a.9.9,0,0,1-.1.5,8.67,8.67,0,0,1-1.4,2.7h0a25.42,25.42,0,0,0,4.5-1.3c2.2-.9,5.1-5.1,6.5-6.9s9.2-3.7,9.2-3.7a1.88,1.88,0,0,0-1.2,2.3c-2.6,1-3.1,4.1-3.1,4.1-4.8,2.2-1.1,2.1.3,2.1s.1,3.1-.2,4a1.49,1.49,0,0,0,.7,1.6,33.32,33.32,0,0,0-3.3,2.7,11,11,0,0,0-2.9,4.6c-.8,2.5-2.9,3.8-4.8,5s-5.9,1.4-5.3,1.6a9.86,9.86,0,0,0,2.4.3l1.4.4h1.9a8.33,8.33,0,0,1,1.5.4h.4c4.2,0,4.4,2.3,5.2,3.9.5,1.1.3,3.4.1,4.6a1.27,1.27,0,0,1,.1.6c1.6-1.1,4.1-2.6,6.4-4.3l5.4-3.2a2.09,2.09,0,0,0-.6-.4l-.2-.1a2,2,0,0,1-.9-.9v-.1l-.5-1.1s.1-.6.3-.6a22.42,22.42,0,0,0,2.6-.5,20.24,20.24,0,0,0,2.6-1l1.7-.7.3-.1h.1v-.4c0-.2,0-.3.1-.4v-.1a.76.76,0,0,1,.2-.4,4.62,4.62,0,0,0,.7-.7V70.1l.6-.4.4-.8V67.6a7.55,7.55,0,0,1,1.1-1.4c.8-.8,2.8-3.2,3.7-4.2a23.09,23.09,0,0,0,3.1-3.9c.7-1.4,2.5-5.4,2.5-5.4.5-.7,1-1.3,1.6-2l.1-.1c.5-.4,1.4-1,1.4-1h1.4l-.6.8,1.1-.4,1.7.9a21.83,21.83,0,0,0-2.2,2.1,5.74,5.74,0,0,0-.4.7c-.1.2-.2.3-.2.5v.1a4.25,4.25,0,0,0-.2,1.1h0s1.9-1.6,2.3-2a2.18,2.18,0,0,1,.8-.5c.1-.1.3-.1.4-.2v.8l.8-.7,1.1-.3.7,1.1.4.5a14.31,14.31,0,0,0-1.5,1.1l-.1.1a12.67,12.67,0,0,0-1.1,1.3l-.1.2.2-.1.2-.1.2-.1c.9-.4,2.7-1,2.9-1.1h.2a4.1,4.1,0,0,1,1.1.1l1.4.5-.3,1,1.1.7v.8l.7.2v.6l.5.5.3.5v.5l.6.4.4,1-.5.8,1.1.3v.8s.4.9.5.9a.76.76,0,0,1,.4.2l.3.1.3.8-.4.4.7.5.4.9-.7.4.7.4.4.4.4,1v.6l-2.2.7-1.7.8.6.1c.7.1,2,.3,2.4.3a4.13,4.13,0,0,1,1.5.7.1.1,0,0,1,.1.1l.1.1h.1l-.8,1-.1.8-2.7.1,2.9,1.6-.3,1,.2,1s-3.3-.5-3.5-.5a29.24,29.24,0,0,0-4-1h0c-.5,0-1.6.2-2.2.2s-2.8-.2-4-.2h-.6c-1.1.2-4.1,1.7-5.3,2a25.58,25.58,0,0,1-2.7.5h-.5c-.9,0-3.1-.1-3.2-.1h0c-.1,0-.4.1-.6.1h-.2a11.48,11.48,0,0,0-1.4-.2h0a14.65,14.65,0,0,1-2.4,1.7l-.2.1c-.1.1-.3.1-.5.2-.6.2-1.3.3-1.5.7a.1.1,0,0,1-.1.1,10.92,10.92,0,0,1-1.3,1.7h-.2a.72.72,0,0,1-.6-.4v-.1h0v-.1l-.1-.1-.1-.1-.1-.1-.1-.1v-.1l-.1-.1V83l-.1-.1v-.1l-.1-.1v-.1l-.1-.1h0l-.1-.1h0l-.5-.8-.1-.2c-1.2.9-4.4,3.3-7.4,5.6l-8.8,5.1a52,52,0,0,1-3.8,4.4h6.7a24.4,24.4,0,0,0,4.5-.8l3.1-.5a23.18,23.18,0,0,1,3.3-1c2.4-.6,4.1-.6,8.6-1.1,4-.5,7-1.8,8.1-1.8a.37.37,0,0,1,.3.1c.5.3.4,1.3.4,2.5v1.3a10.45,10.45,0,0,1,0,2.5v.5a4,4,0,0,1-.9,2c-.6.9-1.3,1.9-1.8,2.8-.8,1.6-.4,3.1-.6,4.2a8.59,8.59,0,0,1-2.1,2.8l-.2.2,2.3,1.9s.6,2.2,1.2,4.1a9.26,9.26,0,0,1,.4,2.3v.9c0,.1,0,.2-.1.2h-.1a6.6,6.6,0,0,1-1.8-1.2c-.8-.5-4.9-3.6-5.4-3.5a.1.1,0,0,0-.1.1,16.92,16.92,0,0,0,.4,5c.4,1.4,0,1.8-.4,2.8s-2.7,2.6-3.1,3.6.7,3.1.8,3.9a3.75,3.75,0,0,1,0,2.1q-.75,2.7-1.8,5.4c-.1.2-.2.4-.3.4-.4,0-.9-1.5-1.7-3.5-.1-.3-.2-.5-.3-.8-.7-1.7-1.4-3.7-2.4-5.7-.2-.5-.5-.9-.7-1.4l-.4-.7a18.9,18.9,0,0,0-2-2.7c-3.1-3.6-3.7-3.9-3.7-3.9h0s-1.7.1-3.4.1a21.75,21.75,0,0,1-2.6-.1,37.08,37.08,0,0,0-4.7-.3c-1.5,0-3.1.1-4.9.2a18.55,18.55,0,0,1-2.2.1,6.37,6.37,0,0,1-4.2-1.3c-1.7-1.1-2.9-2.8-5.7-5.3l-.4-.4-.1-.1c-.1-.1-.2-.2-.2-.3a.35.35,0,0,1-.1-.2l-.2-.2-.1-.2c-.1-.1-.1-.2-.2-.2s-.1-.1-.1-.2-.1-.2-.1-.3-.1-.1-.1-.2-.1-.2-.1-.3l-.1-.1a.6.6,0,0,1-.1-.4v-.1l-.1-.4v-.2l-.1-.3v-2.2h0v-.8l-16.4,9.6-1.7,1.8v.1h0v2.8h0v.2h0v.2h0v.2c-.1.9-.9,1-2,1.6a2,2,0,0,1-1.1.3,4,4,0,0,1-1.5-.3h0s-.9.8-2.1,1.8c-1,.9-1.2,1.1-1.8,1.1h-.8l-.1-.1h-.1l-.2-.1h0l-.2-.1H215l-.2-.1h-.1l-.2-.2h0l-.2-.1-.1-.1-.2-.1-.1-.1-.2-.2-.1-.1-.1-.1-.1-.1-.1-.1-.1-.1-.1-.1-.1-.1h0a4.51,4.51,0,0,1-.7-.7,15.62,15.62,0,0,0-4.5,2.6,45.44,45.44,0,0,1-5.6,4.2l.1.1h0a70.24,70.24,0,0,0,24,18.9h0l.9.4h0l.9.4h0l.8.4h.1l.8.4h.1l.8.3h.1l.8.3h.1l.8.3h.1l.8.3h.1l.8.3h.1l.8.3.2.1.8.2.2.1.8.2.2.1.8.2.2.1c.3.1.5.1.8.2l.2.1.7.2.2.1c.2.1.5.1.7.2l.3.1.7.2.3.1.7.1.3.1.7.1.3.1.7.1.3.1.7.1.3.1.7.1.3.1.6.1.3.1.7.1h.3l.6.1h.4l.6.1h.4l.6.1h5.4a71,71,0,1,0-71-71v2c-.2,0-.2.2-.2.3Zm3.1,286.5a6.54,6.54,0,0,0-5.2,2.5,10.5,10.5,0,0,0,0,12.4,6.84,6.84,0,0,0,9.7.8l.9-.9a7.61,7.61,0,0,0,1.5-2.8,13.32,13.32,0,0,0,.5-3.4,9.51,9.51,0,0,0-2.1-6.2A7,7,0,0,0,189.1,373.4Zm36.4.5h-1.3v16.3h1.3c3,0,5.2-.7,6.5-2s2-3.4,2.1-6.1-.7-4.9-2.1-6.2-3.5-2-6.5-2Zm168.2-21.2c-.4-.7-1.4-.9-1.6-1.8-.1-.4-.5-.5-.7-.7h-1.5a1.09,1.09,0,0,1-1.5,0h-1.3c-.1.1-.2.1-.3.2a3.57,3.57,0,0,1-4.5,1.1,5.07,5.07,0,0,0-1.3-.2c-1.8-.2-3.4.4-5.1.6-1.9.2-3.9,1.3-5.7-.1v.5h-.7v-.6h.6l-.1-.1c-2.3.1-4.6-.9-6.8,0a2.72,2.72,0,0,1-.9,0c-1,.1-1.9-.6-3-.5a17.73,17.73,0,0,1-4,.8,16.27,16.27,0,0,1-6.6-.2c-.7-.2-1.6-.5-2.1.4a.6.6,0,0,0,.1.4c.1.2.4.2.5.5-1.6-.4-3.3.2-4.8-.6-.1,0-.2-.1-.4-.1-2,.4-4.1-.8-6.1.2a1.39,1.39,0,0,1-.9,0,15.06,15.06,0,0,0-3.7-.2,8.59,8.59,0,0,1-3.2-.5,3.76,3.76,0,0,0-2.1-.1,10.82,10.82,0,0,1-4.4.2c-1.9-.4-3.8-.5-5.4.8a.62.62,0,0,1-.7.1c-1.2-.6-2.6-.3-3.8-.6a3.87,3.87,0,0,0-2.6,0c-.7.2-1.3.4-1.8-.5a.76.76,0,0,0-.9-.2,2.46,2.46,0,0,1-1.7-.2,1.7,1.7,0,0,0-1.4,0,5.52,5.52,0,0,1-3.8.1,3.34,3.34,0,0,0-1.7-.1c-.2.1-.5.2-.7.3-3,.4-6,.1-8.9.8a1.27,1.27,0,0,1-.6-.1c-2.1-.7-4.2-.5-6.3-.5a13.52,13.52,0,0,1-4-.3,4.12,4.12,0,0,0-2.2-.1,6.82,6.82,0,0,1-4,0,3.21,3.21,0,0,0-1.4-.1c-1.1.2-2.3.2-3.4.4a.6.6,0,0,0-.4.1,12.21,12.21,0,0,1-2.6.6v.5l-.8-.1v-.5a8.76,8.76,0,0,1-4.2-.8,10.35,10.35,0,0,0-5.8-.4,6.31,6.31,0,0,1-3.6-.1c-.6-.3-1.3,0-1.9,0-2.2,0-4.3.8-6.5.5-1.6-.2-3.2.2-4.8,0a1.27,1.27,0,0,0-.6.1,10.15,10.15,0,0,1-4.9.4,20.27,20.27,0,0,0-5.5-.1c-1.1.2-2.3.5-3.2-.5a.62.62,0,0,0-.7-.1,3.21,3.21,0,0,1-1.7-.2,1.48,1.48,0,0,0-1.3,0,7.51,7.51,0,0,1-4.2.1,3.79,3.79,0,0,0-1.5,0c-1,.6-2,.3-3.1.4a8.6,8.6,0,0,0-1.6.1c-.7.3-1.5.1-2.2.4-.1.1-.2.1-.3.2-.7.4-1.4.1-2.1,0-.1,0-.2-.1-.3-.1a3.19,3.19,0,0,1-1.4-.3,5.66,5.66,0,0,0-1.8-.3h-3.1a5.7,5.7,0,0,1-2.6,0c-1.1-.3-2.5-.8-3.7-.4a9.45,9.45,0,0,1-4.1,0,6.6,6.6,0,0,0-1.4-.1c-1.6.3-3.2.4-4.8.6H179a12.21,12.21,0,0,1-6-.1,6.87,6.87,0,0,0-4-.3,10.42,10.42,0,0,1-4.3.2,40.9,40.9,0,0,0-7,0c-1.3.5-2.5-.4-3.7,0-2.5.7-5.1.2-7.7.7a3.76,3.76,0,0,1-2.1-.1,3.94,3.94,0,0,0-2.4-.1,3.05,3.05,0,0,1-1.9.1,1.6,1.6,0,0,0-1.5.1c-1.3.8-2.6.5-4,.6-.4,0-.2-.2-.1-.3s.1-.2.2-.3c0-.7-.6-.6-1-.6a9.86,9.86,0,0,0-2.4.3c-2.7.9-5.5-.1-8.2.2-1.5.1-1.8.1-1.9,1.7v5.4a24.32,24.32,0,0,0,0,2.7c0,.2-.1.3-.2.5v1.5a2,2,0,0,1,.3,1.1.37.37,0,0,0,.1.3,2,2,0,0,1,0,1.1c-.4.6.2,1.4-.3,2.1v1.3c.3,1,0,2,.3,3.1v.8a10.48,10.48,0,0,1,0,7.4c0,.1-.1.3-.1.4a6.6,6.6,0,0,1-.1,1.4,16.2,16.2,0,0,1-.1,2.2v1.3c.4.6.2,1.2.3,1.9-.1.8.2,1.7-.3,2.5v1.8c.1.2.2.3.2.5a28.05,28.05,0,0,1,0,2.9c0,.7.2,1.4.2,2.1-.1,2.7-.4,5.4.3,8a17,17,0,0,1,0,3.9l.2.3-.2.3v.3c0,.8-.1,1.6.7,2.2a6.11,6.11,0,0,0,1.4.7,4.48,4.48,0,0,0,1.1.1,10.86,10.86,0,0,0,4.4,0,10.2,10.2,0,0,1,3.5-.4v-.4h.6v.5l.9.3a5.33,5.33,0,0,0,2.8.1c2.3-.4,4.6-.9,7-1.2.3-.1.7-.2.9.1.7,1.1,1.9,1.1,3,1.2s2.3.6,3.5,0a3.7,3.7,0,0,1,2.1-.6V413h.8v.2c.3.1.5.1.8.2a5.41,5.41,0,0,0,4.6-.8c.2-.1.3,0,.5,0a9.42,9.42,0,0,0,2.9.1c1.6.1,3.3-.2,4.9.4a1.24,1.24,0,0,0,1.5-.3.6.6,0,0,0-.1-.4c0-.2-.9-.4.1-.5a8.52,8.52,0,0,1,3.2.3V412h.6v.5a6.47,6.47,0,0,0,3.1.1h.1l.1.1c.2.1.4.1.6.2v-.3h.6v.4a4.33,4.33,0,0,0,1.6-.1c1.4-.3,2.8-.5,4,.5a.9.9,0,0,0,.5.1c1.5,0,3.1.6,4.6-.1a1.39,1.39,0,0,1,.9,0c3.3.8,6.6.1,9.9-.4a20.48,20.48,0,0,1,3.5-.1,16,16,0,0,1,2.1.5c1.7.4,3.5,0,5.2,0,2.2,0,4.4.9,6.6,0a.66.66,0,0,1,.6.1c.2.1.5.1.7.2h.4v.1a21.11,21.11,0,0,0,8.3-.6,14.68,14.68,0,0,1,7.2.6,14.79,14.79,0,0,0,4.2.1,6.49,6.49,0,0,1,3.9.1,2.85,2.85,0,0,0,1.3,0q3-.45,6-.6c1.8.1,3.6-.4,5.4,0a3.4,3.4,0,0,0,1.4-.2,6.92,6.92,0,0,1,3.5-.4,23,23,0,0,0,7.4,0,6.15,6.15,0,0,1,1.3.1c1.4,0,2.6.8,4,.6,2.2-.3,4.4.2,6.5-.2a4.44,4.44,0,0,1,2,.1,17.13,17.13,0,0,0,3.2.1v-.2h.6v.2a1.61,1.61,0,0,0,1.3-.6c.5-.6,1.1-.4,1.7-.3a14.22,14.22,0,0,0,5.8.3c.8-.2,1.5-.8,1.9.5.1.2.3.3.4.2,1.3-.3,2.5.6,3.7.4a6.09,6.09,0,0,1,3,0,7.07,7.07,0,0,0,2.5.2c2.5-.2,4.9-.7,7.4-.7a24.13,24.13,0,0,1,3.8.1V413h.7v.5h-.2a7.45,7.45,0,0,0,5.3-.3,1,1,0,0,1,.9.1,19.93,19.93,0,0,1,3.4.5,1.18,1.18,0,0,0,1-.1,7.75,7.75,0,0,1,4,0,7.57,7.57,0,0,0,1.5.1,11,11,0,0,1,1.8-.2,4,4,0,0,0,2.6-.8,1.84,1.84,0,0,1,1.6-.5c1.5.4,3.1.4,4.6.8,1.9.4,3.9.9,5.9.2a3.33,3.33,0,0,1,2.2-.1,10.88,10.88,0,0,0,3.1.3c2.2-.1,4.4-.2,6.7-.2a5.55,5.55,0,0,0,3.6,0c.6-.2,1.3,0,1.9-.2,1.1-.2,2.2-.1,3.3-.3,1.5-.3,2.8.4,4.2.3a17.85,17.85,0,0,1,4-.1,1.27,1.27,0,0,1,.6-.1l-.2-.4.3-.4v.8a6.66,6.66,0,0,1,3.1.4,3.34,3.34,0,0,0,2.6.2,11.41,11.41,0,0,1,4.5-.6h4a2.11,2.11,0,0,0,2-1.1V410a1.5,1.5,0,0,1,0-1.8v-1a3.43,3.43,0,0,1-.7-3.5c-.1-1.3.5-2.5.4-3.8s0-2.5,0-3.8a.71.71,0,0,0-.3-.6,1.23,1.23,0,0,1-.2-1.3,4.53,4.53,0,0,0,.3-1.6c.2-3.5-.4-7,0-10.4a2.77,2.77,0,0,0-.1-.9,7,7,0,0,1-.4-2.9,12.93,12.93,0,0,0-.4-4.4,1.18,1.18,0,0,1,.1-1,.6.6,0,0,0,.1-.4,17.7,17.7,0,0,0,.1-2.3,33.15,33.15,0,0,1,0-6.3,24.37,24.37,0,0,0,.6-2.6,2.09,2.09,0,0,1,.4-.6v-1.3a1.82,1.82,0,0,1,0-2v-2.1a1.5,1.5,0,0,1,0-1.8Zm-269.1,3.5h.6v.6h-.6Zm.3,55.5v-.4l1.4.4Zm4.7-56.9h-.8V354h.8Zm6.5.2h-.7v-.6h.7Zm.9,56.4h-.8v-.7h.8Zm23.4-57.8h.8v.7h-.8Zm-2.3.1v1.1l-.9-.4Zm-7.5-1.5h.5v.7h-.5Zm-3.6,3.4h.6v.7H147Zm-1.7.8h.7v.7h-.8Zm-1.3-2.2h.6l-.1.8H144Zm-2.4,2.3H141V356h.7v.5Zm.7,2.7h-.5v-.7h.5Zm1.2,52.4h-.7V411h.7Zm5.5,1.5h-.7v-.6h.7Zm2.8-1.5h-.5v-.8h.6Zm3.1,1.3h-.6v-.7h.6Zm3.5-3.4h-.5v-.7h.5Zm4.5-27.5a8.56,8.56,0,0,1-2.3,3.3,7.39,7.39,0,0,1-2.8,1.4,17.59,17.59,0,0,1-5.1.4H150v9.8h-7.1V367.3h8a29.38,29.38,0,0,1,6.6.5,7.63,7.63,0,0,1,3.2,1.7,8.92,8.92,0,0,1,2.3,3.4,13.55,13.55,0,0,1-.1,9.1Zm.9-28.6v-.7h.8v.8Zm.5,2h.6v.6h-.6Zm1.1,55.9-.9-.4.9-.7Zm3-.5h-.8v-.7h.8Zm.8-54.3h-.6v-.7h.6Zm2.7,53.6-.8-.1v-.7h.8Zm30.8-56,.8.1-.1.7h-.7Zm-1.3,0h.7v.7h-.6Zm-11.3-.8.4.4a2.51,2.51,0,0,1-.7-.4c.2.1.2.1.3,0Zm-.4,1.2h.8v.5h-.8Zm-12.9-1.1h.7v.6h-.7Zm-.1,3.7h.7v.8h-.6Zm8.1,53.5H184l.1-.6h.7Zm1.3-2.3h-.5v-.5h.6Zm11.7,3.3H197v-.5h.8Zm-.6-1.6c.1,0,.2,0,.2-.1l.4.4a3.29,3.29,0,0,1-.6-.3Zm2.1-3.4h-.7V406h.7Zm1.9-.7h-.7v-.7h.7Zm1.8-17.8a15.77,15.77,0,0,1-3.2,5,15.38,15.38,0,0,1-4.9,3.4,14.14,14.14,0,0,1-11.4,0,13.57,13.57,0,0,1-4.8-3.4,13.83,13.83,0,0,1-3.2-5,16.3,16.3,0,0,1,0-11.9,13.83,13.83,0,0,1,3.2-5,14.52,14.52,0,0,1,4.8-3.4,14.14,14.14,0,0,1,11.4,0,13.57,13.57,0,0,1,4.8,3.4,13.83,13.83,0,0,1,3.2,5,16.82,16.82,0,0,1,.1,11.9Zm2.2,19.4h-.7v-.6h.7Zm4.2,4h-.7v-.8h.7Zm.4-54h-.7V357h.7Zm.9,54H210v-.8l.8.1Zm.2-6.1h-.8v-.5h.8Zm1-53,.3.5-.3.4Zm.7,4.6h-.7v-.6h.7Zm27.6,1h.5v.7h-.5Zm-.9-2.6h.7v.6h-.7Zm-5.5-1.6h.7v.6h-.7Zm-6.6-.4h.8v.8h-.8Zm-4.2,2.2h.6v.6H223Zm-7.1-1.2V354l1.4.4Zm3.3,55.5V409l.3.5Zm.8,3.7h-.7V413h.7Zm3.2-2.6v-.4l1.4.4Zm7.7,1.8h-.6v-.6h.6Zm4.4-2.1h-.8V410h.8Zm5.1-21.7a13.07,13.07,0,0,1-4,5,13.67,13.67,0,0,1-4.6,2.1,37.46,37.46,0,0,1-8.1.7h-7.1V367.2h5.8a47.08,47.08,0,0,1,9.2.6,11.94,11.94,0,0,1,4.7,2.2,11.45,11.45,0,0,1,4,5,17.49,17.49,0,0,1,.1,14Zm1.5,21.9h-.7v-.6h.7Zm1-56.5h-.5v-.8h.6Zm1.4,2.1h-.8l.1-.7h.7Zm1.7-.9h-.6V355h.6Zm1.4,56.9h-.7v-.6h.7Zm2-60.2H249v-.7h.5Zm.8,58.7h-.5v-.8h.6Zm1.5,2.1h-.8l.1-.7h.7Zm22.2-61.3h.7v.5h-.7Zm-6.9,3.5h.6v.7H267Zm-4.3-.5h.6v.6h-.6Zm-4-1.9h.8v.7h-.8Zm-2.3.1v1.1l-.9-.4Zm-3.1,59.2h-.5v-.7h.6Zm3.5-3.3h-.5v-.7h.5Zm7,1.8-.9-.4.9-.7Zm3-.5H266v-.7h.8Zm3.8,1.7H270v-.6h.6Zm-1.1-2.5v-.6h.8v.8Zm1.5-12.3a14.87,14.87,0,0,1-3.6.5,14.71,14.71,0,0,1-4.2-.6,12.65,12.65,0,0,1-3.5-1.7,15.29,15.29,0,0,1-4.8-5.6,16.77,16.77,0,0,1-1.6-7.6,16.57,16.57,0,0,1,1.1-6.2,11.51,11.51,0,0,1,1.2-2.5,23.48,23.48,0,0,1,1.9-2.5,12,12,0,0,1,4.5-3.2,14.59,14.59,0,0,1,5.5-1.1,22,22,0,0,1,3.6.4,15.81,15.81,0,0,1,3.6,1.4v8.8a11.39,11.39,0,0,0-3.1-2.7,7.73,7.73,0,0,0-3.4-.8,6.49,6.49,0,0,0-5.3,2.4,5.44,5.44,0,0,0-1.1,1.8,8.3,8.3,0,0,0-.6,2.1,19.42,19.42,0,0,0-.2,2.4,8.4,8.4,0,0,0,2.1,5.9,6.7,6.7,0,0,0,5.3,2.3,6.92,6.92,0,0,0,3.4-.9,11.39,11.39,0,0,0,3.1-2.7v8.8a35.63,35.63,0,0,1-3.9,1.3Zm3.9,15.4h-.6v-.6h.6Zm.9-55.2h-.7v-.8h.7Zm.1-4h-.8l.1-.6h.7v.6Zm5,7.7h-.8v-.5h.8Zm.1-5.8-.8-.1.1-.7h.7v.8Zm.9,53.7h-.6v-.5h.6Zm.3-53.7h-.7v-.8h.7Zm1,54.7h-.8l.1-.6h.7v.6Zm24.3-53.5h.7v.5h-.7Zm-1.3-4.9h.7v.8h-.7Zm-.1,3.9h.8l-.1.6h-.7v-.6Zm-1.3,2.2h.5v.5h-.6Zm-3.8-4.1.8.1-.1.7H301Zm-1.3,0h.7v.8h-.7Zm-6.6.8h.8v.5h-.8Zm-5-.4h.8v.5h-.8Zm-2.3,4.6h.7v.6h-.7Zm-1.3,49.2H284v-.5h.6Zm3.8,4.1-.8-.1.1-.7h.7v.8Zm1.3,0h-.7V411h.7Zm6.6-.8h-.8v-.5h.8Zm5.1.4h-.8v-.5h.8Zm2.3-4.5h-.7v-.6h.7Zm4.2,4h-.7v-.8h.7Zm1.3,0h-.7v-.8l.8.1Zm.2-6.2h-.8v-.5h.8Zm-4.6-7.9-1.4-5.3H292.5l-1.5,5.3h-7.6l9.6-29.6h9.5l9.7,29.6Zm9.4,15.8h-.7V412h.8Zm.1-3.8h-.7v-.7h.7Zm.8-55.3h-.6v-.7h.6Zm24.1.8h.5v.8H339Zm-1.4-2.1h.8l-.1.7h-.7v-.7Zm-1.7.9h.6v.7H336Zm-3.4,3.3h.5v.7h-.5Zm-7-1.8.9.4-.9.7Zm-3.1.5h.8v.7h-.7Zm-3.7-1.7h.6v.6h-.6Zm1,3.2H319v-.8l.8.1Zm2.6,53.5h-.6v-.7h.6Zm4.8,3.1h-.8v-.8l.8.1Zm-1.1-2.6V410h.6v.6Zm4.5,1.8h-.8v-.7h.8Zm2.3-.1v-1l.9.4Zm5.4-17.5a10.83,10.83,0,0,1-7.8,2.8,13.86,13.86,0,0,1-5.3-1,15,15,0,0,1-4.6-3.3l3.4-6a13.84,13.84,0,0,0,3.4,3,6.39,6.39,0,0,0,3.3,1,3.84,3.84,0,0,0,2.5-.9,3,3,0,0,0,1-2.2,3.24,3.24,0,0,0-.8-2.3,10.67,10.67,0,0,0-3.9-1.6,13.57,13.57,0,0,1-5.8-3,7.74,7.74,0,0,1-1.7-5.2,9.19,9.19,0,0,1,8.8-9.6h.8a13.08,13.08,0,0,1,4.4.7,14.4,14.4,0,0,1,3.9,2l-2.4,5.8a12.71,12.71,0,0,0-2.7-1.8,6.26,6.26,0,0,0-2.7-.6,3.41,3.41,0,0,0-2.2.7,2.14,2.14,0,0,0-.9,1.8,2.87,2.87,0,0,0,.7,1.8,10.76,10.76,0,0,0,2.9,1.3h.1c.1,0,.1,0,.2.1,3.1.9,5.2,1.9,6.1,2.9a6.81,6.81,0,0,1,1.5,2.6,12.7,12.7,0,0,1,.5,3.4A9.67,9.67,0,0,1,338.3,394.8Zm4.4-41.4h-.6v-.6h.6Zm1.3,57h-.6v-.7h.6Zm1.7-.9H345v-.7h.8Zm1.3,2.2h-.6l.1-.8h.5Zm1.2-56.7h-.7v-.6h.7Zm22,.5v.9l-.3-.5Zm-4.1-1.2v.4l-1.4-.4Zm-7.7-1.7h.6v.6h-.6Zm-4.4,2h.8v.8H354Zm-4.9,52.8h-.5v-.7h.5Zm.9,2.6h-.7v-.6h.7Zm5.5,1.6h-.7V411h.7Zm6.6.3h-.8v-.8h.8Zm4.2-2.2h-.6v-.6h.6Zm4.9-35.5h-6.3v22.6h-7.6V374.2H351v-7h20.1v7Zm2.3,37.1-1.4-.4h1.4Zm3.9-2.4h-.7v-.6h.7Zm11.5-48.8h-.7v-.7h.7Zm1.8-.8H390v-.6h.7Zm1.2-3.9-.4-.4a2.51,2.51,0,0,1,.7.4c-.1-.1-.2,0-.3,0Zm-93.4,19.2-.6-2.5c-.2.7-.3,1.4-.5,2.1s-.4,1.3-.5,1.9l-2.8,9.8h7.6l-2.8-9.8C298.8,375.8,298.7,375.4,298.5,374.6Zm-143.2-.2a6.92,6.92,0,0,0-3.8-.8H150v7h1.5a6.92,6.92,0,0,0,3.8-.8,3.12,3.12,0,0,0,1.1-2.7,3.48,3.48,0,0,0-1.1-2.7Z"/></svg>