<svg id="DQVV_LOGO" data-name="DQVV LOGO" xmlns="http://www.w3.org/2000/svg" viewBox="0 0 110 110"><defs><style>.cls-1{fill:#efe215;}</style></defs><title>dqvv_icon</title><path class="cls-1" d="M55.07,5.07A49.94,49.94,0,0,0,5.14,55v1.41c-.14,0-.14.14-.14.21v1.12a2,2,0,0,0,.07.64v.42a1.54,1.54,0,0,0,.07.56.76.76,0,0,0,.07.42l.07.56a.91.91,0,0,0,.07.43c0,.14.07.35.07.56s.07.28.07.42.07.35.07.56l.07.43c0,.21.07.35.07.56s.07.28.07.42.07.35.07.56l.07.42.14.57c0,.14.08.28.08.42l.14.56.07.42c.07.21.07.36.14.57a1,1,0,0,1,.07.42,2.16,2.16,0,0,0,.14.56,2.92,2.92,0,0,0,.14.42c.07.14.07.35.14.57a2.92,2.92,0,0,0,.14.42,1.32,1.32,0,0,1,.14.56c.07.21.07.28.14.35l.14.56c.07.14.07.29.14.36l.21.56.14.35.21.56.15.35.21.57c.07.14.07.21.14.35a4.82,4.82,0,0,1,.21.56l.14.35c.07.21.14.35.21.57l.14.35a2.1,2.1,0,0,0,.28.56,1.8,1.8,0,0,0,.14.35,4.13,4.13,0,0,0,.28.56l.14.36c.07.21.22.35.29.56s.14.21.14.35a4.16,4.16,0,0,1,.28.56l.14.28.28.5c.07.07.14.21.21.28s.21.35.28.49.14.21.21.28a1.75,1.75,0,0,1,.28.49l.21.28c.15.14.22.36.36.5s.14.21.21.28l.35.49.21.28.35.49.21.28.21.29c.07.07.14.21.21.28l9.71-5.7.14-.14.14-.91v-.29c0-.14.07-.35.07-.49V77a.63.63,0,0,1,.07-.35v-1c.14-.78,1.13-1.34,2.11-2s2.32-2.68,4.64-4.93a14.79,14.79,0,0,0,3.73-6.47c.49-1.61.91-7.94,1-10.83-.21,0-1.54-.14-2.25-.14h-.35a7.22,7.22,0,0,0-2.18,1.9c-.56.7-1.33,2.11-2.11,2.25h-.28c-.56-.07-.63-.63-.63-1.12a9.93,9.93,0,0,0,0-2,14.88,14.88,0,0,1-.07-1.76,6.06,6.06,0,0,1-1.41.91,10.91,10.91,0,0,0-2,1.76.42.42,0,0,1-.42.21c-.35,0-.42-.91-.28-1.76.21-1,1.26-2,1.83-3a5.18,5.18,0,0,0,.14-2.74c-2.6,2.39-5.49,5-6.4,6-.78.77-1.76,1.75-2.25,1.75s-.42-.7.49-3c2-4.92,7.1-10.34,7.1-10.34l-.42-4,1.34-1a14.27,14.27,0,0,1-.28-4.57c.21-2.46,3.86-3,5.13-5.7s3.3-3,4.92-3.23,5.35-1,5.35-1a15.7,15.7,0,0,0,1.61-1.55,3.24,3.24,0,0,1,2.11-.49c2.11,0,5.14.64,7,.71,2.67.07,1.26,1.19.35,1.33A8.65,8.65,0,0,0,49,21.74a17.33,17.33,0,0,1-3.51,1.12c-1.34.42-1.76,1.55-2.61,2.89s-4.71,2.67-5.41,2.95-.35.84.21,1.62.21,1.68-.21,2.53a4,4,0,0,0-.35,1c1.62-.56,4.08-1.33,5.76-1.83a9.35,9.35,0,0,1,3.38-.42c1.2,0,2.32.14,3.31.21h.84c1.41,0,1.12.21,1.19.64S50.71,34,49.09,35.1a8.32,8.32,0,0,1-3.44,1c-2.53.64-2.82,1-2.82,1a6.23,6.23,0,0,0,1.62.42,17.34,17.34,0,0,0,1.9.14,4.62,4.62,0,0,0,1-.07,5,5,0,0,0,2-.63A3.19,3.19,0,0,1,49,38.4l1-.49c.14-.07,1.05-.56,2.81-1.41a6.88,6.88,0,0,0,1.69-1,.26.26,0,0,1,.21-.07.32.32,0,0,1,.35.28v.07a.63.63,0,0,1-.07.35A6,6,0,0,1,54,38a18.14,18.14,0,0,0,3.16-.91c1.55-.64,3.59-3.59,4.57-4.85s6.47-2.61,6.47-2.61a1.32,1.32,0,0,0-.84,1.62,3.94,3.94,0,0,0-2.18,2.88c-3.38,1.55-.78,1.48.21,1.48s.07,2.18-.14,2.81a1,1,0,0,0,.49,1.13,22.2,22.2,0,0,0-2.32,1.9,7.64,7.64,0,0,0-2,3.23c-.56,1.76-2,2.67-3.38,3.52s-4.15,1-3.72,1.12a6.9,6.9,0,0,0,1.68.21l1,.29h1.33a5.72,5.72,0,0,1,1.06.28h.28c3,0,3.1,1.61,3.66,2.74a7.17,7.17,0,0,1,.07,3.23,1,1,0,0,1,.07.43c1.12-.78,2.88-1.83,4.5-3l3.8-2.25a1.38,1.38,0,0,0-.43-.28l-.14-.07a1.37,1.37,0,0,1-.63-.63v-.07l-.35-.78s.07-.42.21-.42a15.78,15.78,0,0,0,1.83-.35A14.73,14.73,0,0,0,74,47.9l1.19-.5.21-.07h.07v-.28c0-.14,0-.21.07-.28V46.7a.49.49,0,0,1,.15-.28,3.23,3.23,0,0,0,.49-.49V44.8l.42-.28.28-.56V43a5.29,5.29,0,0,1,.77-1c.57-.56,2-2.25,2.61-3a16.89,16.89,0,0,0,2.18-2.75c.49-1,1.75-3.79,1.75-3.79.36-.5.71-.92,1.13-1.41l.07-.07c.35-.28,1-.7,1-.7h1l-.42.56.77-.28,1.2.63a14.48,14.48,0,0,0-1.55,1.48,4,4,0,0,0-.28.49c-.07.14-.14.21-.14.35v.07a3,3,0,0,0-.14.78s1.33-1.13,1.61-1.41a1.57,1.57,0,0,1,.57-.35c.07-.07.21-.07.28-.14v.56l.56-.49.77-.21.5.77.28.35a10.11,10.11,0,0,0-1.06.77l-.07.08a8.87,8.87,0,0,0-.77.91l-.07.14.14-.07.14-.07.14-.07c.63-.28,1.9-.7,2-.77H92a2.87,2.87,0,0,1,.77.07l1,.35-.21.7.77.49v.57l.49.14v.42l.35.35.22.35v.35l.42.28.28.71-.35.56.77.21v.56s.28.64.35.64a.53.53,0,0,1,.28.14l.21.07.22.56-.29.28.5.35.28.64-.49.28.49.28.28.28.28.7v.42l-1.55.5-1.19.56.42.07c.49.07,1.41.21,1.69.21a2.89,2.89,0,0,1,1,.49.07.07,0,0,1,.07.07l.07.07h.07l-.56.71-.07.56-1.9.07,2,1.13-.21.7.14.7s-2.32-.35-2.46-.35A20.6,20.6,0,0,0,93.4,50c-.35,0-1.13.14-1.55.14S89.88,50,89,50h-.43c-.77.14-2.88,1.19-3.72,1.4-.64.14-1.27.28-1.9.36h-.35c-.64,0-2.18-.08-2.25-.08a4.28,4.28,0,0,1-.43.08h-.14a6.74,6.74,0,0,0-1-.15,9.81,9.81,0,0,1-1.69,1.2l-.14.07c-.07.07-.21.07-.35.14-.42.14-.91.21-1.06.49a.07.07,0,0,1-.07.07,7.28,7.28,0,0,1-.91,1.2h-.14a.51.51,0,0,1-.42-.28v-.14L74,54.3l-.07-.07-.07-.07-.07-.07V54L73.71,54v-.08l-.07-.07v-.07l-.07-.07v-.07l-.07-.07-.08-.07-.35-.56L73,52.75c-.84.63-3.09,2.32-5.2,3.94l-6.19,3.58a36.79,36.79,0,0,1-2.67,3.1h4.71a17,17,0,0,0,3.16-.56L69,62.45a16.76,16.76,0,0,1,2.33-.7,46.66,46.66,0,0,1,6-.77c2.82-.35,4.93-1.27,5.7-1.27a.26.26,0,0,1,.21.07c.35.21.28.92.28,1.76v.91a7.4,7.4,0,0,1,0,1.76v.35A2.81,2.81,0,0,1,82.92,66c-.42.63-.92,1.34-1.27,2-.56,1.12-.28,2.18-.42,3a5.84,5.84,0,0,1-1.48,2l-.14.14,1.62,1.34s.42,1.55.84,2.88a6.14,6.14,0,0,1,.29,1.62v.63c0,.07,0,.14-.07.14h-.07c-.22,0-.71-.42-1.27-.84s-3.45-2.53-3.8-2.46a.07.07,0,0,0-.07.07,11.91,11.91,0,0,0,.28,3.51,2.32,2.32,0,0,1-.28,2c-.28.71-1.9,1.83-2.18,2.54s.49,2.18.56,2.74a2.63,2.63,0,0,1,0,1.47,39.3,39.3,0,0,1-1.26,3.8c-.07.14-.14.28-.21.28-.28,0-.64-1-1.2-2.46-.07-.21-.14-.35-.21-.56-.49-1.2-1-2.6-1.69-4-.14-.35-.35-.63-.49-1l-.28-.5a12.56,12.56,0,0,0-1.41-1.89,16.72,16.72,0,0,0-2.6-2.75s-1.19.07-2.39.07a15.4,15.4,0,0,1-1.83-.07,26.11,26.11,0,0,0-3.3-.21c-1.06,0-2.18.07-3.45.14a13.06,13.06,0,0,1-1.55.07,4.48,4.48,0,0,1-3-.91c-1.2-.77-2-2-4-3.73l-.35-.35c-.07-.07-.14-.14-.14-.21a.24.24,0,0,1-.07-.14l-.14-.14-.07-.14c-.07-.07-.07-.14-.14-.14s-.07-.07-.07-.14-.07-.14-.07-.22-.07-.07-.07-.14-.07-.14-.07-.21L45.37,73a.42.42,0,0,1-.07-.28v-.07l-.08-.28v-.14L45.15,72V69.91L33.62,76.66l-1.19,1.27v2.46c-.07.63-.64.7-1.41,1.12a1.41,1.41,0,0,1-.77.21,2.82,2.82,0,0,1-1.06-.21s-.63.56-1.48,1.27-.84.77-1.26.77h-.56l-.07-.07h-.07l-.15-.07-.14-.07h-.07l-.14-.07h-.07L25,83.13l-.14-.07L24.83,83l-.14-.07-.07-.07-.21-.21-.07-.07-.07-.07-.07-.07L24,82.22a4.6,4.6,0,0,1-.5-.5,11.24,11.24,0,0,0-3.16,1.83,31.11,31.11,0,0,1-3.94,3l.07.08A49.53,49.53,0,0,0,33.34,99.87l.63.28.64.28.56.28h.07l.56.28h.07l.56.21h.07l.57.21h.07l.56.21h.07l.56.22h.07l.57.21H39l.56.21.14.07.56.14.14.07.57.14.14.07.56.14.14.07c.21.07.35.07.56.14l.14.07.49.14.15.07c.14.07.35.07.49.14l.21.07.49.14.21.07.49.07.22.08.49.07.21.07.49.07.21.07.49.07.21.07.5.07.21.07.42.07.21.07.49.07h.21l.43.07h.28l.42.07h.28l.42.07h3.8a49.93,49.93,0,0,0,0-99.86ZM35.94,72.86l.28-.35-.07.07Zm6.47-4.36L46.63,66c.42-.56.78-1.05,1.06-1.48l.07-.07a33.06,33.06,0,0,0,2.11-5.06,8.47,8.47,0,0,1-1.62-1.27,3.82,3.82,0,0,0-1.27.22c-.42.07-.91.28-1.4.35-.35,1.33-.85,3.16-1.06,3.72-.28.92-2.18,3.31-4.43,5.28l-.28.28-.07.07-1.06,1-.14.22-.14.14c-.07.07-.14.14-.14.21l-.14.14-.14.21-.14.14-.14.21-.14.14-.14.21-.14.14-.14.21-.07.14-.21.22c0,.07-.07.07-.07.14l-.14.21c0,.07-.07.07-.07.14s-.08.07-.15.14-.07.07-.07.14l-.07.14-.07.14.57-.7a17.45,17.45,0,0,0,4.57-2.46Z"/></svg>