<svg xmlns="http://www.w3.org/2000/svg" viewBox="0 0 110 110"><defs><style>.cls-1{fill:#efe215;}</style></defs><title>dqvv_icon</title><g id="Capa_1" data-name="Capa 1"><path class="cls-1" d="M55,5a50,50,0,1,0,50,50A50,50,0,0,0,55,5ZM74.38,71a1.53,1.53,0,0,1-1.53,1.53H37.15A1.53,1.53,0,0,1,35.62,71V68.37a1.53,1.53,0,0,1,1.53-1.53h35.7a1.53,1.53,0,0,1,1.53,1.53Zm0-14.68a1.52,1.52,0,0,1-1.53,1.53H37.15a1.52,1.52,0,0,1-1.53-1.53V53.7a1.52,1.52,0,0,1,1.53-1.53h35.7a1.52,1.52,0,0,1,1.53,1.53Zm0-14.67a1.53,1.53,0,0,1-1.53,1.53H37.15a1.53,1.53,0,0,1-1.53-1.53V39a1.53,1.53,0,0,1,1.53-1.53h35.7A1.53,1.53,0,0,1,74.38,39Z"/></g></svg>